<svg width="248" height="248" xmlns="http://www.w3.org/2000/svg" xmlns:xlink="http://www.w3.org/1999/xlink" xml:space="preserve" overflow="hidden"><g><g><path d="M31.9687 221.602 31.9687 214.82 36.2313 214.82 40.4695 214.82 40.3969 215.934 40.3242 217.048 37.3695 217.024 34.3906 216.976 34.3906 218.792 34.3906 220.633 36.9336 220.633 39.4766 220.633 39.4766 221.723 39.4766 222.812 36.9336 222.812 34.3906 222.812 34.3906 224.387 34.3906 225.937 37.3695 226.009 40.3242 226.082 40.3969 227.245 40.4695 228.383 36.2313 228.383 31.9687 228.383 31.9687 221.602Z" fill="#000000" fill-rule="nonzero" fill-opacity="1" transform="matrix(1 0 0 -1 0 248)"/><path d="M162.508 221.723 162.508 215.062 163.743 215.062 164.954 215.062 164.881 219.664C164.833 222.207 164.857 224.266 164.93 224.266 165.002 224.266 165.898 222.498 166.891 220.342L168.732 216.395 169.773 216.395 170.839 216.395 172.655 220.391 174.496 224.387 174.569 219.591 174.617 214.82 175.828 214.82 177.039 214.82 177.039 221.602 177.039 228.407 175.465 228.334 173.866 228.262 172.22 224.629C171.323 222.643 170.427 220.584 170.234 220.1 169.943 219.252 169.531 218.865 169.531 219.422 169.531 219.543 168.635 221.626 167.545 224.023L165.535 228.359 164.034 228.383 162.508 228.383 162.508 221.723Z" fill="#000000" fill-rule="nonzero" fill-opacity="1" transform="matrix(1 0 0 -1 0 248)"/><path d="M191.086 226.106C191.086 224.798 191.086 224.774 190.311 224.702 189.584 224.629 189.512 224.556 189.439 223.733 189.366 222.885 189.391 222.837 190.166 222.764L190.965 222.691 190.989 219.761C190.989 216.419 191.183 215.91 192.684 215.184 193.338 214.869 193.871 214.796 194.695 214.917 196.027 215.111 196.148 215.208 196.002 216.201 195.881 216.976 195.833 217 194.985 216.855 193.484 216.612 193.266 217.048 193.266 220.173L193.266 222.812 194.477 222.812 195.688 222.812 195.688 223.781 195.688 224.75 194.477 224.75 193.266 224.75 193.266 226.082 193.266 227.414 192.176 227.414 191.086 227.414 191.086 226.106Z" fill="#000000" fill-rule="nonzero" fill-opacity="1" transform="matrix(1 0 0 -1 0 248)"/><path d="M198.836 226.106C198.836 224.798 198.836 224.774 198.061 224.702 197.334 224.629 197.262 224.556 197.189 223.733 197.116 222.837 197.116 222.812 197.964 222.812L198.836 222.812 198.836 219.688 198.836 216.564 199.562 215.813C200.459 214.941 201.694 214.651 203.002 215.038 203.825 215.305 203.946 215.426 203.825 215.862 203.752 216.152 203.68 216.516 203.68 216.685 203.68 216.879 203.389 216.927 202.832 216.83 202.202 216.734 201.839 216.806 201.5 217.121 201.064 217.509 201.016 217.872 201.016 220.197L201.016 222.812 202.227 222.812 203.438 222.812 203.438 223.781 203.438 224.75 202.227 224.75 201.016 224.75 201.016 226.082 201.016 227.414 199.926 227.414 198.836 227.414 198.836 226.106Z" fill="#000000" fill-rule="nonzero" fill-opacity="1" transform="matrix(1 0 0 -1 0 248)"/><path d="M46.5 224.726C46.1852 224.58 45.7008 224.314 45.4828 224.096 45.0711 223.733 45.0469 223.733 45.0469 224.217 45.0469 224.702 44.9016 224.75 43.8844 224.75L42.7461 224.75 42.6977 219.785 42.6492 214.82 43.9086 214.82 45.168 214.82 45.168 218.332C45.168 221.553 45.2164 221.868 45.6766 222.328 45.943 222.595 46.5484 222.885 47.0086 222.958 47.7109 223.079 48.0016 222.982 48.5828 222.498L49.2852 221.892 49.3578 218.356 49.4547 214.82 50.5687 214.82 51.707 214.82 51.6344 218.623C51.6102 221.602 51.4891 222.619 51.1984 223.224 50.4719 224.629 48.1227 225.38 46.5 224.726Z" fill="#000000" fill-rule="nonzero" fill-opacity="1" transform="matrix(1 0 0 -1 0 248)"/><path d="M56.5508 224.726C54.7102 224.048 53.5234 222.11 53.5234 219.785 53.5234 217.121 54.807 215.426 57.2289 214.796 58.7789 214.409 60.6437 214.82 61.782 215.789L62.6055 216.491 61.9516 217.145 61.3219 217.799 60.4742 217.266C58.7547 216.201 56.575 216.782 55.9937 218.453L55.7273 219.18 59.2391 219.18 62.7266 219.18 62.7266 220.463C62.7266 222.958 61.1039 224.726 58.7062 224.895 57.907 224.944 56.9625 224.871 56.5508 224.726ZM59.5055 222.691C59.7719 222.498 60.1352 222.013 60.2562 221.602L60.5227 220.875 58.2219 220.875C55.6305 220.875 55.3883 221.093 56.6477 222.352 57.4469 223.152 58.6336 223.297 59.5055 222.691Z" fill="#000000" fill-rule="nonzero" fill-opacity="1" transform="matrix(1 0 0 -1 0 248)"/><path d="M68.6602 224.75C68.3695 224.653 68.0062 224.387 67.8367 224.169 67.4008 223.66 67.0375 223.684 67.1344 224.217 67.1828 224.556 66.9891 224.653 66.0687 224.702L64.9062 224.774 64.9062 219.809 64.9062 214.82 66.093 214.82 67.2797 214.82 67.3766 218.235C67.4492 221.48 67.4734 221.674 68.0305 222.11 68.3937 222.401 68.975 222.57 69.6289 222.57 70.5977 222.57 70.6703 222.619 70.8156 223.321 71.1062 224.847 71.0336 224.992 70.0648 224.968 69.5563 224.968 68.9266 224.871 68.6602 224.75Z" fill="#000000" fill-rule="nonzero" fill-opacity="1" transform="matrix(1 0 0 -1 0 248)"/><path d="M75.0297 224.774C73.068 224.145 71.9297 222.377 71.9297 219.955 71.9297 218.09 72.3172 217.097 73.4555 216.104 74.8844 214.869 77.5242 214.699 78.9773 215.765L79.6797 216.298 79.6797 215.668C79.6797 214.627 79.0258 213.416 78.2508 213.028 77.2578 212.495 75.3687 212.544 74.2789 213.101L73.3828 213.561 72.8742 212.713C72.5836 212.253 72.3898 211.866 72.4383 211.817 73.4555 210.921 76.8219 210.437 78.6141 210.921 79.8492 211.26 81.2297 212.689 81.593 214.021 81.7383 214.53 81.8594 217.145 81.8594 219.858L81.8594 224.774 80.7211 224.702C79.7766 224.653 79.5828 224.556 79.6312 224.217 79.7281 223.66 79.5586 223.66 78.7109 224.29 77.9359 224.871 76.0953 225.113 75.0297 224.774ZM78.5414 222.304C79.8492 221.287 79.8492 218.768 78.5414 217.727 77.8633 217.194 76.3375 217.073 75.5383 217.484 74.0367 218.308 73.9883 221.674 75.4898 222.546 76.2406 222.982 77.8633 222.861 78.5414 222.304Z" fill="#000000" fill-rule="nonzero" fill-opacity="1" transform="matrix(1 0 0 -1 0 248)"/><path d="M181.592 224.629C180.672 224.29 179.485 223.515 179.485 223.297 179.485 223.224 179.752 222.885 180.066 222.498L180.648 221.844 181.447 222.328C183.045 223.297 185.152 222.764 185.322 221.359 185.395 220.754 185.37 220.754 183.191 220.633 180.745 220.487 179.97 220.148 179.316 218.889 178.855 217.993 179.001 216.685 179.63 215.983 180.769 214.699 183.142 214.384 184.668 215.28 185.491 215.765 185.516 215.765 185.516 215.305 185.516 214.893 185.685 214.82 186.727 214.82L187.938 214.82 187.938 217.799C187.913 222.11 187.526 223.345 185.806 224.338 184.789 224.944 182.73 225.089 181.592 224.629ZM185.516 218.841C185.516 218.138 185.055 217.266 184.523 216.976 183.723 216.564 182.077 216.661 181.713 217.145 181.277 217.751 181.302 217.896 182.004 218.574 182.488 219.083 182.827 219.18 184.062 219.18 185.152 219.18 185.516 219.107 185.516 218.841Z" fill="#000000" fill-rule="nonzero" fill-opacity="1" transform="matrix(1 0 0 -1 0 248)"/><path d="M208.112 224.726C206.973 224.387 205.423 222.522 205.23 221.214 204.648 217.291 206.562 214.82 210.122 214.82 211.623 214.82 213.222 215.402 213.827 216.128 214.118 216.491 214.094 216.612 213.512 217.218L212.834 217.92 211.962 217.315C211.236 216.83 210.848 216.734 209.904 216.83 208.62 216.952 207.942 217.436 207.579 218.477L207.337 219.18 210.848 219.18 214.336 219.18 214.336 220.221C214.336 221.795 213.924 222.885 213.077 223.709 211.793 224.895 210.001 225.283 208.112 224.726ZM211.115 222.691C211.381 222.498 211.745 222.013 211.866 221.602L212.132 220.875 209.831 220.875C207.24 220.875 206.998 221.093 208.257 222.352 209.056 223.152 210.243 223.297 211.115 222.691Z" fill="#000000" fill-rule="nonzero" fill-opacity="1" transform="matrix(1 0 0 -1 0 248)"/><path d="M219.737 224.605C219.301 224.387 218.938 224.12 218.938 223.999 218.938 223.878 218.841 223.781 218.695 223.781 218.574 223.781 218.453 223.999 218.453 224.266 218.453 224.677 218.284 224.75 217.363 224.75L216.273 224.75 216.273 219.906 216.273 215.062 217.484 215.062 218.695 215.062 218.695 218.211C218.695 221.262 218.72 221.408 219.301 221.965 219.737 222.425 220.148 222.57 220.948 222.57L222.013 222.57 222.159 223.587C222.231 224.145 222.231 224.702 222.183 224.798 221.965 225.113 220.56 224.992 219.737 224.605Z" fill="#000000" fill-rule="nonzero" fill-opacity="1" transform="matrix(1 0 0 -1 0 248)"/><path d="M83.6273 224.58C84.2328 223.587 87.6719 215.402 87.6719 214.941 87.6719 214.021 86.4852 212.859 85.4922 212.762 84.693 212.713 84.6445 212.665 84.5719 211.696L84.4992 210.703 85.3711 210.703C86.4609 210.703 87.6477 211.188 88.3258 211.938 88.5922 212.253 89.9 215.135 91.1836 218.332 92.4672 221.529 93.5812 224.29 93.6539 224.459 93.7508 224.702 93.4602 224.75 92.3703 224.702L90.9656 224.629 89.9727 221.432C89.4398 219.664 88.9555 218.211 88.8828 218.211 88.8102 218.211 88.4711 219.083 88.1078 220.124 87.7445 221.19 87.1633 222.667 86.8484 223.394L86.243 224.75 84.8867 224.75C84.1359 224.75 83.5789 224.677 83.6273 224.58Z" fill="#000000" fill-rule="nonzero" fill-opacity="1" transform="matrix(1 0 0 -1 0 248)"/><path d="M87.4055 156.284C87.357 156.162 85.8555 154.855 84.1117 153.377L80.8906 150.665 82.0047 150.253C82.5859 150.035 83.143 149.769 83.1914 149.672 83.2641 149.575 82.5859 147.928 81.7141 146.015 80.818 144.102 80.0187 142.285 79.8977 141.995L79.7039 141.462 77.8633 142.309C70.2344 145.845 61.1523 146.378 52.4336 143.811 49.9875 143.109 44.9258 140.784 43.3758 139.694L42.5281 139.088 39.6703 142.503C38.0961 144.392 36.8125 145.966 36.8125 146.039 36.8125 146.112 37.2727 146.475 37.8055 146.863L38.7742 147.541 34.7297 149.091C32.4773 149.938 30.6367 150.592 30.6125 150.568 30.5883 150.544 31.0969 148.8 31.7023 146.717L32.8406 142.891 33.6883 143.617C34.1242 144.005 34.5844 144.32 34.6812 144.344 34.7781 144.344 36.1344 142.866 37.6844 141.074L40.4937 137.805 38.2172 135.552C35.6984 133.106 34.1242 131.145 32.4531 128.335 31.5086 126.785 31.2664 126.543 30.8547 126.688 27.8516 127.923 21.6273 130.612 21.482 130.757 21.3852 130.854 21.5062 131.435 21.7727 132.041L22.2328 133.106 20.8523 132.937C20.1016 132.84 18.2125 132.646 16.6625 132.477L13.8531 132.186 16.5414 129.062C18.043 127.342 19.3023 126.083 19.3508 126.252 19.3992 126.422 19.6414 127.003 19.8836 127.56L20.3195 128.602 22.4508 127.609C23.6133 127.076 25.8656 126.083 27.4398 125.405 29.6922 124.436 30.2734 124.097 30.1766 123.782 30.1039 123.564 29.668 122.305 29.2078 120.973 28.3844 118.599 27.6578 114.918 27.5367 112.496L27.4883 111.285 22.2812 111.285 17.0742 111.285 17.0016 112.69C16.9531 113.465 16.8562 114.07 16.7352 114.022 16.0086 113.707 9.44531 110.05 9.44531 109.953 9.44531 109.88 11.1164 109.033 13.1508 108.088L16.832 106.369 16.9047 107.628 16.9773 108.863 22.0875 108.791C26.132 108.718 27.2461 108.766 27.4156 109.033 27.6094 109.275 27.6336 109.275 27.5367 108.96 27.343 108.355 27.8273 104.189 28.3359 102.009 28.7234 100.362 29.7891 97.3109 30.6125 95.3734 30.7578 95.0586 30.2008 94.6711 27.682 93.3633 25.9867 92.4672 23.8312 91.3047 22.9352 90.7961 22.0148 90.2633 21.1914 89.8516 21.0945 89.8516 20.9734 89.8516 20.707 90.2875 20.4648 90.8203 20.0773 91.6922 19.6172 92.1039 19.6172 91.5953 19.6172 91.4258 17.1469 87.357 15.9117 85.468L15.4758 84.8141 19.6656 84.9352C21.9664 85.0078 23.8797 85.1047 23.9281 85.1289 23.9766 85.1773 23.6617 85.7344 23.2742 86.4125 22.8625 87.0664 22.5234 87.6719 22.5234 87.7445 22.5234 88.0352 32.0656 92.8305 32.1383 92.5883 32.3078 92.0797 34.4875 88.9555 35.7469 87.4055 37.0547 85.807 38.7984 84.0633 40.5422 82.6586L41.4625 81.9078 40.9781 81.2297C40.7117 80.8422 39.4281 78.7836 38.1445 76.6523 36.8367 74.5211 35.7469 72.7289 35.6984 72.6805 35.65 72.632 35.1898 72.9469 34.657 73.3586L33.7125 74.1094 33.4219 72.0023C33.2766 70.8156 33.0102 68.9266 32.8406 67.7398L32.5258 65.6328 33.0344 65.9477C39.4766 70.1133 39.7672 70.307 39.307 70.5492 37.757 71.3484 37.7328 71.4211 38.2172 72.1234 39.7914 74.3758 43.1336 80.2609 43.0125 80.5516 42.9398 80.7453 43.5453 80.4547 44.3445 79.8977 48.6555 76.9672 55.9453 74.5938 60.5711 74.5938L62 74.5938 62 69.7258 62 64.8578 60.7891 64.9547C60.1109 64.9789 59.5781 65.0031 59.5781 64.9547 59.5781 64.9062 63.2109 58.1008 63.3078 57.9555 63.332 57.9312 64.2039 59.6023 65.2211 61.6609L67.1102 65.4391 65.7539 65.2695 64.4219 65.1 64.4219 69.8469 64.4219 74.5938 65.7055 74.5938C69.8227 74.5938 76.1922 76.5797 80.4547 79.1711L82.8039 80.6 85.7344 76.2891C87.3328 73.8914 88.6406 71.9055 88.6406 71.857 88.6406 71.8086 88.2047 71.5664 87.6719 71.3242 87.1391 71.082 86.7031 70.8156 86.7031 70.743 86.7273 70.6219 93.2664 66.3594 93.775 66.1656 93.8719 66.1172 93.9203 66.2141 93.8477 66.4078 93.7508 66.6984 93.0727 72.5594 92.9516 74.182 92.8789 74.9812 92.8305 74.9812 91.7891 74.1094 91.3289 73.6977 90.8687 73.3828 90.7719 73.3828 90.675 73.3828 89.2703 75.3445 87.6477 77.7664L84.7172 82.15 85.2984 82.5375C87.357 83.9422 91.9344 89.0766 93.7266 91.9828 94.1383 92.6609 94.55 93.2422 94.5984 93.2422 94.6469 93.2422 96.7781 92.2008 99.2969 90.9414L103.898 88.6406 103.269 87.3812 102.639 86.1461 105.4 86.2914C106.902 86.3883 108.815 86.4609 109.638 86.4609L111.14 86.4609 108.718 89.682C107.362 91.4258 106.199 92.9031 106.102 92.9516 106.005 92.9758 105.715 92.5641 105.473 92.0312 105.23 91.4984 104.94 91.0625 104.843 91.0625 104.722 91.0625 102.615 92.0797 100.145 93.2906 96.7055 95.0102 95.6883 95.6156 95.8094 95.9062 97.3836 99.6359 98.425 103.898 98.6914 107.846L98.8609 110.195 104.286 110.195 109.711 110.195 109.711 108.984C109.711 108.33 109.759 107.773 109.784 107.773 109.832 107.773 111.552 108.645 113.61 109.687L117.34 111.624 113.586 113.416 109.832 115.184 109.759 113.901 109.687 112.617 104.141 112.617 98.5703 112.617 98.5703 113.441C98.5703 116.202 96.9477 121.917 95.1797 125.453 94.3562 127.1 94.2352 127.512 94.5016 127.754 94.7922 128.02 102.639 133.373 103.341 133.784 103.559 133.905 103.826 133.591 104.189 132.864 104.48 132.234 104.77 131.75 104.843 131.75 104.988 131.75 105.86 133.058 108.427 137.03 109.711 139.016 109.711 139.016 109.057 138.919 108.67 138.846 106.708 138.725 104.698 138.628 102.663 138.555 100.992 138.434 100.992 138.41 100.992 138.386 101.283 137.829 101.622 137.223 101.985 136.57 102.179 135.988 102.058 135.891 101.573 135.455 93 129.812 92.8305 129.812 92.7094 129.837 92.1523 130.515 91.5469 131.314 89.9 133.591 86.3641 137.03 83.8937 138.749L81.6898 140.275 83.6031 144.441C84.6445 146.717 85.5164 148.679 85.5648 148.8 85.6133 148.921 86.2672 148.727 87.0422 148.388L88.4227 147.759 88.3016 148.776C88.2289 149.333 88.0594 151.246 87.9141 153.038 87.6961 156.138 87.5992 156.744 87.4055 156.284ZM65.4391 143.666C65.657 143.569 64.4219 143.496 62.6539 143.496 60.8859 143.496 59.893 143.545 60.4258 143.641 61.7578 143.835 64.9305 143.859 65.4391 143.666ZM59.0453 143.205C58.8031 143.157 58.3672 143.157 58.0766 143.205 57.7617 143.254 57.9555 143.302 58.4883 143.302 59.0211 143.327 59.2633 143.278 59.0453 143.205ZM64.6156 142.988C64.9789 142.915 65.6086 142.697 65.9961 142.527 66.4078 142.358 67.0133 142.091 67.4008 141.946 67.7641 141.801 68.0547 141.534 68.0547 141.316 68.0547 141.123 68.1758 140.953 68.3211 140.953 68.4664 140.953 68.5391 140.808 68.4664 140.662 68.418 140.493 68.5633 140.081 68.8055 139.766 69.4352 138.967 69.3625 137.829 68.6602 137.03 68.3453 136.642 67.9578 136.352 67.8125 136.352 67.6914 136.352 67.5703 136.255 67.5703 136.109 67.5703 135.988 67.3766 135.867 67.1344 135.867 66.6984 135.867 66.1414 135.31 64.9062 133.542 64.0828 132.331 63.2836 132.21 62.4117 133.179 61.8062 133.833 61.3703 135.746 61.782 135.988 62.0242 136.158 61.9273 138.168 61.6125 138.895 61.3219 139.621 60.0141 140.784 59.8203 140.493 59.7477 140.348 59.2875 140.154 58.8516 140.057 58.0766 139.912 58.0281 139.936 58.343 140.299 58.5125 140.517 58.8516 140.711 59.0938 140.711 59.5297 140.711 59.9172 141.316 59.6992 141.68 59.6508 141.777 59.893 141.922 60.2562 141.995 60.6195 142.067 61.1281 142.309 61.3945 142.503 61.8547 142.866 61.8547 142.866 61.2734 142.745 60.9344 142.648 60.3289 142.455 59.893 142.261 59.4812 142.067 58.9484 141.922 58.7305 141.922 58.4641 141.922 58.3672 141.801 58.4641 141.559 58.5367 141.365 58.2945 140.856 57.8828 140.42 57.4711 139.984 57.1562 139.5 57.1562 139.306 57.1562 138.919 57.7859 137.877 58.5367 137.054 59.2391 136.279 59.0938 135.238 58.2461 134.85 57.9312 134.705 57.568 134.341 57.3984 134.051 56.9141 133.155 55.7031 133.009 55.7031 133.833 55.7031 134.269 55.4367 134.317 54.1289 134.075 53.6203 133.978 53.4992 134.027 53.6203 134.317 53.693 134.535 53.7656 134.802 53.7656 134.947 53.7656 135.116 53.8867 135.092 54.1047 134.923 54.6133 134.511 55.2914 134.874 55.1219 135.48 55.0492 135.746 54.9766 136.23 54.9766 136.545 54.9766 136.836 54.8555 137.078 54.7102 137.078 54.5648 137.078 54.5164 136.909 54.5891 136.691 54.7344 136.303 54.5891 136.279 53.2812 136.618 53.0391 136.691 52.8937 136.497 52.8453 136.037 52.7969 135.673 52.5305 135.262 52.2398 135.092 51.7312 134.802 51.5859 134.753 50.932 134.68 50.5445 134.656 47.7109 132.283 47.7109 131.992 47.7109 131.847 47.8805 131.75 48.0742 131.75 48.268 131.75 48.4375 131.653 48.4375 131.532 48.4375 131.435 48.8008 130.951 49.2609 130.466 50.1812 129.498 50.2055 128.892 49.3336 127.948 49.0672 127.633 48.8977 127.342 48.9461 127.294 49.1398 127.1 50.6172 128.384 50.6172 128.723 50.6172 128.892 50.7867 129.086 50.9805 129.183 51.1742 129.255 51.3438 129.57 51.3438 129.909 51.3438 130.248 51.4406 130.563 51.5617 130.636 51.6828 130.709 51.9008 131.314 52.0703 131.992 52.3125 133.034 52.4336 133.203 52.9422 133.203 53.257 133.203 53.5234 133.3 53.5234 133.421 53.5234 133.76 55.3156 133.445 55.6305 133.058 55.8727 132.719 56.0422 132.719 56.6961 132.937 57.6891 133.276 57.8102 133.276 57.4469 132.912 56.9867 132.452 57.1078 131.798 57.7859 131.363 58.125 131.12 58.343 130.805 58.2703 130.612 58.1977 130.418 58.2945 130.224 58.4883 130.152 59.3602 129.812 58.5852 127.875 57.5922 127.875 57.35 127.875 56.9383 127.657 56.6719 127.391 56.4055 127.124 56.0422 126.906 55.8727 126.906 55.4609 126.906 54.8555 125.816 55.0734 125.477 55.1703 125.332 55.4125 125.211 55.582 125.211 55.7758 125.211 56.0422 124.993 56.1875 124.702 56.7203 123.709 55.0734 123.225 53.4266 123.903 53.0633 124.048 53.0148 124 53.1602 123.564 53.257 123.201 53.2086 123.031 52.9906 123.031 52.7969 123.031 52.482 122.813 52.2398 122.547 52.0219 122.28 51.6102 122.062 51.368 122.062 51.0773 122.062 50.4719 121.53 49.8422 120.706 48.4859 118.938 47.7109 118.163 46.718 117.582 45.9187 117.098 45.8945 117.049 45.8219 115.281 45.7734 114.288 45.6523 113.368 45.5312 113.247 45.168 112.884 44.6352 113.513 44.3203 114.748 44.1508 115.378 43.9328 115.959 43.8602 116.056 43.7875 116.129 42.843 116.129 41.8016 116.056 39.9367 115.887 39.8641 115.862 39.6703 115.16 39.5492 114.773 39.3797 114.264 39.307 114.07 39.0891 113.465 39.0648 110.486 39.2586 110.147 39.4039 109.929 39.5734 110.002 39.8883 110.413 40.1547 110.728 40.7602 111.043 41.3172 111.14L42.2859 111.334 42.0437 110.195C41.7289 108.573 41.9227 108.185 43.0125 108.403 43.8602 108.548 43.9086 108.548 43.7391 107.991 43.0609 105.57 43.3758 104.698 44.9984 104.383 45.9672 104.213 46.0156 104.237 46.4758 105.012 46.7664 105.497 47.1539 105.836 47.4445 105.836 47.7109 105.836 48.0016 105.957 48.0742 106.078 48.3406 106.49 48.9945 106.345 49.6727 105.691 50.0602 105.303 50.8836 104.94 51.8523 104.722 52.7242 104.528 53.6687 104.116 54.0078 103.802 54.7344 103.123 57.2531 101.719 57.7133 101.719 58.2461 101.719 58.8273 100.92 59.0453 99.9023 59.2148 99.1031 59.3359 98.9336 59.9898 98.7883 60.4016 98.7156 61.3219 98.3039 62.0484 97.9164 62.7508 97.5047 63.8164 97.1172 64.3977 97.0445 66.6016 96.7539 67.3766 95.2039 66.0445 93.775 65.7297 93.4117 65.3906 92.6852 65.318 92.1523 65.2211 91.6195 65.0273 90.5297 64.8578 89.7305L64.543 88.3016 63.0414 88.0352C62.1937 87.8656 61.4914 87.7203 61.443 87.6477 61.3945 87.5992 61.225 87.1148 61.0797 86.582 60.8859 85.8555 60.4258 85.2742 59.2391 84.2812 58.3672 83.5547 57.5195 82.6344 57.3742 82.2711 57.2289 81.9078 56.8414 81.3992 56.5266 81.157 55.7031 80.5031 55.5578 79.607 56.2117 79.3164 56.9141 79.0016 57.35 78.3234 57.0352 78.0086 56.7203 77.6937 54.7344 77.9602 54.7344 78.3234 54.7344 78.493 54.2016 79.5344 53.5719 80.6484 52.4336 82.6828 51.8039 84.7414 51.1016 88.7375 50.8352 90.3602 50.3508 90.9898 48.8492 91.7648 48.0742 92.1523 47.6625 92.6125 47.1055 93.6539 46.718 94.4289 45.9672 95.6398 45.4586 96.3664 44.8047 97.3352 44.5867 97.8922 44.6594 98.3281 44.9984 100.145 45.3617 101.283 45.6766 101.404 46.0398 101.525 46.1367 102.639 45.8219 103.075 45.5555 103.462 43.8359 104.455 43.6906 104.31 43.618 104.237 42.8914 104.964 42.0922 105.909 41.293 106.853 40.2516 107.87 39.743 108.161 38.193 109.033 37.3937 109.711 36.4492 110.97 35.5531 112.133 35.5289 112.205 35.7953 113.198 36.0617 114.216 36.0133 114.918 35.6016 115.887 35.4805 116.153 35.3352 116.783 35.2625 117.316 35.1414 118.284 34.9719 118.599 34.7297 118.381 34.5844 118.212 34.9234 116.056 35.3109 114.506 35.5773 113.441 35.432 113.344 34.8023 114.216 34.4148 114.748 34.3422 115.33 34.3422 118.502 34.318 122.813 34.6812 124.315 36.2555 126.446 36.7883 127.173 37.4664 128.238 37.7328 128.844 38.0234 129.449 38.6531 130.539 39.1133 131.266 39.8156 132.355 39.9125 132.646 39.6219 132.84 39.3312 133.058 39.3312 133.203 39.6461 133.809 39.8641 134.293 39.2344 133.76 37.8781 132.355 35.8922 130.321 35.8195 130.273 36.8852 131.653 38.8953 134.317 43.4727 137.974 47.0086 139.742 49.6969 141.098 54.5648 142.794 56.3086 142.963 56.9867 143.036 57.3016 143.036 57.0352 142.963 56.7687 142.891 56.4297 142.745 56.2844 142.624 56.1391 142.503 55.2188 142.237 54.25 142.043 53.1602 141.825 52.2883 141.486 52.0219 141.195 51.5375 140.687 51.7797 140.566 52.5062 140.929 53.0633 141.22 55.5336 141.922 55.6305 141.825 55.6789 141.801 55.3156 141.559 54.8555 141.292 53.9352 140.808 53.7656 140.469 54.4437 140.469 54.7828 140.469 54.807 140.42 54.4922 140.227 54.1773 140.033 54.2016 139.984 54.5648 139.984 54.8312 139.984 54.9766 140.178 54.9766 140.541 54.9766 141.268 56.0664 141.849 56.575 141.413 56.8414 141.195 56.9141 141.22 56.9141 141.51 56.9141 142.164 59.457 142.963 61.4672 142.963 62.4602 142.939 63.2109 143.036 63.2109 143.181 63.2109 143.327 63.3805 143.351 63.5984 143.278 63.8164 143.205 64.2766 143.06 64.6156 142.988ZM68.1273 143.205C67.9578 143.157 67.6672 143.157 67.5219 143.205 67.3523 143.278 67.4734 143.327 67.8125 143.327 68.1516 143.327 68.2727 143.278 68.1273 143.205ZM69.8227 142.963C69.6531 142.915 69.3625 142.915 69.2172 142.963 69.0477 143.036 69.1687 143.084 69.5078 143.084 69.8469 143.084 69.968 143.036 69.8227 142.963ZM70.8883 142.745C70.8156 142.673 70.5977 142.648 70.4281 142.721 70.2344 142.794 70.307 142.866 70.5734 142.866 70.8398 142.891 70.9852 142.818 70.8883 142.745ZM74.5938 141.631C74.8359 141.486 74.7633 141.462 74.3516 141.583 74.0125 141.655 73.5766 141.849 73.3828 141.97 73.1406 142.116 73.2133 142.14 73.625 142.019 73.9641 141.946 74.4 141.752 74.5938 141.631ZM59.3359 141.341C59.3359 141.268 59.2391 141.147 59.0938 141.074 58.9727 141.002 58.8516 141.05 58.8516 141.171 58.8516 141.316 58.9727 141.438 59.0938 141.438 59.2391 141.438 59.3359 141.389 59.3359 141.341ZM74.3031 140.905C74.4727 140.735 74.5938 140.517 74.5938 140.42 74.5938 140.057 74.2305 140.227 73.9156 140.711 73.6008 141.244 73.843 141.365 74.3031 140.905ZM76.5312 140.953C76.725 140.832 76.7977 140.711 76.6523 140.711 76.5312 140.711 76.2406 140.832 76.0469 140.953 75.8531 141.074 75.8047 141.195 75.9258 141.195 76.0711 141.195 76.3375 141.074 76.5312 140.953ZM73.5281 140.614C73.7703 140.42 73.9156 140.202 73.8187 140.105 73.6008 139.863 72.3414 140.323 72.2203 140.662 72.0992 141.074 72.9469 141.026 73.5281 140.614ZM81.5445 137.441C82.8766 136.884 85.5406 134.753 88.1805 132.186 93.218 127.27 96.2453 120.319 96.9961 112.06 97.1172 110.704 97.0687 110.413 96.7539 110.292 96.5359 110.195 96.318 110.195 96.2453 110.268 96.1484 110.341 95.7852 111.721 95.3977 113.344 94.5984 116.637 94.332 117.219 93.557 117.219 93.2422 117.219 93 117.17 93 117.098 93 117.025 93.3875 116.202 93.8477 115.281 94.3078 114.361 94.6953 113.392 94.6953 113.15 94.6953 112.423 95.6641 109.638 96.1 109.154 96.318 108.912 96.6328 108.791 96.8266 108.863 97.093 108.96 97.1172 108.718 96.9961 107.58 96.7297 105.182 96.1727 102.397 95.5672 100.532 95.0828 99.0305 94.9859 98.8609 94.8891 99.418 94.8164 99.7812 94.7922 100.75 94.8406 101.549 94.9133 102.857 94.8891 102.978 94.5742 102.688 94.3805 102.494 94.1625 101.791 94.0898 101.137 93.993 100.459 93.8719 99.8297 93.7992 99.7086 93.6055 99.3937 93.5328 96.875 93.7023 96.875 93.7992 96.875 93.993 96.9961 94.1625 97.1656 94.6469 97.65 94.5016 97.1656 93.5086 95.1797 91.5227 91.2078 88.2047 87.2602 85.6617 85.8312 85.1047 85.5164 84.3055 85.6617 84.257 86.0734 84.1844 86.7758 84.3539 87.5992 84.6687 88.0836 84.8625 88.3742 85.0078 89.0281 85.0078 89.5367 85.0078 90.0453 85.1773 90.6992 85.3711 90.9656 85.6133 91.3289 85.6617 91.6922 85.5164 92.1766 85.3469 92.782 85.468 93.0969 86.4125 94.4289 87.4297 95.882 87.4781 96.0273 87.4539 97.5047 87.4297 98.3766 87.2844 99.2727 87.1391 99.5391 86.8969 99.9023 86.8969 100.193 87.1391 100.823 87.7203 102.397 87.4297 103.123 86.2672 102.954 85.9281 102.93 85.5648 103.075 85.3711 103.341 85.1773 103.584 85.0078 103.68 85.0078 103.535 85.0078 103.414 84.9109 103.438 84.8141 103.584 84.6687 103.802 84.4023 103.729 83.7484 103.293 82.7555 102.615 80.8422 102.106 80.1398 102.324 79.6797 102.47 77.3547 105.206 76.7977 106.296 76.5555 106.732 76.5555 107.095 76.7492 107.895 77.0883 109.275 77.0883 110.268 76.725 111.043 76.4828 111.552 76.507 111.794 76.8461 112.375 77.0641 112.738 77.2578 113.223 77.2578 113.416 77.2578 113.61 77.7422 114.361 78.3477 115.087 79.3648 116.347 79.4375 116.541 79.5828 118.284 79.7523 120.173 79.8734 120.391 80.4062 119.762 80.6484 119.447 80.7695 119.447 80.9148 119.689 81.157 120.052 80.7211 120.609 80.1883 120.609 79.9703 120.609 79.5586 120.803 79.268 121.045 78.8078 121.384 78.6867 121.796 78.5414 123.37 78.3961 125.187 78.4203 125.284 78.8562 125.114 79.825 124.702 80.1883 124.678 80.5273 124.969 81.0359 125.38 81.0117 125.477 80.0187 126.616 79.4133 127.318 79.268 127.633 79.5344 127.633 79.7523 127.633 79.8492 127.778 79.7766 127.948 79.6797 128.19 79.8492 128.238 80.4305 128.166 81.0602 128.069 81.1812 128.117 81.0602 128.408 80.9875 128.626 81.157 128.989 81.4961 129.28 81.7867 129.546 82.0773 129.885 82.1258 130.006 82.1742 130.152 82.6586 130.321 83.1914 130.37 83.9906 130.442 84.1844 130.563 84.2328 131.048 84.2812 131.363 84.4508 131.774 84.5719 131.944 84.8625 132.283 84.4266 132.961 83.918 132.961 83.7484 132.961 83.5547 133.106 83.482 133.276 83.4094 133.47 82.9977 133.784 82.5375 134.002L81.7383 134.414 82.5133 134.414C83.1672 134.414 83.2641 134.487 83.143 134.85 82.925 135.431 82.5859 135.625 81.6656 135.625L80.8664 135.625 81.2539 134.898C81.4719 134.511 81.5687 134.172 81.4719 134.172 81.375 134.172 81.4477 134.002 81.6172 133.809 81.7867 133.615 81.8594 133.445 81.7625 133.445 81.6656 133.445 81.7625 133.203 81.9562 132.912 82.3438 132.283 82.4406 130.781 82.0773 130.781 81.9562 130.781 81.8594 130.878 81.8594 131.023 81.8594 131.387 80.8664 132.21 79.6312 132.888 79.0016 133.227 78.4445 133.663 78.3477 133.881 78.1297 134.438 78.7352 137.175 79.1469 137.514 79.6555 137.902 80.4789 137.877 81.5445 137.441ZM72.7773 135.577C73.4555 135.262 73.5766 134.705 73.0195 134.487 72.4867 134.293 70.525 134.874 70.3797 135.286 70.307 135.455 70.3797 135.552 70.5492 135.504 70.7188 135.455 71.1789 135.359 71.5664 135.262 72.2687 135.116 72.2687 135.116 71.8086 135.48 71.3969 135.795 71.3727 135.843 71.7359 135.867 71.9539 135.867 72.4383 135.746 72.7773 135.577ZM82.5859 133.445C82.5859 133.324 82.5375 133.203 82.4891 133.203 82.4164 133.203 82.2953 133.324 82.2227 133.445 82.15 133.591 82.1984 133.688 82.3195 133.688 82.4648 133.688 82.5859 133.591 82.5859 133.445ZM58.125 132.477C58.125 132.355 58.0766 132.234 58.0281 132.234 57.9555 132.234 57.8344 132.355 57.7617 132.477 57.6891 132.622 57.7375 132.719 57.8586 132.719 58.0039 132.719 58.125 132.622 58.125 132.477ZM78.4688 131.774C78.4688 131.629 78.3719 131.459 78.2266 131.387 77.7664 131.096 77.9844 130.515 78.6867 130.273 79.268 130.079 79.3648 129.909 79.3406 129.28 79.3164 128.577 78.7109 127.948 78.7109 128.602 78.7109 128.771 78.4203 128.82 77.8875 128.723 77.2094 128.577 77.0156 128.65 76.6766 129.11 76.2406 129.74 76.1437 130.781 76.5312 130.781 76.6766 130.781 76.7734 130.612 76.7734 130.418 76.7734 130.006 77.1609 129.934 77.3789 130.297 77.4516 130.442 77.4031 130.539 77.282 130.539 76.9187 130.539 76.943 131.338 77.3062 131.702 77.6453 132.041 78.4688 132.089 78.4688 131.774ZM35.8438 129.958C35.8438 129.909 35.65 129.716 35.432 129.546 35.0445 129.231 35.0203 129.255 35.3352 129.643 35.65 130.03 35.8438 130.152 35.8438 129.958ZM50.8594 129.667C50.8594 129.449 50.7383 129.328 50.5687 129.377 50.1328 129.522 50.0602 130.055 50.4719 130.055 50.6898 130.055 50.8594 129.885 50.8594 129.667ZM59.2391 126.785C59.6992 126.349 60.0625 125.865 60.0625 125.744 60.0625 125.453 58.1977 125.526 57.907 125.816 57.5922 126.131 57.35 127.439 57.6406 127.27 57.7617 127.197 57.907 127.245 58.0039 127.391 58.2461 127.754 58.3672 127.705 59.2391 126.785ZM33.2523 125.816C33.1797 125.598 33.0586 125.477 33.0102 125.55 32.9375 125.623 32.9617 125.768 33.0586 125.913 33.2766 126.301 33.4219 126.228 33.2523 125.816ZM29.4742 112.569C29.4016 112.375 29.3289 112.448 29.3289 112.714 29.3047 112.98 29.3773 113.126 29.45 113.029 29.5227 112.956 29.5469 112.738 29.4742 112.569ZM45.9672 111.164C47.3477 110.728 48.3406 110.244 48.6797 109.808 48.9219 109.541 49.2367 109.469 49.7937 109.59 50.2297 109.662 50.6414 109.614 50.7383 109.469 50.8109 109.348 51.1984 109.227 51.5859 109.227 51.9734 109.227 52.3609 109.105 52.4336 108.984 52.5305 108.815 52.3852 108.766 51.9734 108.887 51.5133 109.009 51.3438 108.936 51.3438 108.67 51.3438 108.452 51.1742 108.33 50.932 108.379 50.6898 108.427 50.0844 108.548 49.6 108.621 49.0914 108.694 48.268 109.105 47.7352 109.566 47.2023 110.026 46.3547 110.462 45.8703 110.559 44.6836 110.777 43.8359 111.358 43.8359 111.939 43.8359 112.399 43.8359 112.399 44.4656 111.915 44.8047 111.648 45.4828 111.309 45.9672 111.164ZM56.2844 77.3547C56.8898 77.1125 56.7445 76.725 56.1391 76.8945 55.3883 77.1367 55.0008 77.5 55.5094 77.5 55.7273 77.5 56.0664 77.4273 56.2844 77.3547Z" fill="#000000" fill-rule="nonzero" fill-opacity="1" transform="matrix(1 0 0 -1 0 248)"/><path d="M60.3047 141.171C60.3047 141.05 60.4258 141.002 60.5469 141.074 60.6922 141.147 60.7891 141.268 60.7891 141.341 60.7891 141.389 60.6922 141.438 60.5469 141.438 60.4258 141.438 60.3047 141.316 60.3047 141.171Z" fill="#000000" fill-rule="nonzero" fill-opacity="1" transform="matrix(1 0 0 -1 0 248)"/><path d="M57.1562 140.832C56.9141 140.541 56.9141 140.469 57.2289 140.469 57.6891 140.469 57.9797 140.856 57.6648 141.05 57.5437 141.123 57.3258 141.026 57.1562 140.832Z" fill="#000000" fill-rule="nonzero" fill-opacity="1" transform="matrix(1 0 0 -1 0 248)"/><path d="M55.4609 140.711C55.4609 140.59 55.582 140.469 55.7273 140.469 55.8484 140.469 55.8969 140.59 55.8242 140.711 55.7516 140.856 55.6305 140.953 55.5578 140.953 55.5094 140.953 55.4609 140.856 55.4609 140.711Z" fill="#000000" fill-rule="nonzero" fill-opacity="1" transform="matrix(1 0 0 -1 0 248)"/><path d="M52.4578 139.839C52.3852 139.645 52.1914 139.548 52.0461 139.621 51.7797 139.791 50.8594 139.113 50.8594 138.749 50.8594 138.362 51.9492 138.652 52.2883 139.088 52.4578 139.355 52.7727 139.476 52.9664 139.379 53.2812 139.282 53.2812 139.306 53.0633 139.597 52.8453 139.863 52.8453 139.96 53.0875 140.057 53.3055 140.154 53.2812 140.202 53.0148 140.202 52.7969 140.227 52.5305 140.057 52.4578 139.839Z" fill="#000000" fill-rule="nonzero" fill-opacity="1" transform="matrix(1 0 0 -1 0 248)"/><path d="M46.7906 137.635C46.6211 137.587 46.3789 137.32 46.2578 137.054 46.0156 136.642 46.0883 136.594 46.7422 136.594 47.3477 136.594 47.4688 136.691 47.4688 137.199 47.4688 137.805 47.3719 137.877 46.7906 137.635Z" fill="#000000" fill-rule="nonzero" fill-opacity="1" transform="matrix(1 0 0 -1 0 248)"/><path d="M52.5547 137.587C52.5547 137.441 52.4094 137.32 52.2156 137.32 52.0219 137.32 51.8039 137.223 51.707 137.102 51.6344 136.957 51.9977 136.909 52.5789 136.957 54.0078 137.078 54.1773 137.345 53.1117 137.659 52.7727 137.78 52.5547 137.732 52.5547 137.587Z" fill="#000000" fill-rule="nonzero" fill-opacity="1" transform="matrix(1 0 0 -1 0 248)"/><path d="M54.0805 127.705C53.9109 127.657 53.7656 127.487 53.7656 127.342 53.7656 127.197 53.9352 127.173 54.1531 127.245 54.3711 127.342 54.6859 127.294 54.8555 127.148 55.0734 126.955 55.2188 126.955 55.3398 127.148 55.6789 127.705 54.9039 128.045 54.0805 127.705Z" fill="#000000" fill-rule="nonzero" fill-opacity="1" transform="matrix(1 0 0 -1 0 248)"/><path d="M45.8461 126.446C45.0953 125.816 45.1437 125.695 46.1367 125.695 47.057 125.695 47.2266 125.405 46.5484 124.92 45.943 124.484 45.0711 122.91 45.2648 122.595 45.3617 122.45 45.5555 122.644 45.7492 123.055 46.1367 123.927 46.8391 124.412 47.9773 124.63L48.8008 124.799 48.0258 123.952C47.2508 123.152 47.0086 122.547 47.4203 122.547 47.5414 122.547 47.832 122.765 48.0742 123.031 48.3164 123.298 48.6555 123.516 48.8008 123.516 49.2609 123.516 49.4062 124.436 48.9945 124.775 48.8008 124.945 48.5344 125.308 48.4375 125.598 48.268 126.059 46.9844 126.93 46.5242 126.906 46.4516 126.882 46.1367 126.688 45.8461 126.446Z" fill="#000000" fill-rule="nonzero" fill-opacity="1" transform="matrix(1 0 0 -1 0 248)"/><path d="M54.0078 124.242C54.0078 124.121 54.1289 124 54.25 124 54.3953 124 54.4922 124.121 54.4922 124.242 54.4922 124.387 54.3953 124.484 54.25 124.484 54.1289 124.484 54.0078 124.387 54.0078 124.242Z" fill="#000000" fill-rule="nonzero" fill-opacity="1" transform="matrix(1 0 0 -1 0 248)"/><path d="M53.0391 82.1016C53.0391 81.9562 53.2086 81.8594 53.4023 81.8594 53.5961 81.8594 53.7656 81.9078 53.7656 81.9562 53.7656 82.0047 53.5961 82.1016 53.4023 82.1984 53.2086 82.2711 53.0391 82.2227 53.0391 82.1016Z" fill="#000000" fill-rule="nonzero" fill-opacity="1" transform="matrix(1 0 0 -1 0 248)"/><path d="M54.7344 81.8594C54.7344 81.7383 54.8312 81.6172 54.9523 81.6172 55.0977 81.6172 55.2672 81.7383 55.3398 81.8594 55.4125 82.0047 55.3156 82.1016 55.1219 82.1016 54.9039 82.1016 54.7344 82.0047 54.7344 81.8594Z" fill="#000000" fill-rule="nonzero" fill-opacity="1" transform="matrix(1 0 0 -1 0 248)"/><path d="M56.1875 81.7141C56.1875 81.375 56.2602 81.375 56.5508 81.6172 56.7445 81.7867 56.9141 81.9562 56.9141 82.0047 56.9141 82.0531 56.7445 82.1016 56.5508 82.1016 56.357 82.1016 56.1875 81.932 56.1875 81.7141Z" fill="#000000" fill-rule="nonzero" fill-opacity="1" transform="matrix(1 0 0 -1 0 248)"/><path d="M53.693 81.1086C53.8625 80.9391 54.0562 80.8664 54.1289 80.9391 54.2016 81.0117 54.0805 81.157 53.8383 81.2297 53.4992 81.375 53.475 81.3508 53.693 81.1086Z" fill="#000000" fill-rule="nonzero" fill-opacity="1" transform="matrix(1 0 0 -1 0 248)"/><path d="M89.6094 127.512C89.3672 127.221 89.3914 126.955 89.7062 126.18 90.1422 125.066 90.2148 124.242 89.8516 124.242 89.343 124.242 89.6336 123.491 90.2391 123.249 90.9656 122.983 91.2805 123.152 90.8687 123.564 90.3117 124.121 90.6023 124.266 92.0555 124.145 93.6539 124 93.9445 124.363 92.6125 124.823 91.5469 125.211 90.8445 125.986 91.1594 126.495 91.3531 126.785 91.2805 127.003 90.9656 127.366 90.4086 127.972 90.0211 127.996 89.6094 127.512Z" fill="#000000" fill-rule="nonzero" fill-opacity="1" transform="matrix(1 0 0 -1 0 248)"/><path d="M86.2914 125.259C86.8 124.702 87.9625 122.523 87.8172 122.377 87.6477 122.184 86.7031 123.346 86.2914 124.291 85.8555 125.284 85.3227 125.574 85.5891 124.678 85.9039 123.685 85.8555 123.419 85.4437 123.322 85.1289 123.273 85.0078 123.395 85.0078 123.806 84.9836 124.315 84.2812 125.453 83.9664 125.453 83.6516 125.453 82.8766 123.782 82.7312 122.789 82.6102 122.111 82.3195 121.457 81.932 121.045 81.2539 120.343 81.3023 119.931 82.0289 120.246 82.4891 120.464 83.2398 120.585 84.4023 120.682 84.8141 120.706 85.2016 120.876 85.2742 121.07 85.3469 121.287 85.6133 120.997 86.0008 120.246 86.4367 119.35 86.8 118.987 87.5023 118.72 88.3742 118.381 88.4469 118.405 88.9797 118.938 89.2945 119.253 89.6094 119.689 89.682 119.883 89.7547 120.077 89.7547 119.665 89.682 118.938 89.5609 117.945 89.6094 117.679 89.8273 117.8 89.9727 117.897 90.0453 118.188 89.9727 118.454 89.8031 118.962 90.5055 119.423 90.7961 119.011 90.8687 118.866 91.3531 118.551 91.8375 118.26 92.4914 117.873 92.782 117.8 92.9516 118.018 93.2422 118.381 93.4844 120.222 93.2664 120.537 92.9758 120.997 90.8203 122.038 90.4812 121.917 90.2633 121.82 90.0938 121.99 90.0211 122.353 89.9484 122.789 89.9 122.741 89.8758 122.135 89.8516 121.191 89.4641 120.9 89.2461 121.627 89.0039 122.474 86.9937 125.38 86.5578 125.55 85.9281 125.792 85.8797 125.72 86.2914 125.259Z" fill="#000000" fill-rule="nonzero" fill-opacity="1" transform="matrix(1 0 0 -1 0 248)"/><path d="M84.7656 124.969C84.7656 124.848 84.8867 124.727 85.0078 124.727 85.1531 124.727 85.25 124.848 85.25 124.969 85.25 125.114 85.1531 125.211 85.0078 125.211 84.8867 125.211 84.7656 125.114 84.7656 124.969Z" fill="#000000" fill-rule="nonzero" fill-opacity="1" transform="matrix(1 0 0 -1 0 248)"/><path d="M92.2492 100.823C91.9344 100.435 91.9586 100.411 92.3461 100.726 92.7336 101.041 92.8547 101.234 92.6609 101.234 92.6125 101.234 92.4187 101.041 92.2492 100.823Z" fill="#000000" fill-rule="nonzero" fill-opacity="1" transform="matrix(1 0 0 -1 0 248)"/><path d="M186 155.218C172.026 153.426 159.82 144.586 153.305 131.556 149.914 124.751 148.485 118.188 148.776 110.583 149.478 92.4914 161.127 76.507 177.838 70.743 182.391 69.1687 184.959 68.7328 190.359 68.6117 194.452 68.4906 195.494 68.5633 198.23 69.0234 207.482 70.5734 214.869 74.5695 221.844 81.7625 227.123 87.2117 230.974 94.1383 232.887 101.646 234.777 109.081 234.583 117.364 232.355 124.678 227.971 139.185 215.716 150.859 201.306 154.298 196.874 155.363 190.19 155.751 186 155.218ZM190.602 152.409C190.577 151.319 190.529 151.222 189.681 150.81 189.148 150.544 187.768 150.277 186.242 150.132 184.837 150.011 183.457 149.793 183.142 149.672 182.295 149.309 182.222 149.381 182.852 150.035 184.377 151.658 188.131 153.523 189.948 153.547 190.577 153.547 190.602 153.498 190.602 152.409ZM194.743 153.159C196.39 152.675 198.497 151.585 199.441 150.762 199.974 150.302 200.047 150.156 199.684 150.277 198.86 150.544 196.632 150.883 194.234 151.077L191.934 151.246 191.861 152.409 191.788 153.547 192.612 153.547C193.048 153.547 194.016 153.377 194.743 153.159ZM182.706 151.803C182.319 151.488 181.544 150.834 180.987 150.326L179.97 149.381 177.354 149.309 174.738 149.236 177.136 150.398C179.219 151.416 183.021 152.651 183.312 152.433 183.36 152.384 183.094 152.094 182.706 151.803ZM205.496 150.52C206.441 150.059 207.409 149.527 207.676 149.333 208.136 148.97 208.136 148.97 207.506 148.945 207.167 148.945 206.174 149.163 205.327 149.43 204.503 149.696 203.559 149.914 203.268 149.914 202.977 149.914 202.178 150.398 201.476 151.004 200.773 151.609 200.12 152.094 199.998 152.094 199.902 152.094 199.805 152.191 199.805 152.312 199.805 152.651 203.559 151.464 205.496 150.52ZM193.508 149.793C193.75 149.502 193.726 149.43 193.314 149.43 193.048 149.43 192.66 149.357 192.442 149.284 192.152 149.188 192.055 149.284 192.055 149.648 192.055 150.253 193.048 150.35 193.508 149.793ZM185.516 149.284C185.516 149.236 184.934 149.212 184.256 149.212 183.215 149.236 183.118 149.284 183.699 149.405 184.377 149.551 185.516 149.478 185.516 149.284ZM187.235 149.405C186.848 149.26 186.557 149.26 186.387 149.43 186.218 149.599 186.412 149.672 186.993 149.648 187.768 149.648 187.792 149.623 187.235 149.405ZM189.391 149.43C189.391 149.309 189.124 149.188 188.785 149.188 188.446 149.188 188.18 149.309 188.18 149.43 188.18 149.575 188.446 149.672 188.785 149.672 189.124 149.672 189.391 149.575 189.391 149.43ZM190.602 149.43C190.602 149.309 190.432 149.188 190.238 149.188 190.045 149.188 189.875 149.309 189.875 149.43 189.875 149.575 190.045 149.672 190.238 149.672 190.432 149.672 190.602 149.575 190.602 149.43ZM181.883 147.807C181.689 147.71 181.398 147.492 181.253 147.298 181.108 147.105 180.866 147.008 180.72 147.105 180.551 147.202 180.43 147.153 180.43 147.032 180.43 146.887 180.43 146.693 180.43 146.596 180.43 146.475 180.623 146.378 180.866 146.378 181.084 146.354 181.374 146.33 181.495 146.305 181.616 146.281 181.568 146.112 181.398 145.918 181.011 145.434 179.945 145.434 179.945 145.918 179.945 146.16 179.8 146.209 179.534 146.112 179.146 145.966 179.122 145.991 179.461 146.427 180.405 147.686 180.793 147.977 181.495 147.952 181.907 147.952 182.077 147.88 181.883 147.807ZM190.602 145.434C190.602 143.109 190.553 142.842 190.069 142.358 189.754 142.043 189.342 141.801 189.124 141.777 188.495 141.728 186.678 140.372 185.685 139.185 184.959 138.289 184.62 138.095 184.038 138.095 183.505 138.12 183.215 138.289 183.021 138.701 182.9 138.991 182.682 139.258 182.585 139.258 182.222 139.258 182.488 141.05 182.924 141.704 183.166 142.043 183.287 142.503 183.215 142.721 183.118 142.915 183.191 143.157 183.336 143.254 183.481 143.351 183.554 143.593 183.481 143.811 183.433 144.053 183.312 144.513 183.239 144.877 183.094 145.458 182.997 145.53 182.198 145.458 181.35 145.385 181.35 145.409 181.834 145.797 182.319 146.184 182.319 146.209 181.859 146.548 181.229 146.984 181.277 147.105 182.198 147.565 182.803 147.855 183.772 147.952 186.799 147.952L190.602 147.977 190.602 145.434ZM192.709 147.25C193.023 147.25 193.023 147.177 192.781 146.887 192.539 146.572 192.539 146.427 192.854 146.087 193.072 145.87 193.193 145.361 193.169 144.998 193.072 144.271 192.345 143.302 192.03 143.52 191.764 143.666 191.74 147.589 192.006 147.831 192.103 147.928 192.2 147.855 192.248 147.637 192.297 147.42 192.491 147.25 192.709 147.25ZM195.373 147.831C195.3 147.759 195.082 147.734 194.912 147.807 194.719 147.88 194.791 147.952 195.058 147.952 195.324 147.977 195.47 147.904 195.373 147.831ZM199.03 147.807C198.787 147.759 198.352 147.759 198.061 147.807 197.746 147.855 197.94 147.904 198.473 147.904 199.005 147.928 199.248 147.88 199.03 147.807ZM202.59 147.492C202.832 147.226 202.977 147.008 202.905 147.008 202.832 147.008 202.59 147.226 202.348 147.492 202.105 147.759 201.96 147.977 202.033 147.977 202.105 147.977 202.348 147.759 202.59 147.492ZM178.347 147.444C178.25 147.274 177.838 146.645 177.402 146.039 176.991 145.434 176.119 144.102 175.489 143.084 174.859 142.043 174.254 141.22 174.181 141.244 173.648 141.341 169.701 139.379 169.071 138.677L168.466 138.047 168.998 137.659C169.289 137.466 169.531 137.151 169.531 137.005 169.531 136.836 169.749 136.545 170.016 136.352 170.282 136.158 170.5 135.843 170.5 135.649 170.5 135.359 169.919 135.334 166.698 135.455 164.615 135.552 162.871 135.673 162.798 135.722 162.605 135.94 165.317 139.863 167.085 141.946 168.877 144.029 170.597 145.603 172.05 146.523 173.212 147.226 175.586 147.613 176.603 147.274 177.209 147.056 177.475 147.08 177.862 147.347 178.492 147.807 178.565 147.807 178.347 147.444ZM206.562 146.015C206.223 145.821 205.278 146.523 204.866 147.298 204.721 147.589 205.012 147.468 205.762 146.984 206.562 146.427 206.78 146.16 206.562 146.015ZM210.8 147.008C213.004 145.506 217.363 140.372 219.277 137.03L219.93 135.916 218.405 135.746C217.557 135.673 215.595 135.625 214.021 135.673L211.163 135.746 210.195 138.023C209.662 139.258 209.25 140.299 209.298 140.323 209.347 140.348 209.759 140.662 210.243 141.002 210.727 141.365 211.502 141.728 211.987 141.801 213.052 142.019 213.101 142.261 212.229 142.818 211.841 143.06 211.381 143.472 211.139 143.738 210.8 144.174 210.776 144.247 211.115 144.441 211.309 144.537 211.866 144.586 212.326 144.513L213.173 144.368 212.737 144.901C211.478 146.354 209.734 147.274 207.797 147.516L206.465 147.662 208.112 147.71C209.589 147.734 209.88 147.662 210.8 147.008ZM215.91 145.24C217.363 144.102 221.093 140.59 221.577 139.912 221.771 139.645 221.238 140.009 220.366 140.735 219.519 141.462 218.38 142.309 217.848 142.648 217.315 142.963 216.322 143.835 215.644 144.586 214.941 145.312 213.948 146.257 213.391 146.645 212.859 147.056 212.398 147.468 212.398 147.565 212.398 147.783 214.094 146.645 215.91 145.24ZM167.763 144.78C166.068 143.084 164.639 141.316 163.283 139.306 162.193 137.684 161.297 136.23 161.297 136.109 161.297 135.964 161.079 135.867 160.812 135.867 160.546 135.867 160.328 135.94 160.328 136.012 160.328 136.085 160.861 137.248 161.539 138.604L162.726 141.074 161.636 139.863C161.006 139.209 160.086 138.12 159.577 137.49 159.069 136.836 158.633 136.4 158.633 136.497 158.633 137.078 163.259 142.188 165.511 144.102 167.4 145.676 169.652 147.25 170.064 147.25 170.161 147.25 169.12 146.136 167.763 144.78ZM200.265 146.548C200.798 146.499 200.095 145.797 199.514 145.797 198.981 145.797 198.109 146.209 198.109 146.475 198.109 146.62 199.005 146.645 200.265 146.548ZM178.686 144.828C178.153 144.102 178.153 144.053 178.565 143.762 178.783 143.593 178.977 143.327 178.977 143.181 178.977 143.036 179.17 142.866 179.412 142.794 179.97 142.6 180.139 141.195 179.606 141.195 179.17 141.195 177.572 140.13 177.16 139.573 176.87 139.185 176.773 139.185 176.167 139.5 175.78 139.694 175.416 139.863 175.368 139.912 175.223 140.009 176.652 142.43 177.887 144.198 178.516 145.095 179.073 145.773 179.146 145.7 179.219 145.652 179.001 145.24 178.686 144.828ZM206.029 142.382C206.416 142.237 206.973 141.316 207.942 139.33 208.669 137.756 209.395 136.279 209.516 136.061 209.71 135.673 209.613 135.625 208.523 135.625 207.482 135.625 207.337 135.673 207.482 136.061 207.555 136.279 207.748 136.618 207.87 136.787 208.16 137.175 207.434 138.047 206.804 138.047 206.223 138.047 206.077 138.555 206.537 139.064 206.731 139.306 206.828 139.645 206.755 139.815 206.61 140.227 204.891 140.493 204.503 140.202 204.14 139.912 204.358 138.725 204.866 138.337 205.181 138.071 205.205 137.998 204.915 137.829 204.648 137.659 204.648 137.466 204.866 136.836 205.302 135.577 205.23 135.383 204.261 135.383 203.51 135.383 203.413 135.455 203.559 135.867 203.752 136.448 202.735 137.562 202.033 137.562 201.791 137.562 201.379 137.78 201.137 138.047 200.701 138.531 200.701 138.555 201.33 139.209 201.694 139.597 201.984 140.13 201.984 140.445 201.984 140.735 202.154 141.292 202.348 141.68 202.905 142.77 204.285 143.036 206.029 142.382ZM219.543 140.905C220.342 140.178 221.262 139.379 221.602 139.113 222.352 138.531 224.266 136.545 224.266 136.327 224.266 136.255 223.684 136.109 223.006 136.012 222.086 135.916 221.674 135.964 221.529 136.158 221.432 136.327 220.802 137.393 220.124 138.531 219.446 139.67 218.502 141.074 218.017 141.655 216.927 142.988 217.581 142.673 219.543 140.905ZM194.937 140.59C195.494 140.057 195.009 139.694 193.895 139.839 192.127 140.081 191.958 140.13 191.861 140.42 191.619 141.171 194.186 141.316 194.937 140.59ZM177.523 138.677C177.523 138.555 177.717 138.241 177.959 137.974 178.347 137.514 178.347 137.514 177.838 137.659 177.427 137.805 177.281 137.732 177.281 137.466 177.281 137.223 177.499 137.078 177.887 137.078 178.492 137.078 178.783 136.594 178.202 136.594 178.008 136.594 178.056 136.473 178.298 136.352 178.541 136.206 178.637 135.916 178.565 135.601 178.444 135.116 178.298 135.092 175.804 135.189 174.351 135.213 173.164 135.334 173.164 135.431 173.164 135.577 174.109 137.611 174.545 138.41 174.762 138.798 175.053 138.895 176.167 138.895 176.918 138.895 177.523 138.798 177.523 138.677ZM199.587 136.497C199.369 136.255 199.393 136.109 199.684 135.867 200.192 135.455 199.756 135.141 198.666 135.141 197.698 135.141 197.673 135.286 198.521 136.158 199.175 136.86 200.144 137.151 199.587 136.497ZM171.711 135.625C171.711 135.504 171.59 135.383 171.445 135.383 171.323 135.383 171.275 135.504 171.348 135.625 171.42 135.77 171.541 135.867 171.614 135.867 171.662 135.867 171.711 135.77 171.711 135.625ZM190.359 135.383C190.359 135.262 190.069 135.141 189.705 135.165L189.027 135.189 189.633 135.383C189.972 135.48 190.262 135.577 190.311 135.601 190.335 135.625 190.359 135.528 190.359 135.383ZM226.082 133.591C229.376 128.432 231.943 120.367 231.604 116.25 231.531 115.257 231.337 114.361 231.216 114.264 230.829 114.022 230.32 114.312 230.32 114.797 230.32 115.039 230.151 115.354 229.957 115.523 229.763 115.693 229.594 116.177 229.594 116.637 229.594 117.388 229.085 118.188 228.601 118.188 228.455 118.188 228.068 118.527 227.729 118.938 227.39 119.326 226.978 119.616 226.809 119.568 226.639 119.495 226.397 120.222 226.106 121.796 225.234 126.398 223.975 130.709 222.473 134.22 222.304 134.559 222.473 134.632 223.587 134.729 224.29 134.777 224.944 134.826 225.065 134.85 225.162 134.874 225.622 134.317 226.082 133.591ZM160.231 134.341C160.28 134.293 159.989 133.445 159.577 132.452 158.148 128.989 157.083 124.654 156.211 118.938 155.969 117.388 155.775 116.516 155.751 117.001 155.751 117.485 155.581 118.309 155.387 118.817 155.218 119.35 154.976 121.07 154.903 122.668 154.758 125.162 154.806 125.841 155.218 127.366 155.484 128.359 155.92 129.449 156.187 129.788 157.107 130.951 158.875 134.22 158.705 134.487 158.609 134.656 158.827 134.68 159.359 134.559 159.82 134.487 160.207 134.366 160.231 134.341ZM221.093 133.518C222.449 130.805 224.362 124.387 224.895 120.73 225.041 119.616 225.041 119.544 224.677 119.859 224.459 120.028 224.096 120.101 223.854 120.028 223.587 119.907 223.152 120.149 222.498 120.779L221.529 121.699 221.698 120.997C221.916 120.101 222.812 118.914 223.273 118.914 223.83 118.89 224.629 118.139 224.798 117.509 225.041 116.637 224.532 115.475 223.297 114.07L222.134 112.738 221.166 113.537C220.609 113.949 220.076 114.312 219.979 114.312 219.858 114.312 219.616 114.942 219.446 115.717 219.01 117.582 217.242 121.191 216.709 121.287 215.959 121.433 216.201 120.488 217.605 117.752 218.332 116.323 218.938 115.015 218.938 114.87 218.938 114.724 219.083 114.434 219.252 114.264 219.422 114.095 219.737 113.659 219.979 113.295 220.221 112.884 220.609 112.617 220.923 112.617 221.238 112.617 221.359 112.52 221.214 112.399 220.948 112.157 214.772 111.842 214.917 112.084 215.062 112.302 214.675 119.98 214.433 121.481 214.312 122.402 214.336 122.571 214.602 122.426 215.716 121.723 216.879 122.547 216.709 123.903 216.637 124.533 215.741 125.259 214.166 125.937 213.852 126.059 213.609 126.373 213.609 126.64 213.609 126.906 213.537 127.318 213.464 127.56 213.343 127.972 213.367 127.948 213.706 127.536 213.924 127.27 214.142 127.124 214.215 127.197 214.287 127.245 214.07 127.56 213.73 127.875 212.98 128.577 212.955 128.892 213.682 128.626 213.973 128.529 214.917 128.359 215.765 128.262 217.17 128.093 217.291 128.117 217.024 128.456 216.83 128.674 216.467 128.844 216.177 128.844 215.91 128.844 215.402 129.11 215.111 129.449 214.627 129.958 214.602 130.079 214.893 130.2 215.45 130.394 215.595 131.048 215.184 131.363 214.675 131.726 212.883 131.556 212.883 131.145 212.883 130.951 212.98 130.757 213.125 130.66 213.246 130.587 213.27 130.345 213.198 130.152 213.004 129.619 212.786 130.03 212.302 131.92 212.084 132.743 211.841 133.591 211.769 133.784 211.648 134.099 212.084 134.172 214.748 134.245 216.443 134.269 218.477 134.341 219.228 134.366 220.609 134.414 220.633 134.414 221.093 133.518ZM167.303 134.002C169.822 133.881 170.185 133.809 169.822 133.542 169.507 133.3 169.483 133.227 169.749 133.203 169.943 133.203 170.306 133.397 170.573 133.639 171.057 134.027 171.057 134.027 170.887 133.445 170.742 132.888 169.434 127.439 169.168 126.228 169.095 125.913 168.926 125.744 168.805 125.816 168.684 125.889 168.32 125.574 167.957 125.114 167.618 124.678 166.916 124.024 166.383 123.661 165.438 123.031 165.438 123.031 165.366 121.287 165.293 119.689 165.245 119.52 164.76 119.447 164.324 119.374 164.179 119.544 163.985 120.295 163.84 120.803 163.719 121.409 163.719 121.651 163.719 122.014 163.452 122.062 161.66 122.062 159.965 122.062 159.577 121.99 159.408 121.651 158.899 120.682 158.512 116.105 158.899 115.862 159.045 115.79 159.408 116.008 159.723 116.347 160.086 116.759 160.57 116.977 161.006 116.977 161.709 116.977 161.709 116.952 161.612 115.887 161.418 114.312 161.587 114.022 162.508 114.361 162.92 114.482 163.307 114.579 163.331 114.53 163.38 114.482 163.307 113.925 163.162 113.295L162.871 112.133 161.83 112.133C160.934 112.133 160.643 112.278 159.82 113.077 159.311 113.61 158.487 114.216 158.027 114.458 157.567 114.676 157.18 114.991 157.18 115.184 157.18 116.056 157.979 121.457 158.415 123.516 159.093 126.64 159.723 128.747 160.861 131.702L161.83 134.172 163.089 134.172C163.791 134.172 165.68 134.099 167.303 134.002ZM210.824 131.726C211.405 129.716 211.478 129.207 211.236 128.82 211.018 128.48 211.018 128.214 211.188 127.899 211.357 127.56 211.333 127.415 211.066 127.294 210.824 127.221 210.703 126.834 210.703 126.18 210.703 125.647 210.606 125.211 210.461 125.211 210.34 125.211 210.219 125.453 210.219 125.744 210.219 127.1 208.16 129.812 207.119 129.812 206.804 129.812 206.852 129.691 207.361 129.255 208.112 128.626 209.226 126.543 208.717 126.712 208.548 126.761 207.966 127.463 207.458 128.238 206.489 129.667 206.077 129.716 206.562 128.335 206.877 127.391 206.707 127.076 206.102 127.439 205.52 127.802 205.327 128.529 205.787 128.698 206.344 128.916 205.932 129.28 205.254 129.134 204.891 129.086 204.648 129.134 204.648 129.304 204.648 129.837 203.801 129.57 203.195 128.82 202.832 128.432 202.178 127.342 201.718 126.422 200.943 124.823 200.507 124.436 200.168 124.969 200.023 125.211 199.078 125.308 199.078 125.09 199.078 125.017 199.272 124.751 199.514 124.509 199.926 124.073 199.974 124.073 201.742 124.533 202.735 124.823 203.97 125.017 204.479 124.993 205.181 124.969 205.375 125.041 205.375 125.38 205.375 125.72 205.52 125.647 205.98 125.09 206.295 124.702 206.537 124.242 206.465 124.073 206.344 123.685 207.022 123.177 208.063 122.862 208.911 122.62 208.984 122.644 209.71 123.443 210.582 124.387 210.873 124.387 210.437 123.419 210.195 122.91 210.195 122.716 210.461 122.474 210.703 122.232 210.752 122.256 210.63 122.595 210.388 123.249 210.97 123.54 211.962 123.225 212.81 122.983 212.834 122.91 213.004 121.481 213.101 120.682 213.246 118.188 213.343 115.959L213.488 111.915 211.793 111.794C210.873 111.721 206.537 111.6 202.202 111.527L194.307 111.382 194.549 113.005C194.719 114.191 194.695 114.845 194.452 115.572 194.234 116.25 194.21 116.589 194.404 116.686 194.549 116.783 194.912 117.316 195.203 117.897 195.494 118.454 196.245 119.35 196.874 119.907 197.649 120.609 198.037 121.142 198.182 121.772 198.279 122.28 198.4 122.886 198.448 123.152 198.521 123.419 198.618 123.952 198.715 124.363 198.836 124.969 198.763 125.187 198.206 125.598 197.601 126.107 197.577 126.18 197.746 127.851 197.94 129.74 197.746 129.595 199.659 129.207 199.974 129.134 200.483 129.183 200.749 129.28L201.258 129.449 200.773 130.418C200.192 131.556 200.168 131.992 200.652 131.992 200.846 131.992 201.016 132.113 201.016 132.259 201.016 132.404 201.234 132.452 201.524 132.355 201.887 132.234 202.057 132.307 202.154 132.695 202.251 133.058 202.469 133.203 202.977 133.203 203.438 133.203 203.68 133.324 203.68 133.542 203.68 133.93 204.552 134.051 208.063 134.123L210.146 134.172 210.824 131.726ZM174.133 133.542C174.133 133.179 174.787 132.912 174.98 133.203 175.053 133.3 174.956 133.47 174.811 133.518 174.641 133.591 175.198 133.639 176.07 133.639 176.942 133.639 177.427 133.591 177.16 133.518 176.216 133.3 174.98 132.646 174.569 132.137 174.012 131.484 174.036 131.266 174.593 131.266 175.344 131.266 175.804 130.999 175.683 130.66 175.61 130.491 175.683 130.273 175.804 130.176 176.773 129.595 174.23 129.328 173.116 129.909 172.486 130.248 172.462 130.224 172.316 129.595 172.195 129.013 171.323 128.19 171.081 128.432 171.033 128.48 171.323 129.74 171.735 131.217L172.51 133.93 173.309 133.881C173.77 133.857 174.133 133.712 174.133 133.542ZM201.016 133.445C201.016 132.912 200.773 132.816 200.386 133.203 200.192 133.397 199.732 133.324 198.86 132.961L197.601 132.477 197.407 133.034C197.237 133.494 197.286 133.591 197.964 133.712 198.376 133.809 199.223 133.881 199.877 133.905 200.87 133.93 201.016 133.857 201.016 133.445ZM156.695 133.203C156.55 132.937 156.38 132.719 156.308 132.719 156.259 132.719 156.308 132.937 156.453 133.203 156.598 133.47 156.768 133.688 156.841 133.688 156.889 133.688 156.841 133.47 156.695 133.203ZM179.437 132.234C180.139 130.878 180.091 130.757 178.952 131.145 178.42 131.338 177.911 131.484 177.814 131.484 177.305 131.411 177.063 131.556 177.184 131.871 177.281 132.065 177.209 132.234 177.063 132.234 176.603 132.234 176.773 132.622 177.354 132.912 178.395 133.421 178.904 133.252 179.437 132.234ZM163.864 118.163C163.937 118.018 164.736 117.558 165.608 117.146 167.884 116.032 168.078 115.935 168.078 115.596 168.078 114.991 167.618 115.087 166.819 115.862 166.237 116.42 165.656 116.734 164.905 116.855 163.67 117.049 163.234 117.34 163.234 117.97 163.234 118.478 163.598 118.575 163.864 118.163ZM227.172 117.073C227.172 116.88 227.075 116.783 226.93 116.855 226.809 116.928 226.688 117.17 226.688 117.364 226.688 117.558 226.809 117.655 226.93 117.582 227.075 117.509 227.172 117.267 227.172 117.073ZM170.67 115.16C170.621 115.039 170.355 114.894 170.064 114.845 169.628 114.773 169.531 114.894 169.531 115.354 169.531 115.911 169.58 115.935 170.137 115.693 170.476 115.523 170.694 115.305 170.67 115.16ZM232.258 113.344C232.258 113.223 232.137 113.102 231.991 113.102 231.87 113.102 231.822 113.223 231.895 113.344 231.967 113.489 232.088 113.586 232.161 113.586 232.209 113.586 232.258 113.489 232.258 113.344ZM232.185 110.51C232.112 110.268 232.064 110.462 232.064 110.922 232.064 111.382 232.112 111.576 232.185 111.358 232.234 111.116 232.234 110.728 232.185 110.51ZM223.612 110.002C223.539 109.517 223.152 108.573 222.74 107.895 218.768 101.452 218.938 101.791 219.107 100.241 219.301 98.207 218.865 96.875 217.509 95.4461 216.516 94.3805 216.055 93.5328 215.087 90.7961 214.893 90.2391 214.699 90.1422 213.464 90.0211 212.689 89.9484 212.011 89.9 211.987 89.9484 211.938 89.9727 212.277 91.4984 212.737 93.2906 213.9 97.9164 214.578 102.445 214.772 106.805L214.941 110.559 218.453 110.728C220.391 110.825 222.304 110.946 222.691 110.97 223.709 111.091 223.757 111.019 223.612 110.002ZM163.622 110.462C163.38 110.098 165.729 109.953 166.141 110.316 166.359 110.51 166.843 110.631 167.23 110.583 167.957 110.51 167.957 110.486 168.005 108.839 168.102 105.715 168.611 100.629 169.071 97.8438 169.531 95.2039 170.476 91.2078 170.863 90.2633 170.984 89.9727 170.936 89.8758 170.694 89.9727 170.5 90.0453 170.137 91.0383 169.822 92.3461 169.313 94.5016 169.241 94.6227 167.957 95.8094 167.158 96.5602 166.407 97.5531 166.02 98.3523 165.341 99.8297 164.3 101.67 163.84 102.203 163.598 102.494 163.598 102.76 163.864 103.656 164.034 104.262 164.3 105.206 164.445 105.787 164.615 106.393 164.857 106.805 165.051 106.805 165.293 106.805 165.414 107.071 165.414 107.652 165.414 108.597 164.397 109.832 163.791 109.614 163.598 109.541 163.404 109.638 163.307 109.856 163.234 110.074 162.944 110.341 162.653 110.438 162.217 110.631 162.266 110.655 162.944 110.655 163.38 110.68 163.695 110.583 163.622 110.462ZM172.074 109.953C172.631 109.687 173.382 109.154 173.77 108.742 174.157 108.355 174.569 108.016 174.69 108.016 174.811 108.016 175.174 107.798 175.513 107.531 175.852 107.265 176.337 107.047 176.579 107.047 176.991 107.047 177.257 106.466 177.62 104.819 177.741 104.262 177.911 104.141 178.541 104.141 179.001 104.141 179.873 103.777 180.841 103.172 181.689 102.615 182.464 102.227 182.585 102.3 182.973 102.566 184.595 101.84 185.177 101.162 185.855 100.338 185.806 99.9266 184.789 98.4492 184.232 97.65 184.087 97.1414 183.966 95.4945 183.893 94.4047 183.675 93.1211 183.481 92.6609 183.118 91.8133 183.07 91.7891 181.81 91.7891 180.284 91.7891 179.97 91.5469 179.897 90.2148L179.824 89.2945 177.039 89.4641C172.316 89.7305 172.51 89.682 171.977 91.4016 170.791 95.2523 169.846 101.307 169.58 106.998L169.41 110.438 170.234 110.438C170.694 110.438 171.517 110.22 172.074 109.953ZM213.44 108.452C213.198 102.494 212.35 97.093 210.873 91.7891L210.316 89.7305 209.177 89.6578 208.039 89.5852 208.184 91.6437C208.33 93.2906 208.257 93.9445 207.942 94.7922 207.482 96.0031 207.652 96.657 208.572 97.1414 209.032 97.3836 209.056 97.5531 208.935 99.2 208.766 101.162 208.305 102.494 207.506 103.341 207.022 103.85 207.022 103.971 207.312 105.352 207.482 106.151 207.555 106.877 207.506 106.95 207.434 107.023 207.07 107.095 206.731 107.144 206.368 107.192 205.956 107.337 205.811 107.483 205.641 107.652 205.375 107.773 205.205 107.773 205.036 107.773 204.794 107.991 204.673 108.234 204.43 108.67 204.358 108.67 203.026 107.967 202.154 107.507 201.112 107.192 200.289 107.12L198.957 107.023 197.552 108.355C196.777 109.105 195.978 109.711 195.76 109.711 195.542 109.711 195.445 109.784 195.542 109.88 195.639 110.002 199.127 110.147 203.268 110.22 207.434 110.292 211.43 110.365 212.18 110.389L213.537 110.438 213.44 108.452ZM231.943 107.604C231.87 107.362 231.822 107.507 231.822 107.895 231.822 108.306 231.87 108.476 231.943 108.33 231.991 108.161 231.991 107.822 231.943 107.604ZM230.974 102.397C230.902 102.203 230.829 102.276 230.829 102.542 230.805 102.809 230.877 102.954 230.95 102.857 231.023 102.784 231.047 102.566 230.974 102.397ZM221.602 95.0828C220.584 93.1453 219.737 92.0312 219.252 92.0312 218.477 92.0312 219.543 94.5016 221.698 97.7711L222.207 98.5703 222.28 97.5531C222.352 96.8023 222.183 96.1969 221.602 95.0828ZM226.227 90.1422C226.106 89.9 225.816 89.5609 225.622 89.3914 225.283 89.1008 225.283 89.1492 225.622 89.8273 225.84 90.2391 226.106 90.5781 226.227 90.5781 226.373 90.5781 226.373 90.4086 226.227 90.1422ZM172.195 86.5336C172.631 85.3469 173.43 83.5305 173.939 82.4648 174.472 81.3992 174.762 80.6727 174.593 80.8422 174.23 81.1812 173.406 81.2297 173.406 80.9148 173.406 80.7695 173.648 80.5031 173.915 80.3094 174.205 80.1156 174.375 79.8008 174.302 79.607 174.205 79.3648 174.302 79.2922 174.617 79.3648 175.174 79.5102 176.143 79.0016 175.925 78.6625 175.828 78.493 175.852 78.4688 176.022 78.5656 176.167 78.6383 176.409 78.5172 176.53 78.2508 176.773 77.8391 176.7 77.7664 176.046 77.6211 175.053 77.4031 174.157 78.057 173.721 79.3164 173.406 80.2852 173.067 81.0117 172.05 83.0703 171.396 84.4023 170.5 87.2844 170.5 88.0594 170.5 88.4711 170.645 88.6406 170.936 88.6406 171.275 88.6406 171.59 88.132 172.195 86.5336ZM213.948 87.9141C213.561 87.5266 213.149 87.1875 213.028 87.1875 212.907 87.1875 212.859 87.2602 212.955 87.3328 213.295 87.6719 212.374 88.2047 211.72 88.0352 211.284 87.9383 211.139 87.9625 211.309 88.1078 211.575 88.3742 212.156 88.4953 213.706 88.5922L214.651 88.6648 213.948 87.9141ZM176.87 88.0109 178.759 87.8656 178.226 87.2844C177.935 86.9695 177.548 86.7031 177.354 86.7031 177.184 86.7031 177.039 86.6062 177.039 86.5094 177.039 86.3883 176.748 86.1461 176.409 85.9766 176.07 85.7828 175.731 85.3469 175.659 84.9594 175.586 84.5719 175.416 84.2086 175.32 84.1359 175.198 84.0633 175.174 83.8695 175.247 83.7242 175.368 83.5305 175.344 83.5062 175.15 83.6758 174.98 83.8211 174.423 84.9594 173.915 86.1945L172.946 88.4469 173.963 88.3016C174.52 88.2289 175.828 88.1078 176.87 88.0109ZM222.812 85.6617C222.812 85.6133 222.57 85.3711 222.28 85.1047L221.723 84.6445 222.183 85.2016C222.619 85.7102 222.812 85.8555 222.812 85.6617ZM220.148 82.7555C220.148 82.707 219.785 82.368 219.373 81.9562L218.574 81.2539 219.277 82.0531C219.955 82.7797 220.148 82.9492 220.148 82.7555ZM170.161 76.9914C170.234 76.8461 170.04 76.9187 169.677 77.1367 169.337 77.3789 169.047 77.5969 169.047 77.6695 169.047 77.8391 169.991 77.2578 170.161 76.9914ZM202.469 73.5281C202.469 73.4797 202.275 73.2859 202.057 73.1164 201.67 72.8016 201.645 72.8258 201.96 73.2133 202.275 73.6008 202.469 73.7219 202.469 73.5281ZM204.14 72.8984C203.51 72.5352 199.78 71.3969 199.635 71.518 199.369 71.8086 202.832 73.0437 204.043 73.1164 204.455 73.1164 204.479 73.0922 204.14 72.8984ZM183.409 71.7602C183.796 71.5664 184.062 71.3727 184.014 71.3242 183.917 71.2273 180.696 72.0508 180.527 72.2445 180.26 72.5109 182.779 72.075 183.409 71.7602ZM188.834 71.9297C190.19 71.9297 190.602 71.857 190.602 71.5906 190.602 71.3969 190.674 71.082 190.747 70.8641 190.941 70.3312 190.48 70.3797 188.252 71.082 186.242 71.7117 184.547 72.632 186.242 72.1719 186.702 72.0266 187.889 71.9297 188.834 71.9297ZM197.746 72.1961C197.31 71.8086 194.259 70.7188 193.145 70.5734L192.055 70.4039 192.055 71.1789C192.055 71.9055 192.079 71.9297 193.217 71.9539 193.847 71.9781 194.622 72.075 194.961 72.1719 195.809 72.4383 198.012 72.4625 197.746 72.1961Z" fill="#000000" fill-rule="nonzero" fill-opacity="1" transform="matrix(1 0 0 -1 0 248)"/><path d="M182.246 147.008C182.173 146.887 182.27 146.766 182.464 146.766 182.682 146.766 182.852 146.887 182.852 147.008 182.852 147.153 182.755 147.25 182.634 147.25 182.488 147.25 182.319 147.153 182.246 147.008Z" fill="#000000" fill-rule="nonzero" fill-opacity="1" transform="matrix(1 0 0 -1 0 248)"/><path d="M176.143 146.523C176.191 146.33 176.434 146.136 176.7 146.112 177.015 146.063 177.063 146.087 176.797 146.209 176.603 146.281 176.337 146.475 176.24 146.62 176.095 146.79 176.07 146.766 176.143 146.523Z" fill="#000000" fill-rule="nonzero" fill-opacity="1" transform="matrix(1 0 0 -1 0 248)"/><path d="M175.32 145.87C175.295 145.748 175.295 145.603 175.32 145.506 175.32 145.409 175.174 145.385 174.98 145.458 174.762 145.555 174.617 145.458 174.617 145.24 174.617 144.707 175.513 144.998 175.659 145.579 175.731 145.821 175.683 146.039 175.562 146.039 175.441 146.039 175.32 145.966 175.32 145.87Z" fill="#000000" fill-rule="nonzero" fill-opacity="1" transform="matrix(1 0 0 -1 0 248)"/><path d="M174.012 142.939C174.084 142.77 174.133 142.552 174.133 142.503 174.133 142.188 174.884 142.479 175.102 142.891 175.344 143.351 175.295 143.375 174.617 143.327 174.109 143.278 173.915 143.181 174.012 142.939Z" fill="#000000" fill-rule="nonzero" fill-opacity="1" transform="matrix(1 0 0 -1 0 248)"/><path d="M164.566 142.285C164.179 141.97 163.961 141.704 164.106 141.68 164.252 141.68 164.615 141.946 164.93 142.285 165.656 143.06 165.511 143.06 164.566 142.285Z" fill="#000000" fill-rule="nonzero" fill-opacity="1" transform="matrix(1 0 0 -1 0 248)"/><path d="M163.234 141.438C163.016 141.292 162.992 141.195 163.162 141.195 163.307 141.195 163.525 141.316 163.598 141.438 163.791 141.728 163.695 141.728 163.234 141.438Z" fill="#000000" fill-rule="nonzero" fill-opacity="1" transform="matrix(1 0 0 -1 0 248)"/><path d="M163.21 140.541C162.895 140.154 162.92 140.13 163.307 140.445 163.525 140.614 163.719 140.808 163.719 140.856 163.719 141.05 163.525 140.929 163.21 140.541Z" fill="#000000" fill-rule="nonzero" fill-opacity="1" transform="matrix(1 0 0 -1 0 248)"/><path d="M155.533 121.215C155.533 120.682 155.63 119.98 155.727 119.641 155.896 119.132 155.92 119.229 155.92 120.125 155.92 120.73 155.848 121.433 155.727 121.699 155.557 122.062 155.509 121.966 155.533 121.215Z" fill="#000000" fill-rule="nonzero" fill-opacity="1" transform="matrix(1 0 0 -1 0 248)"/><path d="M217.509 131.532C217.291 131.387 217.266 131.266 217.46 131.169 217.605 131.072 217.727 130.757 217.727 130.491 217.727 130.2 217.993 129.619 218.332 129.183 218.671 128.747 219.131 127.827 219.349 127.148 219.785 125.816 220.536 125.138 220.778 125.816 220.875 126.034 220.827 126.325 220.657 126.495 220.245 126.906 220.342 127.197 220.875 127.027 221.262 126.906 221.359 126.979 221.359 127.366 221.359 127.875 220.584 128.844 220.173 128.844 220.052 128.844 219.906 129.377 219.809 130.006 219.688 130.951 219.543 131.241 219.034 131.459 218.308 131.798 217.969 131.823 217.509 131.532Z" fill="#000000" fill-rule="nonzero" fill-opacity="1" transform="matrix(1 0 0 -1 0 248)"/><path d="M221.117 125.695C221.117 125.574 221.238 125.453 221.359 125.453 221.505 125.453 221.602 125.574 221.602 125.695 221.602 125.841 221.505 125.937 221.359 125.937 221.238 125.937 221.117 125.841 221.117 125.695Z" fill="#000000" fill-rule="nonzero" fill-opacity="1" transform="matrix(1 0 0 -1 0 248)"/><path d="M218.114 114.918C218.211 114.724 218.308 114.555 218.356 114.555 218.405 114.555 218.453 114.724 218.453 114.918 218.453 115.112 218.356 115.281 218.211 115.281 218.09 115.281 218.041 115.112 218.114 114.918Z" fill="#000000" fill-rule="nonzero" fill-opacity="1" transform="matrix(1 0 0 -1 0 248)"/><path d="M165.487 132.791C164.688 132.259 164.809 131.992 165.777 132.162 166.843 132.331 166.867 132.016 165.898 131.096 165.293 130.539 164.445 129.28 164.445 128.916 164.445 128.577 164.978 128.989 165.366 129.667 165.729 130.297 166.092 130.563 166.746 130.684 167.884 130.878 167.981 130.733 167.23 130.03 166.625 129.449 166.407 128.602 166.867 128.602 167.012 128.602 167.182 128.747 167.255 128.941 167.327 129.134 167.691 129.401 168.078 129.57 168.974 129.934 169.168 130.442 168.587 130.927 168.345 131.145 168.175 131.508 168.248 131.726 168.32 131.992 168.054 132.307 167.4 132.67 166.286 133.3 166.189 133.3 165.487 132.791Z" fill="#000000" fill-rule="nonzero" fill-opacity="1" transform="matrix(1 0 0 -1 0 248)"/><path d="M173.334 130.636C173.14 130.442 173.358 130.055 173.673 130.055 173.794 130.055 173.891 130.224 173.891 130.418 173.891 130.781 173.6 130.902 173.334 130.636Z" fill="#000000" fill-rule="nonzero" fill-opacity="1" transform="matrix(1 0 0 -1 0 248)"/><path d="M215.983 104.722C215.668 104.407 215.644 104.189 215.837 103.753 216.201 102.978 216.443 103.027 216.637 103.923 216.855 104.843 216.516 105.255 215.983 104.722Z" fill="#000000" fill-rule="nonzero" fill-opacity="1" transform="matrix(1 0 0 -1 0 248)"/><path d="M215.959 102.034C215.91 101.912 215.886 101.355 215.91 100.75 215.934 99.8539 216.007 99.6602 216.395 99.6602 217 99.6602 217.387 100.847 217.024 101.622 216.782 102.179 216.177 102.397 215.959 102.034Z" fill="#000000" fill-rule="nonzero" fill-opacity="1" transform="matrix(1 0 0 -1 0 248)"/><path d="M212.883 92.3945C212.883 92.2008 212.931 92.0312 212.98 92.0312 213.028 92.0312 213.125 92.2008 213.222 92.3945 213.295 92.5883 213.246 92.7578 213.125 92.7578 212.98 92.7578 212.883 92.5883 212.883 92.3945Z" fill="#000000" fill-rule="nonzero" fill-opacity="1" transform="matrix(1 0 0 -1 0 248)"/><path d="M212.398 90.5539C212.398 90.4328 212.616 90.3359 212.883 90.3359 213.149 90.3359 213.367 90.3844 213.367 90.4328 213.367 90.4812 213.149 90.5781 212.883 90.6508 212.616 90.7234 212.398 90.675 212.398 90.5539Z" fill="#000000" fill-rule="nonzero" fill-opacity="1" transform="matrix(1 0 0 -1 0 248)"/><path d="M41.2687 50.1328C39.8156 49.6727 38.2172 48.3648 37.4664 47.0086 36.5219 45.3375 36.2797 42.625 36.9094 40.7602 37.757 38.193 40.0094 36.5461 42.9156 36.3766 46.0641 36.1828 48.5828 37.757 49.6242 40.5664 50.932 44.0539 49.7211 47.8562 46.7664 49.4789 45.7492 50.0602 45.1195 50.2297 43.7391 50.2781 42.7945 50.3266 41.6805 50.2539 41.2687 50.1328ZM45.4102 47.6383C46.6211 46.9602 47.3961 45.7977 47.6141 44.4172 48.0984 41.1477 46.2094 38.5078 43.4 38.5078 40.7844 38.5078 39.0164 40.4453 38.9922 43.3031 38.9922 45.4828 39.8398 46.9602 41.5352 47.7352 42.843 48.3406 44.2234 48.3164 45.4102 47.6383Z" fill="#000000" fill-rule="nonzero" fill-opacity="1" transform="matrix(1 0 0 -1 0 248)"/><path d="M218.211 47.2992 218.211 44.7805 217.46 45.3375C216.346 46.1609 214.263 46.1125 212.931 45.2164 211.478 44.2719 210.945 43.0609 210.945 40.8086 210.945 38.8227 211.381 37.6359 212.447 36.643 213.924 35.2625 216.637 35.2383 217.969 36.5703L218.453 37.0547 218.453 36.3281C218.453 35.6258 218.502 35.6016 219.543 35.6016L220.633 35.6016 220.584 42.6492 220.512 49.6969 219.373 49.7453 218.211 49.7937 218.211 47.2992ZM217.048 43.5695C218.066 43.0125 218.574 40.3484 217.896 38.9922 217.727 38.6531 217.194 38.193 216.709 37.9508 215.91 37.5633 215.741 37.5391 214.99 37.8781 213.658 38.4109 213.295 39.1859 213.416 41.075 213.512 42.4797 213.609 42.7703 214.191 43.2547 214.893 43.8844 216.201 44.0297 217.048 43.5695Z" fill="#000000" fill-rule="nonzero" fill-opacity="1" transform="matrix(1 0 0 -1 0 248)"/><path d="M166.237 49.3336C161.757 47.6383 160.328 41.5352 163.549 37.8781 164.736 36.5219 166.092 35.8195 167.812 35.6742 169.773 35.5047 171.105 35.9406 172.413 37.2L173.527 38.2656 172.655 39.0891 171.784 39.9367 171.275 39.2586C169.967 37.4906 167.521 37.3695 165.898 38.9922 163.864 41.0266 163.985 44.7562 166.116 46.5727 167.594 47.8078 169.895 47.6625 171.081 46.2336L171.711 45.507 172.559 46.1852C173.019 46.5484 173.406 46.9359 173.406 47.0086 173.406 47.4203 171.154 49.1641 170.355 49.382 169.144 49.7211 167.206 49.6969 166.237 49.3336Z" fill="#000000" fill-rule="nonzero" fill-opacity="1" transform="matrix(1 0 0 -1 0 248)"/><path d="M175.102 42.7461 175.102 35.8438 176.312 35.8438 177.523 35.8438 177.523 42.7461 177.523 49.6484 176.312 49.6484 175.102 49.6484 175.102 42.7461Z" fill="#000000" fill-rule="nonzero" fill-opacity="1" transform="matrix(1 0 0 -1 0 248)"/><path d="M79.0016 46.5C78.5656 46.4031 77.9359 46.0641 77.5969 45.7492 77.0398 45.2406 77.0156 45.2406 77.0641 45.6766 77.1367 46.2336 77.0641 46.2578 75.8047 46.2578L74.8359 46.2578 74.8359 41.4141 74.8359 36.5703 76.0227 36.5703 77.2336 36.5703 77.3062 40.1062C77.3789 43.4727 77.4031 43.6664 77.9602 44.1023 78.7594 44.7562 80.1883 44.7078 80.8422 44.0055 81.3266 43.4727 81.375 43.2062 81.375 40.0094L81.375 36.5703 82.5859 36.5703 83.7969 36.5703 83.7969 40.2273C83.7969 43.0852 83.7 44.0539 83.4094 44.7078 82.7312 46.1125 80.7695 46.9117 79.0016 46.5Z" fill="#000000" fill-rule="nonzero" fill-opacity="1" transform="matrix(1 0 0 -1 0 248)"/><path d="M52.0703 39.4523 52.0703 32.4531 53.2812 32.4531 54.4922 32.4531 54.4922 34.9961 54.4922 37.5633 55.1703 37.0547C56.5992 35.9891 59.0695 36.1344 60.4258 37.3211 61.6125 38.3625 62.0969 39.8156 61.9516 41.8984 61.8062 43.957 61.0312 45.2648 59.5297 46.0398 58.2219 46.718 56.1391 46.5969 55.025 45.7977L54.25 45.2648 54.25 45.8461C54.25 46.3789 54.1531 46.4273 53.1602 46.4273L52.0703 46.4273 52.0703 39.4523ZM57.9797 44.3203C59.0453 43.9328 59.6266 42.7219 59.5055 41.1234 59.4086 39.5008 58.7547 38.6047 57.5437 38.3625 55.6789 38.0234 54.4195 39.4523 54.5648 41.7047 54.6859 43.957 56.1148 45.0227 57.9797 44.3203Z" fill="#000000" fill-rule="nonzero" fill-opacity="1" transform="matrix(1 0 0 -1 0 248)"/><path d="M66.4805 46.1609C63.6711 44.95 62.775 40.4453 64.8336 37.9992 66.5289 36.0133 70.0891 35.7469 72.1234 37.4664L72.9227 38.1445 72.1961 38.8469 71.4695 39.525 70.8398 39.0406C69.968 38.3625 68.7086 38.1445 67.7883 38.5078 66.9406 38.8711 66.1172 39.8398 66.1172 40.518 66.1172 40.9781 66.2141 40.9781 69.6289 40.8328L73.1406 40.6391 73.1406 41.2687C73.1406 43.5211 72.075 45.5312 70.5492 46.1609 69.5563 46.5969 67.425 46.5727 66.4805 46.1609ZM69.9437 44.1508C70.2344 43.9086 70.525 43.4242 70.6219 43.0609L70.7672 42.3828 68.4422 42.3828C67.1586 42.3828 66.1172 42.4312 66.1172 42.5039 66.1172 42.8672 66.8922 44.0781 67.2555 44.2961 67.9336 44.6836 69.4109 44.6109 69.9437 44.1508Z" fill="#000000" fill-rule="nonzero" fill-opacity="1" transform="matrix(1 0 0 -1 0 248)"/><path d="M182.73 45.725C181.52 45.2891 180.502 44.393 179.945 43.2305 179.509 42.3102 179.437 41.8016 179.509 40.3242 179.582 38.7742 179.679 38.4352 180.333 37.6117 181.471 36.1828 182.9 35.5531 184.716 35.65 186.581 35.7711 187.986 36.643 188.834 38.2656 189.681 39.8156 189.56 42.3344 188.591 43.8117 187.429 45.5797 184.789 46.4516 182.73 45.725ZM185.806 43.5695C186.073 43.4242 186.436 42.9398 186.63 42.5039 187.744 39.8398 185.976 37.0305 183.675 37.7812 183.166 37.9508 182.634 38.3867 182.343 38.8469 181.495 40.2273 181.883 42.8914 183.021 43.5695 183.602 43.9086 185.177 43.9086 185.806 43.5695Z" fill="#000000" fill-rule="nonzero" fill-opacity="1" transform="matrix(1 0 0 -1 0 248)"/><path d="M193.145 45.7492C192.03 45.4344 191.062 44.2961 190.916 43.1336 190.795 42.2617 190.868 42.068 191.595 41.3414 192.055 40.8812 193.048 40.3 193.871 40.0094 195.76 39.307 196.027 39.1617 196.148 38.6289 196.341 37.5391 194.283 37.2 192.66 38.0234L191.691 38.532 191.159 37.8539C190.529 37.0547 190.723 36.7156 192.176 36.0617 194.283 35.093 197.116 35.7227 198.109 37.3695 199.32 39.3555 198.134 41.0508 194.961 41.8984 193.193 42.3586 192.491 43.3031 193.484 43.8359 194.234 44.2234 195.252 44.1266 196.148 43.5695L196.971 43.0852 197.649 43.7391C198.037 44.1023 198.279 44.4898 198.182 44.6352 198.109 44.7562 197.48 45.1195 196.802 45.4344 195.518 46.0398 194.404 46.1367 193.145 45.7492Z" fill="#000000" fill-rule="nonzero" fill-opacity="1" transform="matrix(1 0 0 -1 0 248)"/><path d="M202.202 45.0711C201.524 44.6594 200.919 44.0297 200.652 43.4484 200.071 42.2617 199.902 40.0336 200.289 38.8953 201.234 36.0133 204.576 34.7781 207.482 36.207 209.25 37.1031 209.371 37.3211 208.548 38.1203L207.87 38.7742 207.046 38.2898C206.513 37.9508 205.811 37.7812 205.06 37.7812 204.091 37.7812 203.752 37.9023 203.171 38.4836 202.784 38.8711 202.469 39.4281 202.469 39.6945 202.469 40.1789 202.59 40.2031 205.98 40.2031 209.977 40.2031 209.734 40.0336 209.226 42.3828 208.741 44.6594 207.264 45.7734 204.697 45.7734 203.559 45.7734 203.074 45.6281 202.202 45.0711ZM205.714 43.7391C206.247 43.5211 206.61 43.1578 206.78 42.6492L207.046 41.8984 204.745 41.8984C203.51 41.8984 202.469 41.9469 202.469 42.0195 202.469 42.5281 203.195 43.4727 203.801 43.7391 204.721 44.1508 204.745 44.1508 205.714 43.7391Z" fill="#000000" fill-rule="nonzero" fill-opacity="1" transform="matrix(1 0 0 -1 0 248)"/></g></g></svg>