<?xml version="1.0" standalone="no"?>
<!DOCTYPE svg PUBLIC "-//W3C//DTD SVG 20010904//EN"
 "http://www.w3.org/TR/2001/REC-SVG-20010904/DTD/svg10.dtd">
<svg version="1.0" xmlns="http://www.w3.org/2000/svg"
 width="1024.000000pt" height="1024.000000pt" viewBox="0 0 1024.000000 1024.000000"
 preserveAspectRatio="xMidYMid meet">

<g transform="translate(0.000000,1024.000000) scale(0.100000,-0.100000)"
fill="#000000" stroke="none">
<path d="M580 9380 c0 -18 7 -20 76 -20 42 0 74 -3 72 -7 -2 -5 -17 -35 -34
-68 -34 -65 -64 -155 -64 -193 0 -19 5 -23 23 -20 18 2 23 11 29 53 8 64 31
126 68 187 17 26 30 57 30 68 0 19 -7 20 -100 20 -93 0 -100 -1 -100 -20z"/>
<path d="M867 9389 c-49 -28 -74 -169 -43 -243 31 -75 116 -100 175 -50 66 56
69 220 4 280 -20 18 -37 24 -72 24 -25 0 -54 -5 -64 -11z m112 -50 c39 -42 39
-154 -1 -204 -27 -35 -73 -31 -102 8 -28 38 -30 149 -3 190 22 35 76 38 106 6z"/>
<path d="M1157 9389 c-49 -28 -74 -169 -43 -243 31 -75 116 -100 175 -50 66
56 69 213 5 278 -21 21 -36 26 -73 26 -25 0 -54 -5 -64 -11z m125 -73 c21 -49
16 -140 -8 -173 -27 -37 -74 -42 -102 -13 -36 38 -43 133 -14 190 30 59 98 57
124 -4z"/>
<path d="M1451 9384 c-34 -24 -51 -74 -51 -150 0 -110 41 -164 125 -164 63 0
115 74 115 163 0 56 -22 117 -52 142 -35 30 -101 34 -137 9z m122 -56 c29 -39
29 -147 0 -186 -35 -46 -92 -42 -119 10 -23 43 -16 158 11 188 27 30 81 24
108 -12z"/>
<path d="M1870 6000 c0 -2900 2 -3270 15 -3270 12 0 15 13 15 60 l0 60 595 0
595 0 0 -60 c0 -33 4 -60 10 -60 6 0 10 27 10 60 l0 60 620 0 620 0 0 -60 c0
-42 4 -60 13 -60 9 0 12 17 12 58 l0 57 640 0 640 0 3 -57 c2 -32 7 -58 12
-58 5 0 10 26 12 58 l3 57 643 3 642 2 0 -60 c0 -47 3 -60 15 -60 12 0 15 13
15 60 l0 60 635 0 635 0 0 -60 c0 -47 3 -60 15 -60 12 0 15 13 15 60 l0 60
635 0 635 0 0 -60 c0 -47 3 -60 15 -60 12 0 15 13 15 60 l0 61 132 -2 c89 -1
133 2 136 10 3 8 -1065 11 -3982 11 l-3986 0 0 3200 c0 2838 -2 3200 -15 3200
-13 0 -15 -370 -15 -3270z"/>
<path d="M6585 9156 c-16 -8 -44 -29 -62 -47 -32 -34 -123 -185 -123 -204 0
-5 19 24 41 65 77 141 132 190 214 190 203 0 318 -406 470 -1655 12 -102 13
-108 9 -35 -8 126 -61 535 -100 775 -94 574 -189 852 -308 909 -41 19 -100 20
-141 2z"/>
<path d="M6591 9033 c-31 -38 -116 -191 -109 -198 2 -2 23 34 47 80 24 47 59
100 76 120 18 19 29 35 25 35 -5 0 -22 -17 -39 -37z"/>
<path d="M6681 9043 c18 -16 49 -63 71 -108 22 -44 36 -69 32 -55 -22 79 -94
190 -124 190 -6 0 3 -12 21 -27z"/>
<path d="M6382 8865 c-17 -37 -14 -45 4 -12 9 16 14 31 11 33 -2 2 -9 -7 -15
-21z"/>
<path d="M6790 8843 c0 -16 49 -158 50 -145 0 17 -40 152 -46 152 -2 0 -4 -3
-4 -7z"/>
<path d="M6332 8743 c-62 -163 -85 -234 -78 -240 3 -3 6 -1 6 5 0 7 25 78 55
159 30 81 53 148 51 150 -2 3 -17 -31 -34 -74z"/>
<path d="M6442 8748 c-31 -76 -48 -127 -40 -118 9 9 78 183 74 187 -2 2 -17
-29 -34 -69z"/>
<path d="M6842 8670 c0 -8 4 -26 8 -40 6 -20 8 -21 8 -5 0 11 -3 29 -8 40 -5
12 -8 14 -8 5z"/>
<path d="M6341 8468 c-28 -84 -51 -158 -50 -163 0 -6 25 62 55 149 29 88 52
161 50 163 -2 3 -27 -65 -55 -149z"/>
<path d="M6860 8594 c1 -21 58 -278 59 -262 1 20 -49 261 -55 267 -2 2 -4 0
-4 -5z"/>
<path d="M6206 8369 c-21 -66 -36 -122 -34 -124 2 -2 21 50 41 117 21 66 36
122 34 124 -2 2 -21 -50 -41 -117z"/>
<path d="M6921 8302 c-1 -7 12 -99 28 -205 26 -167 39 -268 80 -602 5 -38 9
-56 10 -40 3 83 -113 916 -118 847z"/>
<path d="M6280 8287 c0 -4 -14 -54 -31 -113 -17 -58 -29 -108 -26 -110 2 -2
18 46 36 107 18 61 30 114 27 117 -4 3 -6 2 -6 -1z"/>
<path d="M6151 8189 c-7 -22 -11 -43 -8 -45 2 -2 9 14 16 37 7 22 11 43 8 45
-2 2 -9 -14 -16 -37z"/>
<path d="M645 8190 c-31 -12 -64 -53 -75 -91 -24 -84 -3 -196 42 -220 30 -16
95 -13 123 5 30 20 45 54 45 102 0 75 -96 122 -159 78 -23 -16 -23 -16 -16 7
24 78 64 105 109 75 22 -14 25 -14 37 1 11 13 10 18 -10 34 -24 20 -62 24 -96
9z m79 -172 c23 -32 20 -65 -10 -94 -43 -44 -104 -15 -104 50 0 40 26 66 66
66 23 0 38 -7 48 -22z"/>
<path d="M901 8187 c-46 -23 -65 -62 -69 -140 -6 -120 36 -183 120 -181 53 2
93 41 108 106 13 54 6 127 -16 170 -26 50 -93 71 -143 45z m74 -33 c42 -16 63
-136 36 -202 -27 -64 -100 -61 -128 5 -22 55 -14 145 17 178 24 25 44 30 75
19z"/>
<path d="M1174 8181 c-64 -40 -84 -182 -37 -263 27 -46 86 -65 137 -44 64 27
94 137 65 237 -24 77 -102 110 -165 70z m100 -44 c42 -42 46 -160 7 -209 -24
-29 -78 -29 -102 0 -9 12 -20 44 -24 71 -16 119 55 202 119 138z"/>
<path d="M1471 8187 c-48 -24 -66 -62 -69 -145 -4 -95 15 -138 71 -165 33 -17
42 -17 80 -5 55 17 87 75 87 158 -1 125 -83 202 -169 157z m86 -42 c42 -29 54
-147 23 -206 -15 -28 -54 -41 -85 -29 -38 14 -59 72 -52 143 8 91 58 131 114
92z"/>
<path d="M6130 8126 c0 -12 -130 -473 -201 -715 -38 -129 -68 -235 -66 -238 2
-2 34 97 70 219 106 358 208 730 203 736 -4 3 -6 2 -6 -2z"/>
<path d="M6146 7809 c-37 -132 -66 -243 -64 -245 3 -2 35 105 72 237 37 133
66 243 63 245 -2 2 -34 -104 -71 -237z"/>
<path d="M6066 7524 c-4 -14 -5 -28 -3 -31 3 -2 8 8 11 23 4 14 5 28 3 31 -3
2 -8 -8 -11 -23z"/>
<path d="M6025 7384 c-119 -420 -355 -1098 -506 -1458 -149 -352 -393 -805
-552 -1026 -158 -220 -348 -427 -519 -565 -188 -151 -455 -306 -676 -390 -39
-16 -70 -30 -68 -32 5 -6 144 51 260 106 209 99 400 227 588 395 414 368 782
981 1107 1842 155 410 414 1205 398 1220 -2 3 -17 -39 -32 -92z"/>
<path d="M7043 7375 c0 -27 2 -38 4 -22 2 15 2 37 0 50 -2 12 -4 0 -4 -28z"/>
<path d="M7142 7345 c0 -22 5 -94 12 -160 8 -66 14 -100 14 -75 0 25 -5 97
-12 160 -8 63 -14 97 -14 75z"/>
<path d="M7053 7280 c-1 -25 3 -72 7 -105 6 -54 7 -56 7 -15 1 25 -3 72 -7
105 -6 54 -7 56 -7 15z"/>
<path d="M5806 7014 c-26 -80 -46 -147 -44 -149 2 -2 25 61 52 141 26 80 46
147 44 149 -2 2 -25 -61 -52 -141z"/>
<path d="M7073 7065 c0 -27 3 -81 7 -120 7 -68 7 -69 7 -15 0 30 -3 84 -7 120
-7 61 -7 62 -7 15z"/>
<path d="M7173 7010 c0 -30 3 -84 7 -120 7 -61 7 -62 7 -15 0 28 -3 82 -7 120
-7 68 -7 69 -7 15z"/>
<path d="M902 6985 c-43 -19 -71 -81 -72 -158 0 -103 46 -167 121 -167 78 0
128 83 116 194 -7 72 -31 114 -72 132 -42 17 -51 17 -93 -1z m93 -49 c26 -26
41 -96 31 -150 -22 -118 -137 -109 -153 12 -8 58 4 110 32 138 30 30 59 30 90
0z"/>
<path d="M1182 6985 c-86 -37 -99 -234 -20 -300 27 -23 39 -26 75 -22 24 2 52
12 63 22 33 30 53 99 47 163 -6 76 -30 120 -72 138 -42 17 -51 17 -93 -1z m92
-48 c66 -66 31 -237 -48 -237 -74 0 -104 173 -41 236 30 30 59 30 89 1z"/>
<path d="M1470 6982 c-48 -24 -70 -71 -70 -154 0 -80 20 -128 62 -153 36 -21
100 -16 128 10 34 30 53 99 47 163 -6 76 -30 120 -72 138 -44 18 -53 18 -95
-4z m95 -46 c50 -50 40 -193 -16 -225 -58 -33 -109 20 -109 113 0 110 67 170
125 112z"/>
<path d="M585 6909 c-6 -63 -4 -83 6 -90 7 -4 18 -4 24 0 30 24 99 17 117 -12
15 -23 8 -64 -15 -85 -29 -28 -57 -28 -92 0 -20 15 -32 19 -43 12 -23 -15 -19
-27 18 -51 58 -40 143 -23 168 32 21 46 15 103 -13 131 -23 23 -33 25 -80 22
-54 -3 -55 -2 -55 24 0 53 7 58 81 58 62 0 69 2 69 20 0 19 -7 20 -89 20 l-89
0 -7 -81z"/>
<path d="M7097 6743 c6 -71 12 -150 12 -177 1 -27 4 -46 7 -43 8 8 -17 347
-25 347 -3 0 -1 -57 6 -127z"/>
<path d="M210 6800 c-25 -25 -27 -95 -3 -122 15 -17 15 -18 0 -18 -10 0 -17
-8 -17 -20 0 -20 5 -21 113 -18 104 3 112 4 112 23 0 18 -8 20 -85 25 -78 5
-85 7 -99 31 -13 24 -13 29 2 53 17 25 22 26 102 26 78 0 85 2 85 20 0 19 -7
20 -95 20 -82 0 -98 -3 -115 -20z"/>
<path d="M5725 6768 c-62 -191 -291 -794 -326 -860 -6 -11 -9 -22 -6 -24 10
-10 166 386 292 739 37 103 65 190 62 193 -2 3 -12 -19 -22 -48z"/>
<path d="M7193 6765 c0 -33 2 -45 4 -27 2 18 2 45 0 60 -2 15 -4 0 -4 -33z"/>
<path d="M7201 6665 c0 -22 8 -155 18 -295 11 -140 28 -370 38 -510 10 -140
19 -243 21 -228 2 15 -9 193 -23 395 -36 500 -52 686 -54 638z"/>
<path d="M219 6541 c-24 -24 -29 -38 -29 -76 0 -57 12 -80 50 -100 75 -39 164
0 177 77 12 79 -35 128 -122 128 -38 0 -52 -5 -76 -29z m139 -27 c22 -15 30
-66 14 -90 -11 -18 -49 -34 -77 -34 -31 0 -75 41 -75 70 0 55 87 90 138 54z"/>
<path d="M7123 6450 c0 -36 2 -50 4 -32 2 17 2 47 0 65 -2 17 -4 3 -4 -33z"/>
<path d="M7133 6320 c0 -36 2 -50 4 -32 2 17 2 47 0 65 -2 17 -4 3 -4 -33z"/>
<path d="M110 6295 c-11 -13 -11 -19 3 -33 20 -19 41 -5 35 24 -4 24 -22 28
-38 9z"/>
<path d="M190 6280 c0 -19 7 -20 115 -20 108 0 115 1 115 20 0 19 -7 20 -115
20 -108 0 -115 -1 -115 -20z"/>
<path d="M7143 6185 c0 -38 2 -53 4 -32 2 20 2 52 0 70 -2 17 -4 1 -4 -38z"/>
<path d="M190 6175 c0 -34 -1 -35 -40 -35 -33 0 -40 -3 -40 -20 0 -17 7 -20
40 -20 33 0 40 -3 40 -20 0 -13 7 -20 19 -20 14 0 18 5 14 20 -5 19 0 20 79
20 98 0 118 12 118 73 0 32 -3 37 -24 37 -19 0 -23 -4 -19 -20 10 -37 -14 -50
-89 -50 l-70 0 4 35 c3 29 1 35 -14 35 -14 0 -18 -8 -18 -35z"/>
<path d="M2240 6055 l0 -136 82 3 c54 2 83 7 86 16 3 9 -15 12 -67 12 l-71 0
0 48 0 49 42 -1 c33 -1 43 3 46 17 3 14 -4 17 -42 17 l-46 0 0 41 0 41 65 -4
c57 -3 65 -1 65 15 0 15 -10 17 -80 17 l-80 0 0 -135z"/>
<path d="M2770 6170 c0 -13 7 -20 20 -20 13 0 20 7 20 20 0 13 -7 20 -20 20
-13 0 -20 -7 -20 -20z"/>
<path d="M3855 6140 c2 -47 -6 -63 -20 -40 -3 6 -23 10 -44 10 -49 0 -73 -26
-78 -87 -4 -38 -1 -54 16 -74 27 -35 66 -44 97 -24 13 8 24 11 24 5 0 -5 9
-10 20 -10 19 0 20 7 20 135 0 125 -1 135 -18 135 -16 0 -19 -7 -17 -50z m-15
-79 c23 -45 -2 -121 -40 -121 -20 0 -60 49 -60 72 0 58 75 95 100 49z"/>
<path d="M2640 6135 c0 -18 -5 -25 -20 -25 -11 0 -20 -7 -20 -15 0 -8 9 -15
20 -15 18 0 20 -7 20 -69 0 -88 22 -115 74 -95 9 3 16 13 16 21 0 10 -6 13
-16 9 -30 -11 -44 13 -44 75 l0 59 35 0 c24 0 35 5 35 15 0 10 -11 15 -35 15
-31 0 -35 3 -35 25 0 16 -6 25 -15 25 -9 0 -15 -9 -15 -25z"/>
<path d="M3390 6135 c0 -16 -6 -25 -15 -25 -8 0 -15 -7 -15 -15 0 -8 7 -15 15
-15 12 0 15 -14 15 -65 0 -74 23 -112 63 -101 12 3 26 6 30 6 5 0 7 6 4 13 -2
6 -15 12 -28 12 -22 0 -24 4 -29 63 -3 35 -3 65 -1 68 2 2 17 4 32 4 15 0 29
7 33 15 4 12 -3 15 -35 15 -37 0 -39 1 -33 25 5 21 3 25 -15 25 -16 0 -21 -6
-21 -25z"/>
<path d="M2492 6112 c-12 -2 -30 -14 -38 -28 -15 -21 -15 -26 -1 -47 8 -13 33
-29 56 -36 29 -8 41 -17 41 -31 0 -27 -36 -35 -67 -15 -30 20 -55 6 -34 -19
19 -22 67 -29 98 -14 23 11 28 20 28 48 0 32 -4 37 -47 58 -69 33 -59 75 12
50 35 -12 48 -5 31 16 -13 16 -45 23 -79 18z"/>
<path d="M2770 6015 c0 -88 1 -95 20 -95 19 0 20 7 20 95 0 88 -1 95 -20 95
-19 0 -20 -7 -20 -95z"/>
<path d="M2860 6015 c0 -88 2 -95 20 -95 17 0 19 8 22 78 l3 77 35 0 35 0 3
-77 c2 -66 6 -78 20 -78 14 0 16 8 14 52 -2 29 1 66 7 81 9 24 16 28 43 25
l33 -3 3 -77 c3 -70 5 -78 22 -78 18 0 20 7 20 68 0 92 -14 116 -68 120 -24 2
-49 -2 -57 -8 -9 -8 -15 -8 -20 0 -9 14 -78 13 -93 -2 -9 -9 -12 -9 -12 0 0 7
-7 12 -15 12 -12 0 -15 -17 -15 -95z"/>
<path d="M3200 6095 c-16 -19 -3 -40 15 -25 23 19 77 8 86 -17 7 -21 6 -22
-21 -16 -85 17 -139 -77 -67 -117 25 -14 30 -13 57 2 17 9 30 13 30 8 0 -6 8
-10 18 -10 16 0 18 9 16 79 0 49 -6 86 -14 95 -17 21 -103 22 -120 1z m99 -99
c9 -11 6 -18 -15 -35 -31 -24 -52 -24 -67 1 -24 36 54 69 82 34z"/>
<path d="M3541 6085 c-29 -37 -35 -77 -17 -119 19 -46 56 -62 108 -46 41 12
55 27 41 41 -6 6 -21 4 -40 -8 -29 -16 -32 -16 -57 0 -14 10 -26 26 -26 37 0
18 7 20 65 20 l65 0 0 30 c0 67 -96 98 -139 45z m97 -17 c26 -26 13 -38 -38
-38 -34 0 -50 4 -50 13 0 21 22 37 50 37 14 0 31 -5 38 -12z"/>
<path d="M7153 6050 c0 -36 2 -50 4 -32 2 17 2 47 0 65 -2 17 -4 3 -4 -33z"/>
<path d="M210 6022 c-18 -14 -22 -28 -22 -76 0 -40 4 -62 16 -74 24 -25 39 -4
24 36 -16 40 -1 86 28 90 19 3 22 -3 26 -57 5 -69 26 -101 69 -101 56 0 87 80
55 142 -10 18 -11 27 -3 25 6 -1 13 6 15 16 3 15 -6 17 -91 17 -76 0 -99 -4
-117 -18z m159 -36 c16 -20 17 -72 1 -91 -30 -36 -60 0 -60 71 0 29 3 34 24
34 13 0 29 -6 35 -14z"/>
<path d="M7163 5920 c-1 -30 2 -95 6 -145 8 -89 8 -89 8 -20 0 39 -3 104 -7
145 -6 68 -7 70 -7 20z"/>
<path d="M5360 5818 c-39 -93 -210 -429 -272 -538 -310 -539 -689 -924 -1125
-1143 -186 -94 -496 -205 -756 -272 -59 -16 -105 -30 -103 -32 14 -14 477 129
658 203 604 245 1046 682 1430 1414 68 129 200 411 195 416 -2 3 -14 -19 -27
-48z"/>
<path d="M110 5774 l0 -24 156 0 155 0 -3 23 c-3 22 -5 22 -155 23 l-153 1 0
-23z"/>
<path d="M687 5758 c-57 -76 -117 -178 -117 -200 0 -22 2 -23 70 -20 l70 4 0
-41 c0 -34 3 -41 20 -41 17 0 20 7 20 40 0 33 3 40 17 38 10 -2 19 4 21 15 2
12 -3 17 -17 17 -19 0 -21 7 -23 107 -3 91 -6 108 -20 111 -9 2 -27 -11 -41
-30z m23 -113 l0 -75 -50 0 c-27 0 -50 2 -50 5 0 7 92 145 96 145 2 0 4 -34 4
-75z"/>
<path d="M883 5766 c-68 -57 -71 -222 -6 -282 29 -26 97 -33 135 -13 49 26 75
168 44 243 -31 74 -116 100 -173 52z m110 -31 c40 -40 47 -157 13 -209 -19
-30 -75 -36 -100 -11 -41 41 -44 160 -5 209 23 30 69 35 92 11z"/>
<path d="M1160 5762 c-65 -65 -67 -213 -4 -276 21 -20 37 -26 71 -26 24 0 53
5 65 11 49 26 75 168 44 243 -32 77 -122 102 -176 48z m119 -31 c37 -37 41
-154 7 -206 -21 -31 -74 -35 -100 -6 -40 44 -40 168 -1 211 23 25 69 26 94 1z"/>
<path d="M1455 5768 c-38 -29 -55 -76 -55 -149 0 -67 20 -121 54 -144 11 -8
41 -15 67 -15 41 0 51 4 77 35 58 65 53 212 -8 268 -38 34 -95 37 -135 5z
m114 -44 c39 -49 36 -168 -5 -209 -25 -25 -81 -19 -100 10 -19 30 -29 100 -20
148 14 73 84 103 125 51z"/>
<path d="M3153 5754 c-8 -21 13 -42 28 -27 13 13 5 43 -11 43 -6 0 -13 -7 -17
-16z"/>
<path d="M3660 5630 c0 -118 2 -140 15 -140 8 0 15 5 15 12 0 9 3 9 12 0 19
-19 65 -14 93 11 20 17 28 35 33 77 5 39 11 55 22 55 12 0 16 -17 18 -77 2
-60 6 -78 17 -78 12 0 15 18 15 90 0 100 -8 113 -60 93 -20 -7 -32 -7 -45 3
-22 17 -59 18 -86 4 -18 -10 -19 -7 -19 40 0 38 -4 50 -15 50 -13 0 -15 -22
-15 -140z m121 9 c37 -37 12 -119 -37 -119 -34 0 -54 26 -54 70 0 29 6 43 22
54 30 21 44 20 69 -5z"/>
<path d="M3960 5630 c0 -118 2 -140 15 -140 13 0 15 22 15 140 0 118 -2 140
-15 140 -13 0 -15 -22 -15 -140z"/>
<path d="M2820 5715 c0 -18 -5 -25 -20 -25 -13 0 -20 -7 -20 -19 0 -14 5 -18
20 -14 19 5 20 0 20 -70 0 -83 10 -101 57 -95 39 4 45 38 6 35 -28 -2 -28 -2
-31 66 l-3 67 33 -2 c24 -2 33 1 36 15 3 14 -4 17 -32 17 -32 0 -36 3 -36 25
0 16 -6 25 -15 25 -9 0 -15 -9 -15 -25z"/>
<path d="M190 5676 c0 -24 1 -25 68 -20 81 6 115 -8 120 -49 6 -48 -11 -57
-104 -57 -84 0 -84 0 -84 -26 l0 -26 96 4 c86 4 99 7 115 27 23 28 25 79 3
109 -14 20 -14 22 0 22 9 0 16 9 16 20 0 19 -7 20 -115 20 l-115 0 0 -24z"/>
<path d="M2249 5671 c-20 -16 -22 -23 -14 -47 8 -21 22 -33 55 -45 31 -12 45
-22 45 -35 0 -25 -50 -31 -74 -9 -16 13 -20 14 -30 1 -10 -11 -7 -17 11 -30
49 -35 128 -10 128 40 0 30 -12 41 -64 64 -46 19 -48 22 -33 38 15 14 22 15
49 4 40 -15 64 1 34 24 -28 20 -79 18 -107 -5z"/>
<path d="M2420 5610 c0 -67 3 -83 20 -100 22 -22 70 -26 88 -8 10 10 15 10 22
-2 20 -32 31 6 28 96 -3 75 -6 89 -20 92 -16 3 -18 -5 -18 -70 0 -79 -9 -98
-47 -98 -31 0 -43 28 -43 104 0 52 -3 66 -15 66 -12 0 -15 -16 -15 -80z"/>
<path d="M2646 5671 c-30 -33 -17 -63 37 -89 70 -33 55 -81 -17 -54 -39 15
-56 0 -25 -22 46 -32 129 -8 129 37 0 24 -30 55 -59 62 -33 7 -56 29 -46 45 8
13 41 13 64 1 9 -5 23 -6 30 -2 10 6 7 12 -10 25 -32 22 -82 20 -103 -3z"/>
<path d="M2973 5680 c-13 -5 -23 -14 -23 -19 0 -16 21 -24 33 -12 16 16 53 14
71 -5 26 -25 19 -34 -29 -34 -32 0 -51 -6 -65 -20 -55 -55 12 -126 83 -89 16
9 22 9 25 0 2 -6 10 -11 18 -11 11 0 14 18 14 80 0 67 -3 83 -20 100 -21 21
-68 25 -107 10z m82 -104 c19 -14 19 -15 1 -35 -23 -25 -58 -27 -77 -5 -11 14
-10 19 10 35 28 23 41 24 66 5z"/>
<path d="M3150 5589 c0 -90 2 -100 18 -97 14 3 17 17 20 101 3 92 2 97 -18 97
-19 0 -20 -6 -20 -101z"/>
<path d="M3240 5590 c0 -82 3 -100 15 -100 12 0 15 14 15 65 0 52 4 69 20 85
46 46 80 10 80 -83 0 -53 3 -67 15 -67 12 0 15 16 15 80 0 67 -3 83 -20 100
-22 22 -60 26 -91 10 -13 -7 -19 -7 -19 0 0 5 -7 10 -15 10 -12 0 -15 -18 -15
-100z"/>
<path d="M3472 5678 c-12 -6 -21 -16 -19 -22 4 -11 12 -11 61 0 22 5 32 2 43
-11 21 -30 16 -35 -32 -35 -72 0 -105 -47 -69 -98 17 -24 61 -30 95 -12 13 7
19 7 19 0 0 -5 7 -10 15 -10 12 0 15 16 15 80 0 67 -3 83 -20 100 -22 22 -71
26 -108 8z m84 -98 c19 0 18 -19 -3 -42 -20 -22 -56 -23 -74 -2 -11 14 -10 19
10 36 14 10 31 16 38 13 8 -3 21 -5 29 -5z"/>
<path d="M4073 5675 c-27 -19 -44 -76 -36 -116 12 -62 95 -90 144 -50 18 14
21 23 13 31 -8 8 -14 7 -24 -5 -17 -21 -63 -19 -83 3 -31 34 -21 42 48 42 l65
0 0 30 c0 63 -75 101 -127 65z m85 -27 c26 -26 13 -38 -38 -38 -52 0 -60 8
-34 34 18 19 55 21 72 4z"/>
<path d="M7182 5625 c0 -33 6 -130 13 -215 6 -85 12 -128 13 -95 0 33 -6 130
-13 215 -6 85 -12 128 -13 95z"/>
<path d="M7281 5567 c-1 -38 46 -745 53 -802 2 -16 2 29 -1 100 -6 163 -50
754 -52 702z"/>
<path d="M219 5421 c-33 -34 -40 -91 -13 -129 14 -20 14 -22 0 -22 -9 0 -16
-7 -16 -15 0 -13 24 -15 155 -15 148 0 155 1 155 20 0 18 -7 20 -56 20 -55 0
-55 0 -40 22 26 36 20 85 -13 119 -26 25 -37 29 -86 29 -49 0 -60 -4 -86 -29z
m139 -27 c15 -10 22 -25 22 -49 0 -64 -86 -89 -135 -40 -30 29 -31 45 -4 79
24 31 81 36 117 10z"/>
<path d="M3100 5210 c0 -118 2 -140 15 -140 13 0 15 22 15 140 0 118 -2 140
-15 140 -13 0 -15 -22 -15 -140z"/>
<path d="M3523 5334 c-8 -21 13 -42 28 -27 13 13 5 43 -11 43 -6 0 -13 -7 -17
-16z"/>
<path d="M3390 5285 c0 -18 -5 -25 -20 -25 -11 0 -20 -5 -20 -11 0 -6 9 -13
20 -16 17 -5 20 -14 20 -65 0 -33 5 -68 10 -79 16 -30 95 -23 83 7 -3 9 -13
12 -25 8 -28 -8 -38 11 -38 74 l0 52 35 0 c24 0 35 5 35 15 0 11 -11 15 -36
15 -33 0 -36 2 -32 25 4 19 1 25 -13 25 -14 0 -19 -7 -19 -25z"/>
<path d="M2240 5140 c0 -109 2 -130 15 -130 11 0 15 11 15 42 0 33 3 39 12 30
13 -13 56 -16 83 -6 22 9 45 57 45 94 0 72 -52 114 -113 91 -17 -7 -28 -7 -32
-1 -18 30 -25 -2 -25 -120z m121 79 c17 -17 20 -29 16 -56 -8 -46 -23 -63 -58
-63 -49 0 -69 80 -29 120 26 26 45 25 71 -1z"/>
<path d="M2493 5260 c-54 -23 -67 -118 -22 -166 31 -33 91 -33 124 1 31 30 35
110 8 144 -20 24 -77 35 -110 21z m75 -36 c16 -11 22 -25 22 -51 0 -45 -24
-73 -62 -73 -24 0 -32 6 -43 34 -15 37 -12 59 13 89 19 21 41 22 70 1z"/>
<path d="M2717 5255 c-15 -8 -25 -10 -22 -5 4 6 -3 10 -14 10 -20 0 -21 -5
-21 -125 0 -120 1 -125 21 -125 19 0 21 5 17 40 -3 38 4 51 17 30 3 -5 21 -10
40 -10 87 0 119 152 38 189 -31 14 -42 14 -76 -4z m74 -36 c17 -17 20 -29 16
-56 -8 -46 -23 -63 -58 -63 -33 0 -49 23 -49 74 0 25 6 39 22 50 30 21 44 20
69 -5z"/>
<path d="M3203 5258 c-13 -6 -23 -15 -23 -19 0 -15 20 -20 41 -9 28 16 65 5
72 -20 5 -18 0 -20 -39 -20 -72 0 -111 -62 -66 -103 22 -20 72 -22 91 -4 11
10 14 10 18 0 3 -7 11 -13 19 -13 11 0 14 17 14 75 0 67 -3 79 -25 100 -26 27
-64 31 -102 13z m93 -110 c10 -16 -28 -48 -56 -48 -28 0 -46 22 -34 42 15 24
76 29 90 6z"/>
<path d="M3526 5263 c-3 -4 -6 -48 -6 -100 0 -86 1 -93 20 -93 19 0 20 7 20
94 0 71 -3 95 -14 99 -8 3 -17 3 -20 0z"/>
<path d="M3629 5241 c-39 -40 -41 -109 -4 -146 59 -60 155 -12 155 77 0 51
-43 98 -90 98 -22 0 -41 -9 -61 -29z m96 -15 c14 -10 20 -26 20 -54 0 -48 -18
-72 -56 -72 -53 0 -79 80 -39 120 23 23 49 25 75 6z"/>
<path d="M3820 5170 c0 -82 3 -100 15 -100 12 0 15 14 15 63 0 68 18 107 49
107 35 0 51 -32 51 -103 0 -53 3 -67 15 -67 12 0 15 15 15 79 0 74 -2 81 -26
100 -29 23 -64 27 -81 10 -8 -8 -17 -8 -32 0 -21 12 -21 10 -21 -89z"/>
<path d="M2880 5195 c0 -35 5 -76 12 -90 14 -31 51 -42 90 -27 16 6 28 6 28 1
0 -5 7 -9 15 -9 12 0 15 17 15 95 0 78 -3 95 -15 95 -12 0 -15 -14 -15 -64 0
-82 -23 -110 -74 -90 -13 5 -16 22 -16 80 0 67 -2 74 -20 74 -18 0 -20 -7 -20
-65z"/>
<path d="M7213 5185 c-1 -33 2 -98 6 -145 7 -76 8 -78 8 -25 1 33 -2 98 -6
145 -7 76 -8 78 -8 25z"/>
<path d="M242 5177 c-42 -24 -56 -58 -53 -125 1 -13 14 -37 30 -53 24 -24 38
-29 76 -29 25 0 59 7 74 15 57 29 66 124 17 173 -29 30 -108 40 -144 19z m101
-38 c30 -16 37 -28 37 -66 0 -60 -88 -87 -137 -41 -63 59 21 148 100 107z"/>
<path d="M8350 5156 c0 -1 -2 -63 -3 -139 -2 -125 0 -137 16 -137 15 0 17 13
17 138 0 117 -2 139 -15 139 -8 0 -15 -1 -15 -1z"/>
<path d="M7891 5134 c-29 -21 -51 -72 -51 -119 0 -81 45 -135 113 -135 70 0
99 26 122 108 12 41 -5 101 -37 132 -24 25 -38 30 -77 30 -27 0 -56 -7 -70
-16z m119 -32 c23 -19 37 -84 26 -127 -16 -64 -86 -86 -131 -40 -21 20 -25 34
-25 80 0 46 4 60 25 80 29 30 73 33 105 7z"/>
<path d="M8768 5062 c-75 -114 -75 -122 2 -122 l60 0 0 -30 c0 -20 5 -30 15
-30 10 0 15 10 15 30 0 20 5 30 15 30 8 0 15 7 15 15 0 8 -7 15 -15 15 -12 0
-15 17 -15 90 0 120 -15 120 -92 2z m62 -32 l0 -60 -40 0 c-22 0 -40 2 -40 5
0 7 72 115 76 115 2 0 4 -27 4 -60z"/>
<path d="M8942 5129 c-22 -20 -22 -39 0 -39 6 0 19 7 29 16 23 21 65 11 74
-16 10 -31 -3 -57 -40 -80 -47 -29 -85 -77 -85 -106 0 -24 2 -24 85 -24 69 0
85 3 85 15 0 12 -14 15 -65 15 -39 0 -65 4 -65 10 0 12 30 41 80 79 17 13 36
34 40 47 11 29 -5 81 -30 94 -31 17 -85 12 -108 -11z"/>
<path d="M8183 5065 c-13 -9 -23 -11 -23 -6 0 6 -7 11 -15 11 -12 0 -15 -17
-15 -95 0 -84 2 -95 18 -95 15 0 17 8 14 59 -4 74 9 101 48 101 38 0 50 -23
50 -99 0 -48 3 -61 15 -61 23 0 21 140 -2 168 -25 29 -63 36 -90 17z"/>
<path d="M8450 4985 l40 -86 -19 -39 c-19 -39 -19 -40 0 -40 11 0 25 13 35 31
26 52 85 211 80 216 -11 11 -34 -6 -39 -29 -4 -13 -14 -42 -23 -63 l-16 -39
-27 65 c-20 48 -32 65 -48 67 -21 3 -20 -1 17 -83z"/>
<path d="M7231 4910 c-2 -83 61 -868 67 -837 2 10 -6 134 -18 275 -11 141 -27
336 -34 432 -7 96 -14 155 -15 130z"/>
<path d="M143 4916 c-25 -22 -28 -31 -31 -105 l-4 -81 156 0 c149 0 156 1 156
20 0 18 -7 20 -65 20 l-65 0 0 56 c0 48 -4 59 -29 85 -37 36 -79 38 -118 5z
m96 -39 c6 -8 12 -35 14 -60 l4 -47 -53 0 -54 0 0 48 c0 26 5 53 12 60 16 16
63 15 77 -1z"/>
<path d="M8700 4711 c0 -15 6 -21 21 -21 14 0 19 5 17 17 -5 26 -38 29 -38 4z"/>
<path d="M7343 4655 c0 -38 2 -53 4 -32 2 20 2 52 0 70 -2 17 -4 1 -4 -38z"/>
<path d="M7850 4549 c0 -86 2 -100 16 -97 12 2 16 18 17 69 2 73 16 99 53 99
15 0 24 6 24 15 0 18 -41 20 -59 3 -11 -10 -14 -10 -18 0 -3 6 -11 12 -19 12
-11 0 -14 -20 -14 -101z"/>
<path d="M8001 4626 c-15 -15 -25 -42 -28 -70 -5 -40 -2 -48 25 -76 18 -18 41
-30 57 -30 29 0 85 26 85 40 0 18 -20 21 -42 6 -12 -9 -30 -16 -39 -16 -17 0
-59 44 -59 61 0 5 32 9 70 9 67 0 70 1 70 24 0 13 -9 35 -21 50 -28 35 -86 36
-118 2z m99 -25 c15 -30 14 -31 -40 -31 -34 0 -50 4 -50 13 0 38 71 52 90 18z"/>
<path d="M8180 4555 c0 -78 3 -95 15 -95 12 0 15 13 15 61 0 71 12 99 43 99
38 0 47 -19 47 -95 0 -57 3 -72 15 -72 12 0 15 15 15 72 0 75 9 95 45 95 36 0
45 -20 45 -97 0 -58 3 -73 15 -73 24 0 21 161 -3 183 -21 19 -64 22 -94 6 -14
-8 -23 -8 -31 0 -15 15 -70 14 -85 -1 -9 -9 -12 -9 -12 0 0 7 -7 12 -15 12
-12 0 -15 -17 -15 -95z"/>
<path d="M8518 4637 c-11 -9 -14 -18 -8 -27 7 -12 12 -12 22 -2 26 26 88 8 88
-26 0 -10 -7 -12 -24 -8 -35 9 -86 -13 -96 -40 -23 -58 36 -103 91 -71 24 13
28 13 33 0 13 -34 26 4 26 76 0 63 -4 81 -18 94 -22 20 -90 22 -114 4z m91
-96 c31 -19 -27 -72 -63 -58 -19 8 -21 53 -3 60 20 9 51 7 66 -2z"/>
<path d="M8700 4556 c0 -72 3 -95 14 -99 12 -5 15 12 18 94 3 89 1 99 -14 99
-16 0 -18 -11 -18 -94z"/>
<path d="M8790 4550 c0 -82 3 -100 15 -100 12 0 15 14 15 66 0 81 11 104 51
104 36 0 49 -27 49 -105 0 -38 4 -54 15 -59 13 -4 15 8 15 74 0 67 -3 83 -20
100 -22 22 -79 27 -98 8 -9 -9 -12 -9 -12 0 0 7 -7 12 -15 12 -12 0 -15 -18
-15 -100z"/>
<path d="M608 4551 c-31 -27 -31 -29 -11 -39 17 -9 24 -8 38 8 20 22 46 25 76
10 40 -22 10 -90 -39 -90 -15 0 -22 -6 -22 -20 0 -15 7 -20 25 -20 29 0 65
-32 65 -58 0 -26 -31 -52 -62 -52 -14 0 -38 10 -52 21 -24 19 -29 20 -42 7
-24 -23 23 -60 85 -66 46 -4 53 -2 81 26 38 38 40 79 5 120 -24 29 -24 29 -5
47 13 11 20 31 20 52 0 79 -97 112 -162 54z"/>
<path d="M881 4554 c-74 -62 -63 -257 16 -293 62 -29 132 0 159 65 18 43 18
135 0 178 -31 75 -116 100 -175 50z m117 -37 c41 -43 41 -168 1 -208 -28 -28
-73 -25 -98 7 -39 50 -37 159 5 205 23 26 66 24 92 -4z"/>
<path d="M1161 4554 c-74 -62 -63 -257 16 -293 31 -14 76 -14 107 1 56 25 86
162 52 242 -31 75 -116 100 -175 50z m118 -40 c39 -50 39 -166 0 -205 -23 -23
-72 -25 -93 -4 -42 42 -44 159 -5 209 27 35 71 35 98 0z"/>
<path d="M1455 4558 c-38 -29 -55 -76 -55 -148 0 -108 38 -160 116 -160 97 0
150 112 114 242 -22 79 -114 114 -175 66z m118 -49 c28 -38 33 -109 12 -164
-18 -49 -43 -63 -91 -51 -62 16 -75 174 -19 230 25 25 74 17 98 -15z"/>
<path d="M7357 4470 c3 -63 11 -162 18 -220 14 -103 14 -104 8 -20 -3 47 -12
146 -19 220 l-13 135 6 -115z"/>
<path d="M7395 4070 c9 -133 28 -311 32 -306 3 3 -3 85 -12 183 -17 182 -29
257 -20 123z"/>
<path d="M7303 4005 c0 -27 2 -38 4 -22 2 15 2 37 0 50 -2 12 -4 0 -4 -28z"/>
<path d="M7316 3875 c3 -44 14 -143 25 -220 42 -295 92 -432 177 -486 25 -16
57 -29 71 -28 28 1 23 4 -21 13 -40 9 -96 62 -125 119 -45 90 -75 238 -122
607 l-10 75 5 -80z"/>
<path d="M3530 3860 c-80 -27 -140 -49 -133 -49 15 -1 293 88 293 94 0 8 -6 6
-160 -45z"/>
<path d="M3040 3820 c-20 -6 -21 -8 -5 -8 11 0 29 3 40 8 25 11 -1 11 -35 0z"/>
<path d="M2751 3752 c-128 -31 -229 -58 -224 -59 11 -4 473 104 481 112 10 9
-23 3 -257 -53z"/>
<path d="M3262 3782 c-51 -14 -90 -27 -88 -29 4 -5 198 46 205 53 9 8 -27 1
-117 -24z"/>
<path d="M2951 3702 c-101 -25 -179 -48 -174 -49 11 -4 374 85 382 93 9 9 -29
1 -208 -44z"/>
<path d="M7436 3690 c7 -89 40 -249 65 -315 23 -63 73 -121 112 -130 18 -5 41
0 70 14 24 12 57 21 73 21 48 -1 112 -36 135 -75 25 -41 36 -47 15 -7 -19 36
-44 58 -89 77 -49 20 -85 19 -132 -5 -47 -24 -57 -25 -95 -5 -60 31 -102 144
-140 370 -12 75 -18 95 -14 55z"/>
<path d="M2488 3683 c7 -3 16 -2 19 1 4 3 -2 6 -13 5 -11 0 -14 -3 -6 -6z"/>
<path d="M2223 3627 c-117 -28 -211 -53 -208 -55 4 -4 447 97 454 104 11 10
-50 -2 -246 -49z"/>
<path d="M2393 3567 c-183 -44 -331 -83 -328 -85 4 -4 687 157 694 164 12 11
-62 -5 -366 -79z"/>
<path d="M1940 3560 c-20 -6 -21 -8 -5 -8 11 0 31 4 45 8 20 6 21 8 5 8 -11 0
-31 -4 -45 -8z"/>
<path d="M2005 3475 c-5 -2 -30 -9 -54 -15 -23 -6 -41 -13 -39 -15 2 -2 35 4
73 15 39 10 61 18 50 18 -11 0 -24 -1 -30 -3z"/>
<path d="M1451 3344 c-55 -46 -69 -165 -28 -244 17 -36 30 -48 63 -59 37 -13
44 -12 80 5 52 25 74 71 74 151 0 78 -23 139 -61 158 -44 23 -93 19 -128 -11z
m109 -24 c57 -30 51 -208 -8 -239 -31 -17 -51 -13 -76 12 -43 43 -46 159 -4
212 20 26 55 32 88 15z"/>
<path d="M7721 3236 c-25 -14 -50 -51 -51 -76 0 -8 8 1 18 20 9 19 27 39 40
45 12 5 22 13 22 17 0 10 0 10 -29 -6z"/>
<path d="M7760 3245 c0 -3 16 -11 35 -19 23 -10 41 -27 50 -48 8 -18 14 -26
15 -17 0 25 -37 66 -70 77 -16 6 -30 9 -30 7z"/>
<path d="M8893 3163 l967 -3 0 -40 0 -40 -902 -3 -903 -2 908 -3 907 -2 0 50
0 50 -972 -2 -973 -3 968 -2z"/>
<path d="M7670 3124 c0 -36 46 -69 97 -69 37 0 49 5 69 28 13 15 24 36 24 45
0 9 -8 1 -18 -18 -32 -65 -129 -63 -158 4 -10 24 -13 27 -14 10z"/>
<path d="M7621 3113 c-1 -31 44 -80 85 -93 20 -7 59 -10 87 -7 42 4 56 10 83
40 32 34 35 36 91 32 l58 -4 -58 9 c-59 9 -59 9 -91 -25 -37 -39 -69 -49 -133
-42 -56 6 -94 33 -110 78 -9 25 -12 28 -12 12z"/>
<path d="M1694 2490 c-33 -13 -54 -50 -54 -93 0 -70 72 -111 128 -71 26 18 28
7 8 -41 -18 -42 -57 -56 -85 -31 -16 15 -19 15 -31 1 -11 -13 -10 -18 6 -30
22 -17 77 -19 105 -5 25 14 45 55 53 110 16 116 -47 194 -130 160z m74 -42
c22 -22 15 -76 -13 -94 -23 -15 -27 -15 -50 0 -18 12 -25 25 -25 49 0 40 15
57 50 57 14 0 31 -5 38 -12z"/>
<path d="M2931 2486 c-48 -26 -63 -84 -36 -135 21 -41 72 -54 116 -31 22 12
24 4 9 -34 -14 -38 -53 -53 -84 -33 -20 14 -26 14 -36 3 -15 -19 23 -46 66
-46 49 0 81 32 95 94 17 77 5 139 -32 171 -34 28 -62 31 -98 11z m83 -42 c27
-27 15 -73 -25 -94 -29 -16 -69 11 -69 47 0 53 59 83 94 47z"/>
<path d="M3363 2480 c-18 -11 -33 -24 -33 -29 0 -17 33 -21 50 -6 9 8 25 15
36 15 49 0 61 -67 18 -97 -66 -45 -95 -79 -101 -115 l-6 -38 87 0 c79 0 86 2
86 20 0 18 -7 20 -65 20 -36 0 -65 4 -65 9 0 5 16 22 36 38 81 65 94 80 94
115 -1 37 -14 59 -47 76 -31 17 -53 15 -90 -8z"/>
<path d="M4188 2485 c-30 -17 -53 -73 -43 -107 18 -58 76 -84 126 -58 16 9 19
7 19 -8 0 -26 -37 -72 -59 -72 -9 0 -27 7 -39 16 -20 14 -23 14 -29 -2 -9 -23
22 -44 67 -44 63 0 100 58 100 156 0 109 -63 161 -142 119z m93 -49 c25 -54
-22 -112 -70 -87 -51 28 -29 111 29 111 22 0 33 -6 41 -24z"/>
<path d="M4443 2490 c-72 -29 -96 -198 -37 -257 33 -33 96 -32 129 2 32 32 35
105 5 135 -29 29 -69 36 -102 17 -34 -20 -37 -6 -8 41 15 24 27 32 48 32 15 0
33 -5 38 -10 8 -8 15 -6 23 4 10 11 8 17 -11 30 -25 18 -51 19 -85 6z m72
-154 c31 -47 -7 -105 -61 -92 -40 10 -51 65 -21 104 17 21 65 14 82 -12z"/>
<path d="M4660 2487 c-73 -36 -82 -229 -12 -266 32 -17 87 -13 115 9 58 46 55
195 -5 245 -33 28 -60 31 -98 12z m85 -47 c38 -42 27 -167 -17 -191 -30 -16
-64 -3 -78 31 -15 36 -9 142 9 164 18 22 64 20 86 -4z"/>
<path d="M5504 2490 c-57 -23 -73 -112 -29 -155 29 -29 79 -33 107 -8 22 20
23 5 4 -42 -18 -42 -57 -56 -85 -31 -17 15 -19 15 -32 0 -11 -14 -11 -18 6
-30 22 -16 78 -18 106 -4 33 18 49 64 49 144 0 63 -3 79 -22 100 -25 29 -72
40 -104 26z m74 -42 c21 -21 15 -76 -12 -93 -40 -27 -76 -3 -76 51 0 37 16 54
50 54 14 0 31 -5 38 -12z"/>
<path d="M5738 2482 c-44 -26 -61 -73 -56 -154 3 -62 7 -73 31 -94 62 -53 157
-9 157 71 0 27 -8 44 -29 66 -33 32 -65 37 -99 13 -31 -21 -33 -16 -15 29 17
42 53 58 86 38 16 -10 21 -10 28 1 13 20 11 24 -16 36 -35 16 -55 15 -87 -6z
m82 -141 c24 -46 -1 -101 -46 -101 -25 0 -54 34 -54 64 0 49 78 78 100 37z"/>
<path d="M5960 2487 c-35 -17 -60 -73 -60 -134 0 -92 34 -143 96 -143 72 0
104 42 104 140 0 115 -62 176 -140 137z m84 -49 c35 -56 26 -166 -15 -189 -29
-15 -64 -4 -77 26 -17 38 -15 136 4 163 21 30 69 30 88 0z"/>
<path d="M6814 2490 c-33 -13 -54 -50 -54 -93 0 -71 72 -111 129 -71 23 16 23
16 16 -7 -19 -70 -59 -97 -94 -65 -17 15 -19 15 -32 0 -11 -14 -11 -18 6 -30
22 -17 78 -18 107 -3 30 16 48 71 48 149 0 66 -2 74 -29 101 -30 29 -58 35
-97 19z m74 -42 c21 -21 15 -75 -10 -92 -28 -20 -43 -20 -62 0 -19 18 -21 75
-4 92 7 7 24 12 38 12 14 0 31 -5 38 -12z"/>
<path d="M7044 2481 c-39 -24 -54 -65 -54 -147 0 -53 4 -67 26 -93 54 -65 164
-22 164 64 0 27 -8 44 -29 66 -33 32 -65 37 -99 13 -30 -21 -32 -17 -18 26 13
41 55 62 85 43 14 -9 21 -9 30 0 16 16 14 23 -14 35 -36 17 -55 15 -91 -7z
m80 -137 c35 -34 6 -104 -43 -104 -24 0 -51 31 -51 58 0 52 59 81 94 46z"/>
<path d="M7265 2488 c-48 -26 -59 -74 -25 -108 l21 -21 -23 -18 c-31 -26 -31
-87 1 -112 27 -22 97 -25 123 -5 40 30 39 93 0 122 -16 12 -16 14 0 26 9 7 20
25 23 40 6 22 1 33 -23 58 -32 31 -63 37 -97 18z m78 -42 c11 -17 4 -48 -15
-59 -26 -17 -68 7 -68 37 0 41 59 57 83 22z m-3 -126 c24 -24 25 -38 3 -62
-20 -22 -56 -23 -77 -2 -21 20 -20 43 1 66 21 24 48 23 73 -2z"/>
<path d="M8108 2485 c-30 -17 -53 -73 -43 -107 18 -58 76 -84 127 -57 19 10
20 9 14 -17 -15 -59 -52 -78 -93 -49 -18 12 -23 13 -32 1 -17 -20 23 -46 69
-46 63 0 100 58 100 155 0 66 -15 102 -51 121 -35 17 -57 17 -91 -1z m92 -44
c5 -11 10 -29 10 -40 0 -24 -33 -61 -55 -61 -22 0 -55 37 -55 62 0 51 77 81
100 39z"/>
<path d="M8555 2491 c-63 -26 -95 -144 -61 -226 17 -40 42 -55 91 -55 52 0 85
36 85 93 0 74 -64 117 -123 83 l-29 -16 7 27 c3 16 14 36 22 46 18 19 63 23
79 7 8 -8 15 -6 23 4 10 11 8 17 -11 30 -24 17 -52 19 -83 7z m65 -146 c19
-23 15 -64 -9 -88 -46 -46 -114 21 -77 77 19 30 66 36 86 11z"/>
<path d="M9404 2490 c-87 -35 -61 -190 29 -178 18 3 40 8 49 12 15 7 16 4 8
-26 -16 -54 -57 -73 -90 -43 -15 14 -19 14 -31 -1 -11 -14 -11 -18 6 -30 22
-16 78 -18 106 -4 27 15 46 58 50 110 5 87 0 110 -30 141 -30 29 -58 35 -97
19z m74 -42 c21 -21 15 -75 -10 -92 -28 -20 -43 -20 -62 0 -19 18 -21 75 -4
92 7 7 24 12 38 12 14 0 31 -5 38 -12z"/>
<path d="M9634 2490 c-24 -9 -54 -47 -54 -66 0 -7 12 -26 26 -43 14 -17 21
-31 16 -31 -21 0 -42 -32 -42 -65 0 -44 38 -75 92 -75 75 0 114 75 64 125 -23
23 -23 24 -5 41 24 21 24 65 2 93 -21 24 -68 35 -99 21z m60 -33 c37 -27 -2
-96 -41 -71 -35 22 -40 44 -14 65 28 23 32 23 55 6z m8 -134 c36 -33 13 -83
-38 -83 -21 0 -54 28 -54 47 0 18 37 53 57 53 9 0 25 -7 35 -17z"/>
<path d="M1523 2467 c-39 -27 -44 -51 -8 -45 l25 5 0 -108 c0 -102 1 -109 20
-109 19 0 20 7 20 140 0 153 -1 155 -57 117z"/>
<path d="M1924 2404 c-78 -121 -78 -124 2 -124 l64 0 0 -35 c0 -24 5 -35 15
-35 10 0 15 11 15 35 0 28 4 35 20 35 11 0 20 7 20 15 0 8 -9 15 -20 15 -19 0
-20 7 -20 90 0 84 -1 90 -20 90 -15 0 -36 -25 -76 -86z m66 -34 l0 -60 -45 0
-44 0 37 60 c20 32 40 59 45 60 4 0 7 -27 7 -60z"/>
<path d="M2187 2458 c-46 -61 -97 -147 -97 -163 0 -12 13 -15 60 -15 l60 0 0
-35 c0 -28 4 -35 20 -35 16 0 20 7 20 35 0 24 5 35 15 35 8 0 15 7 15 15 0 8
-7 15 -15 15 -12 0 -15 17 -15 90 0 83 -2 90 -19 90 -11 0 -31 -15 -44 -32z
m23 -88 l0 -60 -40 0 c-22 0 -40 2 -40 5 0 7 72 115 76 115 2 0 4 -27 4 -60z"/>
<path d="M2763 2467 c-42 -29 -44 -52 -3 -43 l30 6 0 -110 c0 -91 3 -110 15
-110 13 0 15 22 15 140 0 153 -1 155 -57 117z"/>
<path d="M3126 2419 c-9 -82 0 -96 44 -71 23 13 33 14 54 4 21 -9 26 -19 26
-46 0 -62 -45 -84 -93 -46 -22 18 -26 18 -38 4 -20 -24 24 -53 79 -54 60 0 92
32 92 94 0 61 -35 90 -98 83 -35 -4 -42 -2 -38 10 3 8 6 26 6 39 0 23 3 24 60
24 47 0 60 3 60 15 0 12 -15 15 -74 15 l-73 0 -7 -71z"/>
<path d="M4023 2467 c-42 -29 -44 -52 -3 -43 l30 6 0 -110 c0 -91 3 -110 15
-110 13 0 15 22 15 140 0 153 -1 155 -57 117z"/>
<path d="M5333 2467 c-39 -27 -44 -51 -8 -45 l25 5 0 -108 c0 -102 1 -109 20
-109 19 0 20 7 20 140 0 153 -1 155 -57 117z"/>
<path d="M6643 2467 c-39 -27 -44 -51 -8 -45 l25 5 0 -108 c0 -102 1 -109 20
-109 19 0 20 7 20 140 0 153 -1 155 -57 117z"/>
<path d="M7943 2467 c-42 -29 -44 -52 -3 -43 l30 6 0 -110 c0 -91 3 -110 15
-110 13 0 15 22 15 140 0 153 -1 155 -57 117z"/>
<path d="M8280 2473 c0 -16 9 -18 70 -15 l71 4 -35 -64 c-29 -54 -66 -154 -66
-180 0 -4 9 -8 20 -8 13 0 21 9 26 28 14 66 38 130 65 175 45 74 43 77 -61 77
-79 0 -90 -2 -90 -17z"/>
<path d="M9233 2467 c-39 -27 -44 -51 -8 -45 l25 5 0 -108 c0 -102 1 -109 20
-109 19 0 20 7 20 140 0 153 -1 155 -57 117z"/>
<path d="M9858 2402 c-75 -114 -75 -122 2 -122 l60 0 0 -35 c0 -27 4 -35 18
-35 15 0 18 6 14 31 -4 24 0 31 17 36 27 7 27 33 0 33 -19 0 -20 5 -17 90 3
84 2 90 -17 90 -14 0 -37 -27 -77 -88z m62 -32 l0 -60 -40 0 c-22 0 -40 2 -40
5 0 7 72 115 76 115 2 0 4 -27 4 -60z"/>
<path d="M5301 1798 c7 -13 32 -53 56 -91 40 -63 43 -72 43 -137 0 -68 1 -70
25 -70 24 0 25 2 25 73 0 65 4 79 31 123 18 27 42 66 56 87 l23 37 -27 0 c-24
0 -35 -11 -69 -67 l-41 -66 -39 66 c-33 57 -43 67 -67 67 -26 0 -27 -2 -16
-22z"/>
<path d="M5589 1725 c-47 -26 -71 -102 -50 -158 26 -67 110 -89 180 -46 31 19
32 22 18 36 -14 15 -18 15 -41 0 -34 -23 -72 -21 -96 3 -40 40 -27 50 60 50
l80 0 0 36 c0 73 -82 117 -151 79z m95 -47 c9 -12 16 -26 16 -30 0 -5 -27 -8
-60 -8 -64 0 -72 8 -40 40 27 27 65 26 84 -2z"/>
<path d="M5824 1730 c-30 -12 -38 -28 -24 -45 11 -13 15 -13 33 0 28 19 62 19
81 -1 27 -26 20 -44 -13 -38 -37 8 -98 -12 -111 -36 -16 -30 -12 -68 10 -90
25 -25 86 -27 112 -3 17 15 18 15 18 0 0 -11 8 -17 25 -17 25 0 25 1 25 85 0
89 -15 137 -45 149 -23 8 -86 6 -111 -4z m90 -126 c23 -9 19 -31 -8 -50 -32
-20 -70 -15 -74 10 -7 33 41 56 82 40z"/>
<path d="M6040 1620 l0 -120 25 0 c25 0 25 1 25 78 0 87 14 112 62 112 22 0
25 4 20 25 -5 29 -35 33 -70 9 -20 -14 -22 -14 -22 0 0 9 -9 16 -20 16 -19 0
-20 -7 -20 -120z"/>
</g>
</svg>
