<?xml version="1.0" standalone="no"?>
<!DOCTYPE svg PUBLIC "-//W3C//DTD SVG 20010904//EN"
 "http://www.w3.org/TR/2001/REC-SVG-20010904/DTD/svg10.dtd">
<svg version="1.0" xmlns="http://www.w3.org/2000/svg"
 width="1024.000000pt" height="1536.000000pt" viewBox="0 0 1024.000000 1536.000000"
 preserveAspectRatio="xMidYMid meet">

<g transform="translate(0.000000,1536.000000) scale(0.100000,-0.100000)"
fill="#000000" stroke="none">
<path d="M4894 14607 c-22 -19 -28 -34 -32 -80 -4 -55 -5 -57 -33 -57 -26 0
-29 -4 -29 -30 0 -27 3 -30 30 -30 l30 0 0 -140 0 -140 40 0 39 0 3 138 3 137
38 0 c35 0 37 2 37 33 0 31 -2 32 -40 32 -36 0 -40 2 -40 26 0 38 18 64 44 64
30 0 33 4 28 40 -4 28 -7 30 -48 30 -31 0 -51 -7 -70 -23z"/>
<path d="M7348 14594 c-17 -36 0 -59 42 -59 42 0 59 23 42 59 -9 20 -19 26
-42 26 -23 0 -33 -6 -42 -26z"/>
<path d="M8132 14608 c-16 -16 -15 -53 2 -67 20 -17 67 -10 79 11 18 27 -7 68
-41 68 -15 0 -33 -5 -40 -12z"/>
<path d="M890 14371 l0 -241 45 0 45 0 0 85 0 85 48 0 c69 0 119 17 160 55 35
32 37 37 37 97 0 115 -48 148 -222 156 l-113 5 0 -242z m208 153 c29 -8 52
-51 45 -87 -8 -40 -39 -57 -105 -57 l-58 0 0 75 0 75 48 0 c26 0 57 -3 70 -6z"/>
<path d="M5311 14588 c-81 -40 -126 -131 -119 -243 8 -130 77 -206 194 -213
84 -6 141 21 184 86 l31 47 -43 18 c-34 14 -44 15 -47 5 -2 -7 -19 -28 -37
-45 -58 -59 -147 -37 -180 43 -34 82 -3 200 60 231 48 23 110 5 134 -38 15
-27 21 -29 52 -24 48 9 54 18 37 51 -49 94 -168 131 -266 82z"/>
<path d="M5770 14594 c-74 -32 -119 -101 -127 -195 -8 -79 11 -149 54 -198 48
-56 80 -71 156 -71 85 0 143 35 181 111 49 99 28 249 -45 316 -56 51 -150 67
-219 37z m148 -90 c33 -21 52 -73 52 -139 0 -93 -48 -155 -121 -155 -96 0
-150 135 -99 248 31 68 104 88 168 46z"/>
<path d="M2990 14520 c0 -38 -2 -40 -30 -40 -28 0 -30 -3 -30 -35 0 -32 2 -35
30 -35 l30 0 0 -109 c0 -101 2 -112 23 -137 19 -22 34 -28 80 -32 l57 -4 0 39
c0 37 -2 40 -23 36 -44 -9 -57 19 -57 118 l0 89 40 0 c39 0 40 1 40 35 0 34
-1 35 -40 35 l-40 0 0 40 0 40 -40 0 -40 0 0 -40z"/>
<path d="M1329 14457 c-19 -12 -44 -42 -57 -67 -20 -38 -23 -55 -18 -105 7
-66 25 -98 76 -132 61 -42 177 -24 215 34 21 32 14 49 -25 57 -27 5 -36 2 -52
-19 -38 -48 -128 -18 -128 43 0 21 3 22 115 22 l115 0 0 33 c0 49 -39 118 -80
139 -49 25 -119 24 -161 -5z m125 -58 c14 -11 26 -28 26 -37 0 -15 -10 -17
-70 -14 -38 2 -70 6 -70 8 0 16 24 46 43 54 33 13 42 12 71 -11z"/>
<path d="M1627 14473 c-4 -3 -7 -82 -7 -175 l0 -168 45 0 45 0 0 113 c0 136
10 157 71 157 l39 0 0 41 0 42 -41 -6 c-22 -3 -49 -13 -60 -23 -18 -16 -19
-16 -19 4 0 18 -6 22 -33 22 -19 0 -37 -3 -40 -7z"/>
<path d="M1950 14469 c-42 -17 -70 -50 -85 -102 -32 -109 17 -214 110 -234 77
-17 147 9 183 69 19 32 12 43 -34 52 -26 6 -32 3 -42 -18 -13 -28 -49 -41 -87
-32 -49 12 -71 105 -40 165 26 51 74 55 116 10 24 -26 33 -29 64 -23 41 7 41
9 15 52 -39 63 -127 90 -200 61z"/>
<path d="M2302 14463 c-54 -26 -76 -68 -80 -148 -4 -82 15 -126 69 -163 29
-21 43 -23 103 -20 64 4 70 6 102 41 19 20 34 41 34 46 0 6 -16 15 -36 20 -33
9 -39 8 -56 -14 -37 -48 -119 -25 -134 38 l-6 27 122 0 123 0 -7 42 c-19 121
-130 183 -234 131z m131 -75 c9 -11 17 -24 17 -28 0 -10 -52 -20 -101 -20 -31
0 -39 4 -39 18 0 20 24 45 50 55 23 8 53 -2 73 -25z"/>
<path d="M2590 14305 l0 -175 40 0 40 0 0 93 c0 140 20 187 78 187 41 0 51
-29 54 -158 l3 -122 43 0 42 0 0 125 c0 143 -12 185 -59 209 -42 22 -103 20
-134 -4 -25 -20 -25 -20 -30 0 -4 15 -14 20 -41 20 l-36 0 0 -175z"/>
<path d="M3284 14461 c-37 -23 -64 -58 -64 -83 0 -30 67 -24 92 7 25 32 71 34
92 3 21 -29 10 -37 -61 -48 -33 -4 -74 -15 -90 -24 -60 -30 -69 -124 -16 -166
36 -28 120 -28 157 1 l26 20 0 -20 c0 -18 6 -21 40 -21 l40 0 0 120 c0 177
-24 221 -128 227 -44 3 -64 0 -88 -16z m136 -181 c0 -6 -6 -26 -14 -44 -10
-25 -22 -35 -46 -39 -38 -8 -70 7 -70 32 0 26 25 44 73 52 23 3 45 7 50 8 4 0
7 -4 7 -9z"/>
<path d="M3633 14464 c-48 -24 -75 -74 -80 -147 -8 -117 57 -193 160 -184 26
2 56 12 67 22 19 18 20 17 20 -9 0 -63 -94 -102 -135 -56 -24 27 -95 29 -95 2
0 -73 145 -119 237 -75 67 31 73 54 73 271 l0 192 -36 0 c-28 0 -37 -5 -41
-20 -5 -20 -7 -20 -24 -4 -27 24 -106 29 -146 8z m138 -83 c60 -61 27 -181
-51 -181 -54 0 -88 50 -81 120 9 83 78 114 132 61z"/>
<path d="M4022 14460 c-87 -54 -107 -207 -35 -284 32 -35 62 -46 124 -46 56 0
100 19 123 52 24 33 20 46 -16 56 -28 8 -36 6 -56 -14 -23 -24 -74 -32 -98
-16 -15 10 -34 47 -34 66 0 14 17 16 115 16 l115 0 0 33 c0 49 -39 118 -80
139 -46 24 -116 23 -158 -2z m111 -51 c26 -14 37 -28 37 -50 0 -14 -12 -17
-71 -17 -58 0 -69 3 -65 15 3 8 6 19 6 23 0 9 48 39 63 40 5 0 18 -5 30 -11z"/>
<path d="M4532 14463 c-55 -27 -77 -67 -80 -153 -2 -62 1 -81 17 -108 32 -50
76 -72 145 -72 110 0 161 56 161 177 0 80 -15 110 -75 151 -40 27 -119 30
-168 5z m137 -79 c32 -40 29 -126 -4 -159 -31 -31 -66 -32 -102 -1 -24 21 -27
31 -27 81 0 50 3 60 27 81 38 32 80 31 106 -2z"/>
<path d="M6525 14470 c-28 -11 -72 -60 -84 -93 -29 -76 2 -190 61 -227 27 -17
46 -20 102 -18 64 4 70 6 102 41 19 20 34 41 34 46 0 6 -16 15 -36 20 -33 9
-39 8 -56 -14 -25 -32 -79 -34 -108 -5 -11 11 -20 24 -20 29 0 5 -3 16 -6 25
-5 14 9 16 116 16 l123 0 -7 47 c-7 52 -43 106 -86 128 -31 16 -102 19 -135 5z
m110 -75 c42 -41 33 -50 -45 -50 -59 0 -70 3 -70 17 0 21 46 58 72 58 10 0 30
-11 43 -25z"/>
<path d="M6800 14305 l0 -175 40 0 40 0 0 104 c0 103 10 153 33 168 21 13 46
9 67 -12 18 -18 20 -33 20 -140 l0 -120 45 0 45 0 0 118 c0 90 4 123 16 140
17 25 51 29 80 8 17 -13 19 -29 22 -140 l4 -126 39 0 39 0 0 125 c0 86 -4 136
-14 160 -28 66 -128 87 -185 40 l-30 -26 -25 26 c-32 32 -92 34 -130 4 l-26
-20 0 20 c0 18 -6 21 -40 21 l-40 0 0 -175z"/>
<path d="M7357 14473 c-4 -3 -7 -82 -7 -175 l0 -168 40 0 40 0 0 175 0 175
-33 0 c-19 0 -37 -3 -40 -7z"/>
<path d="M7548 14465 c-36 -20 -48 -44 -48 -94 0 -50 23 -76 82 -91 79 -20 98
-31 98 -55 0 -42 -68 -49 -98 -10 -16 20 -25 23 -56 18 -46 -7 -46 -25 -2 -69
32 -32 37 -34 106 -34 69 0 74 2 106 34 38 38 43 70 19 115 -15 29 -37 41
-120 63 -43 12 -50 17 -50 38 0 38 46 50 85 22 34 -26 90 -30 90 -7 0 8 -13
29 -29 47 -25 29 -35 32 -92 35 -44 2 -72 -1 -91 -12z"/>
<path d="M7874 14470 c-33 -13 -64 -59 -64 -96 0 -50 34 -82 109 -102 70 -19
93 -40 72 -66 -21 -25 -68 -20 -96 10 -20 21 -29 24 -59 18 -41 -7 -41 -6 -21
-44 25 -48 78 -67 173 -62 50 3 92 49 92 102 0 51 -30 84 -91 99 -24 6 -55 17
-69 24 -34 17 -32 49 2 61 23 8 33 6 58 -12 17 -13 44 -22 65 -22 l35 0 -13
33 c-8 19 -27 39 -48 49 -36 19 -109 23 -145 8z"/>
<path d="M8130 14303 l0 -173 40 0 40 0 0 173 0 173 -40 0 -40 0 0 -173z"/>
<path d="M8350 14462 c-66 -33 -100 -120 -80 -206 18 -79 77 -127 158 -128 83
0 141 44 163 125 32 119 -45 227 -161 227 -25 0 -61 -8 -80 -18z m135 -84 c24
-28 27 -38 23 -87 -6 -62 -31 -91 -78 -91 -42 0 -70 29 -77 77 -7 52 2 88 27
113 31 31 73 26 105 -12z"/>
<path d="M8650 14305 l0 -175 39 0 38 0 5 113 c3 62 10 123 17 134 23 44 94
42 111 -3 6 -14 10 -75 10 -135 l0 -109 40 0 40 0 0 129 c0 71 -4 141 -10 155
-23 60 -131 87 -184 45 l-26 -20 0 20 c0 18 -6 21 -40 21 l-40 0 0 -175z"/>
<path d="M9063 14461 c-38 -24 -53 -49 -53 -90 0 -47 36 -80 109 -99 70 -19
93 -40 72 -66 -21 -25 -76 -20 -99 9 -16 20 -25 23 -56 18 -32 -5 -36 -9 -30
-27 18 -59 73 -82 182 -77 50 2 92 48 92 101 0 51 -29 84 -91 100 -24 7 -55
16 -69 20 -31 8 -38 39 -14 57 25 19 51 16 74 -7 24 -24 90 -28 90 -5 0 8 -13
29 -29 47 -24 27 -36 32 -87 35 -46 3 -66 0 -91 -16z"/>
<path d="M6109 14291 c-35 -35 -37 -48 -6 -53 14 -3 29 5 43 20 17 21 23 23
42 13 34 -18 27 -35 -38 -91 -42 -37 -60 -59 -60 -76 0 -24 2 -24 90 -24 l90
0 0 26 c0 26 -1 26 -56 22 l-57 -5 52 48 c40 37 51 54 51 78 0 72 -94 98 -151
42z"/>
<path d="M2237 13864 c-4 -4 -7 -115 -7 -246 l0 -238 40 0 c33 0 40 3 40 20 0
11 5 20 10 20 6 0 10 -4 10 -8 0 -14 49 -32 88 -32 111 0 178 145 122 267 -35
77 -127 106 -198 63 l-33 -20 2 87 2 88 -34 3 c-19 2 -38 0 -42 -4z m200 -219
c55 -38 50 -151 -8 -180 -16 -9 -39 -13 -49 -10 -61 19 -83 133 -35 180 28 28
61 32 92 10z"/>
<path d="M4210 13625 l0 -245 40 0 40 0 0 245 0 245 -40 0 -40 0 0 -245z"/>
<path d="M4600 13779 l0 -90 -26 20 c-35 28 -107 28 -152 1 -42 -26 -72 -90
-72 -155 0 -101 61 -175 143 -175 41 0 92 22 100 42 3 7 6 1 6 -14 1 -26 4
-28 41 -28 l40 0 0 245 0 245 -40 0 -40 0 0 -91z m-28 -149 c28 -28 30 -35 26
-81 -6 -56 -27 -85 -69 -94 -64 -14 -114 64 -89 139 23 70 82 86 132 36z"/>
<path d="M6390 13626 l0 -246 40 0 40 0 -2 243 -3 242 -37 3 -38 3 0 -245z"/>
<path d="M7140 13854 c-21 -25 -1 -68 33 -72 16 -2 35 2 43 9 17 14 18 51 2
67 -17 17 -63 15 -78 -4z"/>
<path d="M6920 13770 c0 -38 -2 -40 -30 -40 -28 0 -30 -3 -30 -35 0 -32 3 -35
29 -35 l29 0 4 -115 c3 -103 5 -117 25 -137 18 -17 35 -22 75 -23 l53 0 3 38
c3 35 1 38 -17 32 -11 -3 -29 -1 -41 5 -18 10 -20 20 -20 105 l0 95 40 0 c39
0 40 1 40 35 0 34 -1 35 -40 35 l-40 0 0 40 0 40 -40 0 -40 0 0 -40z"/>
<path d="M2580 13725 c0 -3 28 -80 61 -172 57 -155 60 -170 47 -193 -9 -17
-24 -26 -46 -28 -30 -3 -32 -6 -32 -43 l0 -39 43 0 c50 0 81 19 104 63 18 36
153 394 153 408 0 5 -17 9 -39 9 -43 0 -45 -4 -93 -157 -12 -40 -24 -73 -27
-73 -4 0 -22 51 -41 113 l-36 112 -47 3 c-26 2 -47 1 -47 -3z"/>
<path d="M3070 13718 c0 -7 12 -49 25 -93 14 -44 37 -117 51 -162 l25 -83 39
0 c43 0 35 -15 86 169 l17 64 22 -79 c12 -43 26 -95 31 -114 9 -32 13 -35 51
-38 l42 -3 20 68 c11 37 34 113 51 168 16 55 30 103 30 108 0 4 -17 7 -39 7
l-39 0 -31 -112 c-17 -61 -32 -113 -34 -115 -2 -2 -14 34 -26 79 -41 152 -38
148 -76 148 -33 0 -35 -1 -54 -67 -11 -38 -26 -93 -32 -123 l-12 -55 -29 123
-30 122 -44 0 c-29 0 -44 -4 -44 -12z"/>
<path d="M3652 13710 c-69 -42 -93 -167 -49 -250 54 -102 201 -109 273 -14 26
33 29 45 29 110 0 81 -15 111 -75 152 -44 30 -131 31 -178 2z m135 -65 c53
-37 47 -156 -9 -183 -61 -29 -111 15 -112 98 -1 81 63 126 121 85z"/>
<path d="M3960 13555 l0 -175 39 0 39 0 4 114 c3 105 5 117 27 140 17 18 35
26 58 26 31 0 33 2 33 35 0 34 -1 35 -37 35 -24 0 -45 -8 -60 -22 l-23 -21 0
21 c0 19 -6 22 -40 22 l-40 0 0 -175z"/>
<path d="M4900 13490 l0 -240 40 0 40 0 0 86 0 85 26 -20 c58 -46 165 -16 199
54 39 83 10 220 -54 258 -41 24 -112 22 -145 -4 l-26 -20 0 20 c0 18 -6 21
-40 21 l-40 0 0 -240z m206 147 c20 -18 28 -35 32 -75 4 -47 2 -54 -26 -82
-37 -36 -62 -38 -99 -6 -25 22 -28 31 -28 86 0 53 3 65 24 81 31 25 64 24 97
-4z"/>
<path d="M5339 13707 c-19 -12 -45 -43 -58 -70 -20 -40 -22 -56 -16 -102 13
-105 75 -159 178 -152 37 2 67 10 85 23 89 66 86 240 -7 301 -47 32 -135 32
-182 0z m141 -67 c41 -41 39 -129 -5 -167 -29 -26 -43 -28 -78 -12 -30 14 -47
48 -47 95 0 38 22 89 42 97 29 12 69 6 88 -13z"/>
<path d="M5650 13491 l0 -241 40 0 40 0 0 86 c0 78 1 84 16 70 36 -36 130 -33
171 6 40 38 56 78 56 143 0 69 -17 110 -65 150 -29 24 -38 27 -91 23 -41 -3
-64 -10 -72 -21 -16 -22 -27 -22 -23 1 2 13 -5 18 -34 20 l-38 3 0 -240z m212
139 c28 -28 30 -35 26 -82 -4 -40 -12 -57 -32 -75 -34 -29 -58 -29 -93 1 -25
22 -28 31 -28 86 0 53 3 65 24 81 34 27 68 24 103 -11z"/>
<path d="M6020 13590 c0 -139 0 -140 28 -171 23 -26 38 -32 81 -37 43 -4 58
-1 82 17 29 21 29 21 29 1 0 -16 6 -20 35 -20 l35 0 0 175 0 175 -40 0 -40 0
0 -114 c0 -99 -3 -117 -21 -140 -25 -31 -61 -34 -89 -6 -18 18 -20 33 -20 140
l0 120 -40 0 -40 0 0 -140z"/>
<path d="M6598 13714 c-31 -16 -62 -69 -54 -90 8 -20 76 -19 76 1 0 24 44 47
75 39 21 -5 45 -36 45 -58 0 -2 -30 -7 -67 -11 -83 -9 -118 -26 -139 -66 -22
-44 -11 -91 28 -124 28 -24 39 -27 85 -23 32 3 61 12 73 23 19 18 20 18 20 -4
0 -20 5 -22 38 -19 l37 3 0 131 c0 144 -9 175 -57 200 -35 18 -125 17 -160 -2z
m142 -193 c0 -10 -9 -30 -21 -45 -16 -20 -29 -26 -60 -26 -33 0 -40 4 -45 26
-8 32 5 45 53 54 63 13 73 11 73 -9z"/>
<path d="M7140 13565 c0 -91 -1 -168 -2 -172 -2 -5 16 -9 40 -11 l42 -3 0 175
0 176 -40 0 -40 0 0 -165z"/>
<path d="M7344 13712 c-48 -31 -77 -100 -72 -173 7 -98 70 -159 163 -159 91 0
155 61 163 153 6 70 -10 115 -53 157 -32 31 -42 35 -103 38 -53 2 -73 -1 -98
-16z m148 -83 c24 -32 26 -110 4 -144 -21 -31 -69 -42 -101 -21 -50 33 -52
146 -2 181 31 22 76 15 99 -16z"/>
<path d="M7654 13717 c-2 -7 -3 -85 -2 -172 l3 -160 43 -3 42 -3 0 120 c0 108
2 123 20 141 27 27 75 26 94 -2 12 -17 16 -50 16 -140 l0 -118 41 0 40 0 -3
146 -3 146 -33 29 c-26 23 -41 29 -80 29 -27 0 -57 -7 -68 -15 -25 -19 -34
-19 -34 0 0 19 -68 21 -76 2z"/>
<path d="M2630 7325 l0 -5565 2035 0 2035 0 0 3050 0 3050 -245 0 -245 0 0
138 c0 75 5 315 10 532 30 1207 108 1804 295 2241 114 266 332 518 571 662
198 119 416 179 885 242 430 58 555 82 744 142 208 66 441 198 589 334 189
174 341 456 372 690 l7 49 -3527 0 -3526 0 0 -5565z m6989 5493 c-1 -17 -2
-19 -6 -5 -4 16 -178 17 -3464 17 l-3459 0 0 -660 0 -660 898 -3 897 -2 -902
-3 -903 -2 0 670 0 670 3470 0 3470 0 -1 -22z m-12 -60 c-3 -7 -5 -2 -5 12 0
14 2 19 5 13 2 -7 2 -19 0 -25z m-10 -40 c-3 -8 -6 -5 -6 6 -1 11 2 17 5 13 3
-3 4 -12 1 -19z m-36 -105 c-12 -20 -14 -14 -5 12 4 9 9 14 11 11 3 -2 0 -13
-6 -23z m-40 -92 c-17 -34 -33 -61 -36 -61 -3 0 10 29 27 65 18 35 34 63 36
61 2 -2 -11 -31 -27 -65z m-51 -91 c-6 -11 -13 -20 -16 -20 -2 0 0 9 6 20 6
11 13 20 16 20 2 0 0 -9 -6 -20z m-6120 -150 l0 -160 25 0 c23 0 25 -4 25 -45
0 -41 -2 -45 -25 -45 -24 0 -25 -3 -25 -55 l0 -55 -50 0 -50 0 0 55 0 55 -115
0 -115 0 0 47 c0 43 9 61 103 204 l102 158 63 0 62 1 0 -160z m366 144 c19 -9
43 -29 54 -44 43 -61 63 -216 39 -305 -34 -127 -159 -189 -276 -136 -34 16
-73 60 -73 85 0 2 20 11 45 19 43 15 45 15 55 -3 14 -27 54 -35 91 -20 31 13
46 33 59 80 l8 27 -30 -14 c-83 -42 -175 -13 -216 67 -29 57 -27 145 5 188 49
66 162 93 239 56z m329 -68 c69 -69 29 -186 -65 -186 -88 0 -129 137 -57 192
33 26 93 23 122 -6z m205 20 c0 -2 -39 -73 -86 -158 -48 -84 -103 -182 -123
-218 -29 -52 -42 -66 -64 -68 -15 -2 -27 1 -27 6 0 5 43 85 96 178 53 93 107
190 120 217 21 40 29 47 54 47 17 0 30 -2 30 -4z m5180 -10 c0 -2 -8 -10 -17
-17 -16 -13 -17 -12 -4 4 13 16 21 21 21 13z m-30 -39 c0 -2 -10 -12 -22 -23
l-23 -19 19 23 c18 21 26 27 26 19z m-40 -50 c0 -1 -26 -27 -57 -57 l-58 -55
55 58 c50 53 60 62 60 54z m-130 -121 c0 -2 -8 -10 -17 -17 -16 -13 -17 -12
-4 4 13 16 21 21 21 13z m-4937 -46 c80 -89 -29 -224 -130 -161 -22 14 -36 33
-44 61 -11 37 -10 46 6 77 38 70 116 81 168 23z m4897 16 c0 -2 -8 -10 -17
-17 -16 -13 -17 -12 -4 4 13 16 21 21 21 13z m-130 -91 c0 -2 -10 -9 -22 -15
-22 -11 -22 -10 -4 4 21 17 26 19 26 11z m-50 -30 c0 -2 -13 -11 -30 -20 -38
-19 -40 -11 -2 9 31 17 32 18 32 11z m-110 -60 c-14 -8 -29 -14 -35 -14 -5 0
1 6 15 14 14 8 30 14 35 14 6 0 -1 -6 -15 -14z m-80 -35 c-8 -5 -19 -10 -25
-10 -5 0 -3 5 5 10 8 5 20 10 25 10 6 0 3 -5 -5 -10z m-50 -20 c-8 -5 -19 -10
-25 -10 -5 0 -3 5 5 10 8 5 20 10 25 10 6 0 3 -5 -5 -10z m-43 -16 c-3 -3 -12
-4 -19 -1 -8 3 -5 6 6 6 11 1 17 -2 13 -5z m-174 -51 c-7 -2 -19 -2 -25 0 -7
3 -2 5 12 5 14 0 19 -2 13 -5z m-50 -10 c-7 -2 -19 -2 -25 0 -7 3 -2 5 12 5
14 0 19 -2 13 -5z m-46 -9 c-3 -3 -12 -4 -19 -1 -8 3 -5 6 6 6 11 1 17 -2 13
-5z m-54 -11 c-7 -2 -19 -2 -25 0 -7 3 -2 5 12 5 14 0 19 -2 13 -5z m-50 -10
c-7 -2 -21 -2 -30 0 -10 3 -4 5 12 5 17 0 24 -2 18 -5z m-60 -10 c-7 -2 -21
-2 -30 0 -10 3 -4 5 12 5 17 0 24 -2 18 -5z m-70 -10 c-7 -2 -19 -2 -25 0 -7
3 -2 5 12 5 14 0 19 -2 13 -5z m-65 -10 c-10 -2 -28 -2 -40 0 -13 2 -5 4 17 4
22 1 32 -1 23 -4z m-80 -10 c-10 -2 -26 -2 -35 0 -10 3 -2 5 17 5 19 0 27 -2
18 -5z m-65 -10 c-7 -2 -21 -2 -30 0 -10 3 -4 5 12 5 17 0 24 -2 18 -5z m-75
-10 c-10 -2 -26 -2 -35 0 -10 3 -2 5 17 5 19 0 27 -2 18 -5z m-80 -10 c-10 -2
-26 -2 -35 0 -10 3 -2 5 17 5 19 0 27 -2 18 -5z m-75 -10 c-7 -2 -21 -2 -30 0
-10 3 -4 5 12 5 17 0 24 -2 18 -5z m-60 -10 c-7 -2 -19 -2 -25 0 -7 3 -2 5 12
5 14 0 19 -2 13 -5z m-56 -9 c-3 -3 -12 -4 -19 -1 -8 3 -5 6 6 6 11 1 17 -2
13 -5z m-50 -10 c-3 -3 -12 -4 -19 -1 -8 3 -5 6 6 6 11 1 17 -2 13 -5z m-100
-20 c-3 -3 -12 -4 -19 -1 -8 3 -5 6 6 6 11 1 17 -2 13 -5z m-40 -10 c-3 -3
-12 -4 -19 -1 -8 3 -5 6 6 6 11 1 17 -2 13 -5z m-70 -20 c-3 -3 -12 -4 -19 -1
-8 3 -5 6 6 6 11 1 17 -2 13 -5z m-147 -49 c-14 -8 -29 -14 -35 -14 -5 0 1 6
15 14 14 8 30 14 35 14 6 0 -1 -6 -15 -14z m-70 -30 c-14 -8 -29 -14 -35 -14
-5 0 1 6 15 14 14 8 30 14 35 14 6 0 -1 -6 -15 -14z m-70 -30 c0 -2 -13 -11
-30 -20 -38 -19 -40 -11 -2 9 31 17 32 18 32 11z m-2557 -22 c-13 -2 -35 -2
-50 0 -16 2 -5 4 22 4 28 0 40 -2 28 -4z m70 -10 c-7 -2 -21 -2 -30 0 -10 3
-4 5 12 5 17 0 24 -2 18 -5z m44 -9 c-3 -3 -12 -4 -19 -1 -8 3 -5 6 6 6 11 1
17 -2 13 -5z m2373 2 c0 -2 -17 -15 -37 -28 -21 -12 -63 -43 -93 -67 -30 -24
-46 -34 -35 -21 17 20 152 120 162 120 1 0 3 -2 3 -4z m-2333 -12 c-3 -3 -12
-4 -19 -1 -8 3 -5 6 6 6 11 1 17 -2 13 -5z m40 -10 c-3 -3 -12 -4 -19 -1 -8 3
-5 6 6 6 11 1 17 -2 13 -5z m-287 -14 c411 -28 689 -215 895 -602 56 -106 126
-287 160 -414 15 -55 29 -107 31 -116 5 -17 -68 -18 -1435 -18 l-1441 0 0 579
0 580 828 0 c455 0 888 -4 962 -9z m425 -40 c44 -21 89 -45 100 -54 11 -8 -23
6 -75 32 -52 26 -108 53 -125 59 -23 9 -24 11 -5 7 14 -3 61 -23 105 -44z
m1965 -63 c0 -1 -26 -27 -57 -57 l-58 -55 55 58 c50 53 60 62 60 54z m-1780
-53 c0 -3 -13 4 -30 16 -16 12 -30 24 -30 26 0 3 14 -4 30 -16 17 -12 30 -24
30 -26z m135 -123 c54 -61 107 -127 120 -151 13 -24 0 -10 -49 55 -26 33 -81
96 -124 139 -42 44 -59 65 -37 46 22 -18 63 -59 90 -89z m1483 -1 c-29 -33
-54 -60 -57 -60 -5 0 22 32 68 83 55 58 48 43 -11 -23z m-58 -74 c0 -2 -8 -10
-17 -17 -16 -13 -17 -12 -4 4 13 16 21 21 21 13z m-46 -61 c-9 -14 -18 -25
-21 -25 -5 0 5 18 20 38 17 22 18 13 1 -13z m-34 -55 c-6 -11 -13 -20 -16 -20
-2 0 0 9 6 20 6 11 13 20 16 20 2 0 0 -9 -6 -20z m-1154 -76 c20 -36 35 -67
33 -69 -2 -2 -21 28 -42 66 -20 38 -35 69 -33 69 3 0 22 -29 42 -66z m1102
-19 c-18 -35 -34 -63 -36 -61 -4 5 56 126 63 126 3 0 -10 -29 -27 -65z m-57
-122 c-12 -20 -14 -14 -5 12 4 9 9 14 11 11 3 -2 0 -13 -6 -23z m-962 -38 c0
-5 -6 1 -14 15 -8 14 -14 30 -14 35 0 6 6 -1 14 -15 8 -14 14 -29 14 -35z
m942 -12 c-12 -20 -14 -14 -5 12 4 9 9 14 11 11 3 -2 0 -13 -6 -23z m-921 -38
c0 -5 -5 -3 -10 5 -5 8 -10 20 -10 25 0 6 5 3 10 -5 5 -8 10 -19 10 -25z m20
-50 c0 -5 -5 -3 -10 5 -5 8 -10 20 -10 25 0 6 5 3 10 -5 5 -8 10 -19 10 -25z
m849 -74 c-7 -23 -14 -39 -16 -37 -3 2 1 23 8 45 7 23 14 39 16 37 3 -2 -1
-23 -8 -45z m-801 -81 c0 -8 -6 1 -13 20 -7 19 -13 42 -13 50 0 8 6 -1 13 -20
7 -19 13 -42 13 -50z m776 -4 c-3 -15 -8 -25 -11 -23 -2 3 -1 17 3 31 3 15 8
25 11 23 2 -3 1 -17 -3 -31z m-767 -38 c-3 -8 -6 -5 -6 6 -1 11 2 17 5 13 3
-3 4 -12 1 -19z m750 -20 c-3 -8 -6 -5 -6 6 -1 11 2 17 5 13 3 -3 4 -12 1 -19z
m-10 -40 c-3 -8 -6 -5 -6 6 -1 11 2 17 5 13 3 -3 4 -12 1 -19z m-720 -10 c-3
-8 -6 -5 -6 6 -1 11 2 17 5 13 3 -3 4 -12 1 -19z m710 -40 c-3 -7 -5 -2 -5 12
0 14 2 19 5 13 2 -7 2 -19 0 -25z m-700 0 c-3 -8 -6 -5 -6 6 -1 11 2 17 5 13
3 -3 4 -12 1 -19z m10 -40 c-3 -8 -6 -5 -6 6 -1 11 2 17 5 13 3 -3 4 -12 1
-19z m680 -10 c-3 -7 -5 -2 -5 12 0 14 2 19 5 13 2 -7 2 -19 0 -25z m-725 -53
c36 -131 144 -734 178 -995 6 -47 13 -97 16 -112 l6 -28 -1551 0 -1551 0 0
585 0 585 1447 -2 1447 -3 8 -30z m55 13 c-3 -8 -6 -5 -6 6 -1 11 2 17 5 13 3
-3 4 -12 1 -19z m660 -20 c-3 -7 -5 -2 -5 12 0 14 2 19 5 13 2 -7 2 -19 0 -25z
m-650 -20 c-3 -8 -6 -5 -6 6 -1 11 2 17 5 13 3 -3 4 -12 1 -19z m640 -30 c-3
-7 -5 -2 -5 12 0 14 2 19 5 13 2 -7 2 -19 0 -25z m-630 -20 c-3 -7 -5 -2 -5
12 0 14 2 19 5 13 2 -7 2 -19 0 -25z m620 -45 c-3 -10 -5 -4 -5 12 0 17 2 24
5 18 2 -7 2 -21 0 -30z m-599 -43 c0 -22 -1 -22 -8 5 -4 17 -8 39 -8 50 0 16
2 15 8 -5 4 -14 8 -36 8 -50z m589 -27 c-3 -10 -5 -4 -5 12 0 17 2 24 5 18 2
-7 2 -21 0 -30z m-580 -25 c-3 -8 -6 -5 -6 6 -1 11 2 17 5 13 3 -3 4 -12 1
-19z m570 -35 c-3 -10 -5 -4 -5 12 0 17 2 24 5 18 2 -7 2 -21 0 -30z m-560
-15 c-3 -8 -6 -5 -6 6 -1 11 2 17 5 13 3 -3 4 -12 1 -19z m550 -70 c-2 -13 -4
-5 -4 17 -1 22 1 32 4 23 2 -10 2 -28 0 -40z m-540 10 c-3 -7 -5 -2 -5 12 0
14 2 19 5 13 2 -7 2 -19 0 -25z m10 -50 c-3 -7 -5 -2 -5 12 0 14 2 19 5 13 2
-7 2 -19 0 -25z m520 -50 c-2 -13 -4 -3 -4 22 0 25 2 35 4 23 2 -13 2 -33 0
-45z m-510 0 c-3 -7 -5 -2 -5 12 0 14 2 19 5 13 2 -7 2 -19 0 -25z m10 -50
c-3 -8 -6 -5 -6 6 -1 11 2 17 5 13 3 -3 4 -12 1 -19z m490 -50 c-2 -13 -4 -5
-4 17 -1 22 1 32 4 23 2 -10 2 -28 0 -40z m-469 -58 c0 -22 -1 -22 -8 5 -4 17
-8 41 -8 55 0 22 1 22 8 -5 4 -16 8 -41 8 -55z m459 -52 c-2 -13 -4 -3 -4 22
0 25 2 35 4 23 2 -13 2 -33 0 -45z m-450 -25 c-3 -10 -5 -4 -5 12 0 17 2 24 5
18 2 -7 2 -21 0 -30z m440 -95 c-2 -18 -4 -6 -4 27 0 33 2 48 4 33 2 -15 2
-42 0 -60z m-430 40 c-3 -7 -5 -2 -5 12 0 14 2 19 5 13 2 -7 2 -19 0 -25z m10
-65 c-3 -10 -5 -4 -5 12 0 17 2 24 5 18 2 -7 2 -21 0 -30z m10 -70 c-3 -10 -5
-4 -5 12 0 17 2 24 5 18 2 -7 2 -21 0 -30z m400 -65 c-2 -18 -4 -4 -4 32 0 36
2 50 4 33 2 -18 2 -48 0 -65z m-390 -5 c-3 -10 -5 -4 -5 12 0 17 2 24 5 18 2
-7 2 -21 0 -30z m10 -70 c-3 -10 -5 -2 -5 17 0 19 2 27 5 18 2 -10 2 -26 0
-35z m370 -110 c-2 -21 -4 -4 -4 37 0 41 2 58 4 38 2 -21 2 -55 0 -75z m-360
40 c-3 -10 -5 -2 -5 17 0 19 2 27 5 18 2 -10 2 -26 0 -35z m10 -70 c-3 -10 -5
-2 -5 17 0 19 2 27 5 18 2 -10 2 -26 0 -35z m10 -70 c-3 -10 -5 -2 -5 17 0 19
2 27 5 18 2 -10 2 -26 0 -35z m-48 -85 c47 -395 81 -732 97 -960 l6 -98 -1611
0 -1611 0 0 580 0 580 1553 0 1553 0 13 -102z m378 -85 c-2 -27 -3 -5 -3 47 0
52 1 74 3 48 2 -27 2 -69 0 -95z m-320 70 c-3 -10 -5 -2 -5 17 0 19 2 27 5 18
2 -10 2 -26 0 -35z m10 -80 c-3 -10 -5 -4 -5 12 0 17 2 24 5 18 2 -7 2 -21 0
-30z m10 -90 c-3 -10 -5 -2 -5 17 0 19 2 27 5 18 2 -10 2 -26 0 -35z m10 -90
c-3 -10 -5 -2 -5 17 0 19 2 27 5 18 2 -10 2 -26 0 -35z m280 -210 c-2 -37 -3
-9 -3 62 0 72 1 102 3 68 2 -34 2 -93 0 -130z m-270 130 c-3 -10 -5 -2 -5 17
0 19 2 27 5 18 2 -10 2 -26 0 -35z m10 -95 c-2 -13 -4 -3 -4 22 0 25 2 35 4
23 2 -13 2 -33 0 -45z m10 -105 c-2 -16 -4 -5 -4 22 0 28 2 40 4 28 2 -13 2
-35 0 -50z m10 -95 c-2 -13 -4 -3 -4 22 0 25 2 35 4 23 2 -13 2 -33 0 -45z
m230 -255 c-1 -54 -3 -12 -3 92 0 105 2 149 3 98 2 -51 2 -136 0 -190z m-220
140 c-2 -16 -4 -3 -4 27 0 30 2 43 4 28 2 -16 2 -40 0 -55z m10 -115 c-2 -13
-4 -3 -4 22 0 25 2 35 4 23 2 -13 2 -33 0 -45z m10 -140 c-2 -18 -4 -4 -4 32
0 36 2 50 4 33 2 -18 2 -48 0 -65z m10 -145 c-2 -16 -4 -5 -4 22 0 28 2 40 4
28 2 -13 2 -35 0 -50z m-57 25 c0 -18 9 -166 20 -328 10 -162 24 -378 29 -480
6 -102 13 -218 17 -257 l6 -73 -1651 0 -1651 0 0 585 0 585 1615 0 1615 0 0
-32z m750 -2973 l0 -3005 -230 0 -230 0 0 3005 0 3005 230 0 230 0 0 -3005z
m-510 -45 l0 -2950 -30 0 -30 0 2 833 3 832 2 -827 c3 -820 3 -828 23 -828 20
0 20 10 20 2945 0 1620 2 2945 5 2945 3 0 5 -1327 5 -2950z m-173 2848 c-2
-18 -4 -4 -4 32 0 36 2 50 4 33 2 -18 2 -48 0 -65z m10 -160 c-2 -18 -4 -4 -4
32 0 36 2 50 4 33 2 -18 2 -48 0 -65z m10 -170 c-2 -24 -4 -5 -4 42 0 47 2 66
4 43 2 -24 2 -62 0 -85z m10 -160 c-2 -18 -4 -4 -4 32 0 36 2 50 4 33 2 -18 2
-48 0 -65z m10 -155 c-2 -21 -4 -6 -4 32 0 39 2 55 4 38 2 -18 2 -50 0 -70z
m10 -180 c-2 -21 -4 -6 -4 32 0 39 2 55 4 38 2 -18 2 -50 0 -70z m10 -180 c-2
-21 -4 -4 -4 37 0 41 2 58 4 38 2 -21 2 -55 0 -75z m-49 -55 c1 -24 6 -209 12
-413 5 -203 12 -443 15 -532 l5 -163 -1670 0 -1670 0 0 575 0 575 1653 0 1653
0 2 -42z m59 -125 c-2 -27 -3 -5 -3 47 0 52 1 74 3 48 2 -27 2 -69 0 -95z m10
-305 c-2 -35 -3 -7 -3 62 0 69 1 97 3 63 2 -35 2 -91 0 -125z m10 -400 c-1
-51 -3 -12 -3 87 0 99 2 141 3 93 2 -48 2 -129 0 -180z m10 -495 c-1 -60 -3
-11 -3 107 0 118 2 167 3 108 2 -60 2 -156 0 -215z m-57 -71 c0 -131 3 -395 7
-585 l6 -347 -1676 0 -1677 0 0 585 0 585 1670 0 1670 0 0 -238z m67 -344 c-3
-7 -5 -2 -5 12 0 14 2 19 5 13 2 -7 2 -19 0 -25z m0 -50 c-3 -7 -5 -2 -5 12 0
14 2 19 5 13 2 -7 2 -19 0 -25z m0 -636 c-1 -114 -2 -20 -2 208 0 228 1 322 2
207 2 -114 2 -300 0 -415z m-54 -274 c4 -178 7 -441 7 -585 l0 -263 -1680 0
-1680 0 0 585 0 585 1673 0 1674 0 6 -322z m7 -1091 c0 -107 3 -363 7 -570 l6
-377 -1686 -2 -1687 -3 0 573 0 572 1680 0 1680 0 0 -193z"/>
<path d="M3183 12218 l-62 -93 61 -3 c33 -2 62 -1 65 1 2 3 2 46 1 97 l-3 92
-62 -94z"/>
<path d="M3582 12327 c-43 -46 -20 -145 36 -148 61 -4 92 19 92 68 0 89 -76
136 -128 80z"/>
<path d="M3962 12308 c-17 -17 -15 -53 3 -68 31 -26 60 13 44 58 -9 24 -29 28
-47 10z"/>
<path d="M4191 12066 c-8 -10 -11 -26 -7 -42 5 -20 12 -25 34 -22 24 3 27 7
27 38 0 28 -4 36 -21 38 -11 2 -26 -4 -33 -12z"/>
<path d="M2690 10865 l0 -565 1425 0 c1177 0 1425 2 1425 13 0 22 -57 217 -84
287 -64 169 -154 347 -169 335 -4 -3 -5 -2 -2 1 7 10 -15 45 -24 39 -5 -2 -8
3 -7 13 0 9 -4 16 -11 15 -7 -2 -10 4 -7 12 9 24 -188 214 -276 266 -96 58
-204 103 -225 95 -9 -3 -14 -2 -11 2 3 5 -30 17 -72 28 -72 17 -135 19 -1019
22 l-942 3 -1 -566z m1995 515 c3 -6 -1 -7 -9 -4 -18 7 -21 14 -7 14 6 0 13
-4 16 -10z m-740 -222 c5 4 5 1 1 -6 -6 -10 -11 -10 -22 -1 -8 6 -14 14 -14
16 0 3 6 0 13 -6 8 -6 18 -7 22 -3z m-425 -44 c0 -2 -21 -4 -46 -4 -25 0 -43
4 -40 8 4 7 86 4 86 -4z m254 4 c-5 -8 -2 -9 9 -5 10 3 17 2 17 -3 0 -13 -18
-22 -24 -12 -2 4 -27 7 -55 6 -28 -2 -53 2 -57 7 -3 6 15 9 45 8 28 -1 54 1
58 4 10 11 15 8 7 -5z m-574 -2 c0 -2 -13 -6 -29 -8 -17 -2 -28 -1 -25 4 5 8
54 12 54 4z m344 -11 c-7 -18 22 -50 31 -35 4 6 11 8 16 5 5 -4 12 0 15 9 3 8
12 12 20 9 8 -3 11 -9 8 -14 -3 -5 -9 -7 -14 -4 -10 6 -22 -23 -14 -36 3 -5
-5 -9 -17 -9 -18 0 -20 3 -11 12 18 18 14 32 -5 17 -9 -8 -19 -13 -22 -11 -3
2 -7 -2 -10 -9 -2 -7 1 -9 10 -4 11 6 12 5 2 -6 -7 -7 -13 -20 -13 -28 1 -13
3 -13 11 2 6 9 15 15 20 12 5 -4 7 -11 4 -16 -4 -5 -1 -9 5 -9 7 0 10 7 6 15
-3 8 -1 15 4 15 6 0 10 -13 10 -30 0 -16 -4 -30 -10 -30 -5 0 -10 -8 -10 -17
-1 -17 -1 -17 -14 0 -7 9 -16 17 -20 17 -4 0 -6 -62 -4 -137 1 -76 4 -130 6
-120 2 9 12 17 22 17 10 0 21 6 23 13 4 9 6 9 6 -1 1 -8 -7 -16 -18 -19 -17
-4 -32 -26 -44 -63 -3 -8 -6 91 -6 221 -1 130 2 239 6 242 10 11 13 8 7 -8z
m40 7 c3 -5 -1 -9 -9 -9 -8 0 -12 4 -9 9 3 4 7 8 9 8 2 0 6 -4 9 -8z m51 -2
c-3 -5 -12 -7 -20 -3 -21 7 -19 13 6 13 11 0 18 -4 14 -10z m236 -2 c0 -10 2
-10 6 0 2 6 10 12 16 12 8 0 7 -4 -1 -12 -15 -15 -16 -32 -2 -23 13 8 13 -1
-1 -26 -8 -16 -13 -18 -25 -8 -8 6 -17 9 -21 5 -4 -3 2 -13 13 -21 10 -8 14
-15 7 -15 -6 0 -14 4 -18 10 -3 5 -13 6 -22 3 -11 -4 -14 -3 -9 5 4 7 3 12 -2
12 -6 0 -13 8 -17 18 -5 14 -4 15 6 5 7 -7 19 -13 27 -13 8 0 10 5 5 13 -4 6
5 4 21 -6 l28 -19 -7 24 c-4 12 -12 29 -17 36 -7 8 -7 12 1 12 6 0 11 -6 12
-12z m-898 -23 c-3 -9 -8 -14 -10 -11 -3 3 -2 9 2 15 9 16 15 13 8 -4z m277
-215 l0 -230 -55 0 -55 0 0 175 0 176 -44 -31 c-25 -16 -47 -30 -50 -30 -3 0
-6 20 -6 44 0 42 2 45 63 85 48 32 72 41 105 41 l42 0 0 -230z m21 1 c0 -122
-2 -225 -5 -228 -3 -4 -6 99 -6 227 0 128 2 231 5 228 3 -2 5 -105 6 -227z
m249 -1 l0 -230 -55 0 -55 0 0 171 0 171 -44 -26 c-25 -14 -47 -26 -50 -26 -3
0 -6 20 -6 44 0 43 1 45 63 85 47 30 72 40 105 40 l42 1 0 -230z m-430 201 c0
-4 -13 -7 -29 -7 -17 0 -28 3 -25 7 2 5 12 5 21 2 11 -4 14 -3 9 5 -5 8 -2 10
8 6 9 -3 16 -9 16 -13z m677 4 c27 -19 46 -76 38 -114 -10 -47 -48 -81 -90
-81 -20 0 -45 5 -56 10 -24 13 -49 61 -49 95 0 32 24 81 47 94 27 15 86 13
110 -4z m213 11 c0 -2 -27 -51 -60 -109 -63 -111 -68 -123 -47 -110 6 4 17 8
22 9 6 0 17 2 25 3 13 1 13 3 0 10 -8 6 -18 7 -22 5 -5 -3 -1 10 8 30 10 19
22 32 27 29 6 -3 7 -1 3 5 -7 12 14 52 27 52 5 0 6 -8 2 -17 -4 -10 -8 -26
-10 -36 -3 -11 -14 -27 -25 -37 -25 -22 -8 -32 29 -18 13 5 26 6 29 4 8 -9
-20 -37 -32 -33 -6 2 -22 0 -36 -6 -14 -5 -35 -10 -48 -11 -19 -2 -35 -23 -81
-106 -53 -97 -60 -105 -90 -108 -18 -2 -32 1 -30 6 2 5 59 106 127 225 117
205 125 217 153 217 16 0 29 -2 29 -4z m30 -11 c11 -13 10 -14 -4 -9 -9 3 -16
10 -16 15 0 13 6 11 20 -6z m-670 -19 c0 -2 -7 -7 -16 -10 -8 -3 -12 -2 -9 4
6 10 25 14 25 6z m652 -3 c-6 -2 -9 -9 -6 -14 3 -6 12 -5 22 3 15 12 16 11 3
-4 -12 -16 -10 -19 13 -28 14 -5 26 -16 26 -24 0 -10 -6 -13 -17 -9 -11 4 -14
3 -9 -5 10 -16 -6 -15 -23 1 -11 10 -13 10 -7 0 4 -7 2 -13 -3 -13 -11 0 -14
11 -8 28 1 4 5 6 10 5 11 -4 8 7 -7 22 -7 8 -17 11 -21 7 -4 -4 -2 3 4 16 6
12 17 22 24 21 9 0 9 -2 -1 -6z m-1012 -13 c0 -5 -2 -10 -4 -10 -3 0 -8 5 -11
10 -3 6 -1 10 4 10 6 0 11 -4 11 -10z m51 -53 c-2 -40 1 -53 15 -64 24 -17 13
-17 -22 2 -16 8 -23 15 -16 15 10 0 13 13 10 48 -2 28 1 49 7 49 6 0 8 -21 6
-50z m268 -14 c-1 -41 -2 -44 -8 -18 -7 28 -4 65 5 65 2 0 3 -21 3 -47z m543
13 c6 4 5 -2 -1 -15 -16 -28 -18 -27 -18 12 0 17 2 24 4 14 3 -9 9 -14 15 -11z
m238 -16 c0 -5 -4 -10 -10 -10 -5 0 -10 5 -10 10 0 6 5 10 10 10 6 0 10 -4 10
-10z m-952 -167 l-2 -168 -3 158 c-3 121 -6 156 -16 151 -8 -5 -7 -2 2 9 7 9
15 17 17 17 2 0 3 -75 2 -167z m270 -5 l-2 -163 -3 153 c-2 93 -7 152 -14 152
-5 0 -12 -6 -15 -13 -2 -7 -14 -14 -26 -14 -16 -2 -12 4 18 22 21 13 40 25 42
25 1 0 1 -73 0 -162z m220 117 c13 -21 33 -38 54 -45 l33 -10 -33 5 c-24 3
-31 1 -26 -8 4 -6 3 -9 -1 -4 -5 4 -18 -1 -29 -10 -15 -14 -18 -14 -8 -2 6 9
8 19 4 23 -4 4 -2 6 3 4 6 -1 11 0 13 5 1 4 0 7 -3 7 -3 0 -12 0 -21 0 -8 0
-13 -4 -9 -9 3 -5 0 -13 -6 -17 -8 -4 -9 -3 -5 4 4 7 3 12 -2 12 -5 0 -9 7 -9
15 0 8 4 12 9 9 7 -5 12 13 11 44 -1 19 3 15 25 -23z m380 10 c-3 -3 -9 2 -12
12 -6 14 -5 15 5 6 7 -7 10 -15 7 -18z m102 -10 c0 -8 -4 -15 -10 -15 -5 0 -7
7 -4 15 4 8 8 15 10 15 2 0 4 -7 4 -15z m-318 -47 c-25 -43 -35 -52 -61 -54
-17 -1 -31 1 -31 4 0 13 39 32 55 26 8 -3 15 -1 15 6 0 6 -4 9 -8 6 -4 -2 -14
-1 -22 5 -12 7 -10 9 6 9 12 0 32 11 45 25 13 13 25 25 27 25 2 0 -10 -23 -26
-52z m240 30 c-19 -19 -14 -24 23 -23 19 1 32 -1 29 -4 -3 -3 -28 -7 -56 -7
l-50 -2 28 24 c31 25 46 32 26 12z m-3 -48 c10 5 23 5 32 -1 15 -9 6 -13 -24
-9 -16 1 -16 -1 3 -32 24 -39 26 -78 5 -118 -19 -37 -43 -50 -90 -50 -20 0
-45 5 -56 10 -32 18 -52 68 -46 118 3 28 1 39 -4 31 -5 -8 -9 -34 -9 -59 0
-43 -1 -44 -13 -20 -11 21 -10 31 6 63 10 22 21 36 24 33 4 -3 14 1 24 10 24
22 69 32 103 23 16 -5 36 -4 45 1z m-339 -26 c0 -23 3 -26 30 -22 35 5 35 6
14 -33 -17 -34 -37 -34 -39 -1 -1 12 -11 32 -23 43 -26 24 -28 31 -5 22 11 -4
14 -3 9 5 -4 7 -2 12 3 12 6 0 11 -12 11 -26z m-82 -21 c-4 -22 -22 -20 -26 1
-2 10 3 16 13 16 10 0 15 -7 13 -17z m490 -29 c2 -25 -1 -34 -9 -28 -8 5 -10
-1 -7 -19 3 -15 1 -24 -3 -21 -5 2 -8 20 -7 38 1 18 -2 38 -6 44 -5 9 6 18 24
21 3 1 7 -15 8 -35z m-1317 -27 c-10 -9 -11 -8 -5 6 3 10 9 15 12 12 3 -3 0
-11 -7 -18z m829 19 c0 -2 -7 -7 -16 -10 -8 -3 -12 -2 -9 4 6 10 25 14 25 6z
m545 -35 c-9 -8 -36 -10 -30 -2 2 4 11 8 20 8 8 0 13 -3 10 -6z m-457 -9 c10
8 7 -3 -9 -31 -17 -31 -25 -38 -27 -26 -2 10 1 21 7 25 7 3 10 13 8 21 -2 8
-2 10 1 6 2 -4 11 -2 20 5z m-54 -17 c3 -8 1 -15 -4 -15 -6 0 -10 7 -10 15 0
8 2 15 4 15 2 0 6 -7 10 -15z m-24 -15 c0 -5 -5 -10 -11 -10 -5 0 -7 5 -4 10
3 6 8 10 11 10 2 0 4 -4 4 -10z m470 -37 c0 -6 -5 -15 -12 -19 -7 -5 -8 -3 -3
6 6 9 2 10 -16 5 -33 -10 -36 -15 -19 -25 13 -8 13 -10 -1 -10 -27 0 -31 28
-6 42 12 6 23 11 25 10 9 -7 22 0 17 8 -4 6 -11 8 -16 5 -5 -3 -6 1 -3 10 6
14 8 14 20 -2 7 -10 14 -23 14 -30z m-291 20 c0 -12 -2 -13 -6 -5 -4 10 -9 9
-20 -5 -13 -17 -13 -16 -3 5 13 26 30 29 29 5z m117 -39 c19 -8 34 -20 34 -27
0 -6 5 -4 11 6 5 9 18 17 27 17 15 0 15 -2 2 -10 -8 -5 -15 -14 -15 -20 0 -12
-5 -13 -27 -5 -10 4 -15 12 -11 18 4 6 -2 8 -15 5 -14 -4 -20 -2 -15 5 4 6 0
8 -10 4 -9 -3 -16 -3 -14 1 1 4 -2 9 -8 12 -22 10 -44 34 -38 43 3 4 14 -1 25
-13 12 -12 36 -29 54 -36z m-1076 36 c0 -5 -5 -10 -11 -10 -5 0 -7 5 -4 10 3
6 8 10 11 10 2 0 4 -4 4 -10z m770 -23 c12 -4 12 -6 -2 -6 -9 -1 -22 7 -27 17
-10 16 -10 16 -11 -2 0 -11 -3 -17 -6 -13 -4 3 -3 14 0 24 7 16 9 16 19 2 7
-9 19 -18 27 -22z m130 -24 c0 -2 -20 -3 -44 -2 -25 2 -43 5 -41 9 4 6 85 0
85 -7z m-502 0 c-15 -2 -42 -2 -60 0 -18 2 -6 4 27 4 33 0 48 -2 33 -4z m270
0 c-15 -2 -42 -2 -60 0 -18 2 -6 4 27 4 33 0 48 -2 33 -4z m396 -38 c-4 -8
-10 -12 -15 -9 -11 6 -2 24 11 24 5 0 7 -7 4 -15z m1591 -215 c-3 -5 3 -10 13
-10 11 0 22 -7 26 -15 3 -8 1 -15 -4 -15 -6 0 -10 4 -10 8 0 4 -9 8 -20 9 -11
1 -20 -3 -20 -9 0 -6 -3 -9 -6 -6 -6 7 13 48 22 48 3 0 2 -4 -1 -10z"/>
<path d="M3684 11016 c-3 -8 -4 -25 -2 -38 4 -33 52 -33 56 0 6 40 -41 73 -54
38z m46 -27 c0 -12 -4 -18 -11 -13 -6 3 -15 0 -20 -7 -6 -10 -9 -6 -9 14 0 20
5 27 20 27 14 0 20 -7 20 -21z"/>
<path d="M3920 10776 c-15 -19 -9 -56 12 -69 34 -22 66 41 36 71 -16 16 -33
15 -48 -2z m46 -20 c3 -8 2 -22 -3 -30 -8 -14 -12 -14 -28 -3 -11 9 -16 20
-12 31 8 20 36 21 43 2z"/>
<path d="M3931 10743 c0 -12 2 -14 6 -4 5 11 7 11 15 0 8 -12 9 -12 6 0 -6 22
-28 25 -27 4z"/>
<path d="M3690 10786 c0 -2 7 -7 16 -10 8 -3 12 -2 9 4 -6 10 -25 14 -25 6z"/>
<path d="M4071 10774 c0 -11 3 -14 6 -6 3 7 2 16 -1 19 -3 4 -6 -2 -5 -13z"/>
<path d="M3032 9850 c0 -19 2 -27 5 -17 2 9 2 25 0 35 -3 9 -5 1 -5 -18z"/>
<path d="M3362 9855 c0 -16 2 -22 5 -12 2 9 2 23 0 30 -3 6 -5 -1 -5 -18z"/>
<path d="M3235 9799 c-4 -6 -5 -12 -2 -15 2 -3 7 2 10 11 7 17 1 20 -8 4z"/>
<path d="M3497 9748 c2 -5 10 -8 18 -8 8 0 16 3 18 8 3 4 -5 7 -18 7 -13 0
-21 -3 -18 -7z"/>
<path d="M1140 12520 l0 -160 25 0 c24 0 25 2 25 66 0 62 1 65 22 62 16 -2 33
-22 57 -65 30 -55 38 -63 63 -63 l29 0 -36 64 -36 64 31 30 c31 32 37 62 20
106 -14 37 -59 56 -135 56 l-65 0 0 -160z m148 98 c19 -16 14 -55 -10 -72 -12
-9 -37 -16 -55 -16 l-33 0 0 53 0 53 43 -4 c23 -2 48 -9 55 -14z"/>
<path d="M1397 12674 c-13 -13 -7 -42 10 -48 21 -8 36 6 31 30 -3 19 -29 30
-41 18z"/>
<path d="M1720 12520 l0 -160 25 0 c25 0 25 1 25 79 0 59 4 84 16 95 18 19 28
20 55 6 16 -9 19 -22 19 -95 0 -84 0 -85 25 -85 25 0 25 1 25 90 0 83 -2 93
-25 115 -26 27 -82 34 -103 13 -9 -9 -12 1 -12 45 0 54 -1 57 -25 57 l-25 0 0
-160z"/>
<path d="M2390 12620 c0 -23 -5 -30 -19 -30 -14 0 -17 -6 -14 -24 3 -16 10
-23 19 -19 11 4 14 -10 14 -74 0 -66 3 -83 19 -97 27 -25 75 -18 79 12 3 18
-1 22 -22 22 -25 0 -26 1 -26 70 0 68 1 70 25 70 18 0 25 5 25 20 0 15 -7 20
-28 20 -26 0 -28 3 -24 30 4 27 1 30 -22 30 -22 0 -26 -4 -26 -30z"/>
<path d="M1390 12475 l0 -115 25 0 25 0 0 115 0 115 -25 0 -25 0 0 -115z"/>
<path d="M1513 12555 c-33 -33 -35 -38 -31 -87 9 -89 82 -132 157 -93 26 13
41 33 41 56 0 16 -31 10 -57 -11 -14 -11 -32 -20 -39 -20 -50 0 -75 104 -32
134 30 21 44 20 69 -5 16 -16 26 -19 42 -12 21 10 21 10 -10 41 -45 46 -93 44
-140 -3z"/>
<path d="M1987 12579 c-43 -25 -61 -114 -33 -168 29 -54 118 -69 161 -26 30
30 31 41 4 48 -13 3 -28 -2 -40 -14 -10 -10 -25 -19 -32 -19 -22 0 -57 31 -57
51 0 17 7 19 79 19 l79 0 -9 38 c-11 49 -50 82 -97 82 -20 0 -45 -5 -55 -11z
m91 -41 c26 -26 13 -38 -38 -38 -52 0 -60 8 -34 34 18 19 55 21 72 4z"/>
<path d="M2194 12565 c-18 -18 -23 -31 -19 -48 9 -30 42 -57 70 -57 33 0 59
-28 44 -46 -15 -18 -38 -18 -60 2 -11 10 -25 13 -38 9 -28 -8 -26 -19 5 -44
50 -40 133 -20 148 34 10 36 -15 67 -69 84 -31 10 -50 22 -50 31 0 18 43 26
58 11 16 -16 57 -14 57 3 0 47 -105 62 -146 21z"/>
<path d="M1878 12134 c-30 -19 -38 -31 -38 -55 l0 -30 29 20 c16 12 32 21 35
21 3 0 6 -58 6 -130 l0 -130 25 0 25 0 0 165 c0 165 0 165 -22 164 -13 0 -40
-11 -60 -25z"/>
<path d="M2081 12144 c-75 -53 -81 -226 -11 -289 30 -27 100 -27 129 -1 22 20
51 102 51 145 0 47 -22 104 -50 133 -33 33 -82 37 -119 12z m93 -56 c20 -28
21 -142 3 -178 -18 -37 -61 -39 -84 -4 -25 38 -25 140 0 177 22 33 60 36 81 5z"/>
<path d="M2306 12084 c-19 -18 -21 -65 -4 -82 7 -7 24 -12 40 -12 48 0 66 66
26 94 -28 20 -43 20 -62 0z m52 -38 c2 -10 -1 -23 -7 -29 -16 -16 -44 14 -35
37 8 22 38 17 42 -8z"/>
<path d="M2381 11970 c-62 -123 -68 -140 -51 -140 5 0 39 59 75 130 44 87 61
130 51 130 -8 0 -41 -53 -75 -120z"/>
<path d="M2422 11938 c-7 -7 -12 -26 -12 -43 0 -36 15 -55 45 -55 30 0 45 19
45 55 0 36 -15 55 -45 55 -12 0 -26 -5 -33 -12z m55 -52 c-8 -20 -36 -21 -43
-1 -4 8 0 22 7 31 11 13 14 13 27 0 8 -8 12 -22 9 -30z"/>
<path d="M707 11385 c-55 -20 -97 -53 -97 -76 0 -24 3 -24 48 4 50 32 132 51
188 42 24 -3 70 -19 100 -36 31 -16 58 -29 61 -29 2 0 3 10 1 22 -2 16 -21 32
-66 55 -54 28 -74 33 -130 32 -37 0 -84 -7 -105 -14z"/>
<path d="M712 11225 c-43 -55 -13 -145 48 -145 34 0 47 15 63 71 10 33 18 44
32 44 26 0 31 -36 11 -67 -12 -19 -13 -26 -1 -41 12 -17 14 -16 34 9 42 53 13
154 -44 154 -33 0 -53 -24 -66 -76 -10 -37 -15 -45 -33 -42 -24 3 -35 50 -16
73 8 9 8 20 2 30 -8 15 -12 14 -30 -10z"/>
<path d="M1833 11062 c-34 -21 -43 -33 -43 -55 l0 -29 35 21 35 20 0 -134 0
-135 30 0 30 0 0 170 c0 170 0 170 -22 169 -13 0 -42 -13 -65 -27z"/>
<path d="M2033 11064 c-36 -21 -43 -30 -43 -56 l0 -30 35 21 35 20 0 -134 0
-135 30 0 30 0 0 170 c0 170 0 170 -22 170 -13 0 -42 -12 -65 -26z"/>
<path d="M2225 11055 c-16 -15 -25 -36 -25 -55 0 -33 37 -80 63 -80 8 0 26 9
41 21 50 39 25 139 -34 139 -12 0 -32 -11 -45 -25z m69 -37 c14 -23 -3 -53
-30 -53 -20 0 -31 33 -20 61 7 19 35 14 50 -8z"/>
<path d="M7040 10913 l0 -163 25 0 c24 0 25 2 25 65 0 61 1 65 23 65 17 0 30
-16 57 -63 28 -50 41 -63 63 -65 15 -2 27 -1 27 2 0 3 -15 33 -34 67 l-34 62
29 24 c41 35 41 93 0 134 -30 29 -30 29 -148 33 l-33 1 0 -162z m138 101 c24
-17 29 -53 10 -72 -7 -7 -31 -12 -55 -12 l-43 0 0 50 c0 50 0 50 33 50 18 0
43 -7 55 -16z"/>
<path d="M7294 11065 c-8 -21 2 -45 19 -45 20 0 40 27 33 45 -7 19 -45 20 -52
0z"/>
<path d="M7620 10914 l0 -165 23 3 c20 3 22 9 27 93 5 90 5 90 33 93 48 6 57
-11 57 -104 0 -84 0 -84 26 -84 l26 0 -4 101 c-3 93 -5 102 -28 121 -24 19
-63 21 -100 4 -13 -5 -14 3 -12 49 4 53 3 55 -22 55 l-26 0 0 -166z"/>
<path d="M8597 11055 c-29 -20 -37 -32 -37 -56 l0 -30 29 20 c16 12 32 21 35
21 3 0 6 -58 6 -130 l0 -130 25 0 25 0 0 165 c0 165 0 165 -23 165 -12 0 -39
-11 -60 -25z"/>
<path d="M8789 11065 c-52 -28 -77 -162 -45 -239 17 -41 61 -76 95 -76 109 0
151 211 61 302 -32 31 -69 36 -111 13z m87 -60 c23 -35 23 -144 1 -179 -49
-74 -114 23 -93 138 12 66 62 87 92 41z"/>
<path d="M2385 11012 c-17 -31 -57 -106 -89 -165 -47 -88 -55 -108 -40 -105
12 2 36 35 64 88 25 47 64 120 87 163 35 63 39 77 25 77 -10 0 -29 -22 -47
-58z"/>
<path d="M9060 11050 c-40 -40 -14 -120 39 -120 36 0 61 28 61 68 0 36 -30 72
-60 72 -11 0 -29 -9 -40 -20z m70 -50 c0 -28 -27 -45 -45 -30 -20 17 -19 47 2
59 21 11 43 -3 43 -29z"/>
<path d="M9165 10918 c-44 -84 -81 -156 -83 -160 -2 -5 3 -8 11 -8 10 0 47 59
96 154 45 85 81 157 81 160 0 3 -6 6 -13 6 -7 0 -49 -69 -92 -152z"/>
<path d="M8310 11010 c0 -20 -5 -30 -15 -30 -8 0 -15 -9 -15 -20 0 -11 7 -20
15 -20 12 0 15 -15 15 -71 0 -92 10 -109 60 -109 33 0 40 3 40 19 0 13 -8 21
-22 23 -21 3 -23 9 -26 71 -3 66 -3 67 23 67 18 0 25 5 25 20 0 15 -7 20 -25
20 -21 0 -25 5 -25 30 0 25 -4 30 -25 30 -21 0 -25 -5 -25 -30z"/>
<path d="M740 11017 c-67 -34 -65 -153 5 -185 86 -39 175 11 175 99 0 37 -26
89 -44 89 -21 0 -28 -31 -11 -50 22 -25 19 -66 -7 -84 -12 -9 -26 -16 -30 -16
-5 0 -8 36 -8 80 l0 80 -27 0 c-16 0 -39 -6 -53 -13z m50 -92 c0 -59 -13 -70
-44 -39 -23 22 -20 60 6 78 34 24 38 20 38 -39z"/>
<path d="M7300 10870 c0 -113 1 -120 20 -120 19 0 20 7 20 120 0 113 -1 120
-20 120 -19 0 -20 -7 -20 -120z"/>
<path d="M7428 10974 c-36 -19 -48 -43 -48 -99 0 -87 50 -135 124 -121 31 6
76 45 76 66 0 18 -48 16 -59 -2 -7 -11 -23 -18 -41 -18 -23 0 -33 7 -45 30
-19 37 -19 60 1 88 19 28 68 30 87 2 9 -13 20 -17 35 -13 20 5 21 7 7 34 -26
50 -82 63 -137 33z"/>
<path d="M7887 10969 c-83 -64 -39 -219 61 -219 31 0 79 26 92 49 8 16 6 21
-11 26 -13 4 -27 1 -38 -9 -25 -23 -67 -20 -85 6 -9 12 -16 26 -16 30 0 5 36
8 80 8 79 0 80 0 80 25 0 34 -25 82 -49 95 -32 17 -86 12 -114 -11z m98 -39
c24 -27 17 -32 -46 -28 l-54 3 23 23 c27 27 53 28 77 2z"/>
<path d="M8105 10965 c-45 -45 -23 -95 49 -114 53 -13 64 -27 42 -49 -16 -16
-19 -16 -47 1 -62 35 -95 9 -41 -33 55 -44 152 -8 152 56 0 32 -33 60 -87 73
-33 9 -44 16 -41 29 4 20 45 29 61 13 14 -14 57 -14 57 -1 0 6 -9 19 -20 30
-29 29 -94 27 -125 -5z"/>
<path d="M2385 10865 c-47 -47 -23 -125 39 -125 42 0 66 26 66 71 0 40 -7 52
-37 68 -31 16 -41 14 -68 -14z m69 -37 c14 -23 -3 -53 -30 -53 -20 0 -31 33
-20 61 7 19 35 14 50 -8z"/>
<path d="M9219 10872 c-44 -36 -18 -122 38 -122 59 0 85 82 37 119 -33 26 -45
26 -75 3z m65 -38 c7 -19 -11 -57 -26 -52 -19 7 -32 34 -25 52 8 21 43 21 51
0z"/>
<path d="M600 10745 l0 -25 160 0 160 0 0 25 0 25 -160 0 -160 0 0 -25z"/>
<path d="M604 10645 c-8 -19 3 -35 26 -35 19 0 30 17 23 38 -6 17 -42 15 -49
-3z"/>
<path d="M690 10635 l0 -25 115 0 115 0 0 25 0 25 -115 0 -115 0 0 -25z"/>
<path d="M716 10548 c-24 -38 -28 -67 -16 -103 14 -43 53 -65 115 -65 38 0 52
5 76 29 36 36 40 101 9 141 -18 23 -20 24 -36 8 -15 -15 -15 -18 0 -39 9 -13
16 -31 16 -40 0 -46 -92 -67 -130 -29 -25 25 -25 32 -1 61 14 17 17 29 10 41
-13 24 -26 23 -43 -4z"/>
<path d="M8534 10545 c-4 -9 0 -23 9 -32 21 -21 49 -9 45 19 -4 28 -45 38 -54
13z"/>
<path d="M8640 10400 l0 -160 26 0 c14 0 23 4 19 10 -8 14 -3 13 34 -6 29 -14
34 -14 69 3 48 23 64 55 59 117 -4 40 -10 55 -36 78 -35 32 -75 36 -109 12
l-22 -15 0 60 c0 54 -2 61 -20 61 -19 0 -20 -7 -20 -160z m142 3 c38 -34 12
-123 -37 -123 -34 0 -68 47 -61 84 3 16 11 35 17 43 16 18 59 16 81 -4z"/>
<path d="M8890 10400 l0 -160 25 0 26 0 -3 160 c-3 158 -3 160 -25 160 -23 0
-23 -1 -23 -160z"/>
<path d="M7102 10454 c-12 -8 -22 -10 -22 -5 0 6 -10 11 -22 11 -22 0 -23 -3
-23 -110 0 -107 1 -110 23 -110 21 0 22 4 22 68 0 77 17 112 56 112 19 0 24 5
24 25 0 29 -24 33 -58 9z"/>
<path d="M7233 10458 c-35 -17 -57 -68 -51 -123 9 -73 64 -112 134 -94 35 10
69 43 59 58 -9 16 -41 13 -55 -4 -17 -20 -53 -19 -73 3 -31 35 -21 42 58 42
l75 0 0 36 c0 71 -79 115 -147 82z m78 -38 c38 -21 23 -40 -31 -40 -54 0 -62
10 -28 34 26 19 33 19 59 6z"/>
<path d="M7451 10457 c-61 -31 -44 -109 26 -122 46 -8 64 -21 56 -41 -6 -16
-59 -19 -68 -4 -3 6 -17 10 -31 10 -29 0 -31 -13 -4 -40 27 -27 110 -28 132
-2 44 49 20 99 -54 117 -45 11 -55 30 -26 49 14 8 21 7 33 -5 16 -16 65 -15
65 1 0 5 -12 18 -26 29 -30 24 -67 27 -103 8z"/>
<path d="M7693 10455 c-13 -9 -23 -11 -23 -6 0 6 -10 11 -22 11 -23 0 -23 -1
-23 -153 0 -150 0 -152 23 -155 21 -3 22 0 22 52 l0 55 33 -13 c83 -34 154 45
127 143 -5 21 -18 45 -29 55 -27 25 -81 30 -108 11z m83 -60 c11 -17 14 -35
10 -60 -15 -81 -116 -68 -116 15 0 65 72 96 106 45z"/>
<path d="M7924 10460 c-40 -16 -64 -59 -64 -112 0 -41 5 -54 29 -79 24 -24 38
-29 76 -29 38 0 52 5 76 29 25 25 29 37 29 81 0 46 -4 56 -34 86 -35 35 -68
42 -112 24z m84 -52 c18 -18 15 -88 -5 -110 -51 -57 -122 30 -83 103 12 22 68
27 88 7z"/>
<path d="M8186 10463 c-4 -4 -22 -6 -41 -5 l-35 3 0 -111 0 -110 25 0 c24 0
25 2 25 71 0 86 11 109 51 109 37 0 49 -27 49 -116 0 -57 2 -64 20 -64 19 0
20 7 20 90 0 83 -2 93 -25 115 -23 24 -73 34 -89 18z"/>
<path d="M8372 10460 c-12 -5 -28 -21 -34 -36 -18 -39 5 -72 66 -93 55 -18 67
-34 38 -50 -13 -7 -26 -6 -46 5 -31 15 -66 19 -66 6 0 -21 33 -50 62 -54 53
-8 97 9 105 40 14 54 -9 87 -68 97 -47 8 -57 21 -35 43 15 15 19 16 44 2 27
-16 62 -16 62 0 0 5 -12 18 -26 29 -28 22 -64 26 -102 11z"/>
<path d="M9033 10460 c-52 -21 -73 -113 -40 -177 21 -39 70 -56 122 -42 34 10
69 45 59 61 -8 13 -41 9 -54 -8 -20 -23 -72 -14 -87 16 l-12 25 79 3 c77 3 80
4 80 27 0 77 -74 124 -147 95z m79 -47 c29 -26 22 -33 -32 -33 -52 0 -60 8
-34 34 20 21 43 20 66 -1z"/>
<path d="M8540 10350 c0 -107 1 -110 23 -110 21 0 22 3 22 110 0 107 -1 110
-22 110 -22 0 -23 -3 -23 -110z"/>
<path d="M739 10325 c-56 -30 -63 -125 -13 -164 40 -31 87 -36 131 -15 65 32
85 117 39 170 l-23 28 -12 -22 c-10 -18 -9 -27 4 -44 8 -13 15 -30 15 -38 0
-16 -39 -60 -53 -60 -4 0 -7 36 -7 80 l0 80 -27 0 c-16 -1 -40 -7 -54 -15z
m51 -90 c0 -59 -4 -63 -38 -39 -26 18 -28 50 -5 76 30 33 43 23 43 -37z"/>
<path d="M603 10073 c-11 -29 5 -40 61 -39 31 1 56 1 56 0 0 0 -7 -15 -16 -33
-32 -64 25 -141 104 -141 40 0 88 23 102 49 14 27 13 94 -2 110 -10 11 -10 14
0 18 6 3 12 13 12 23 0 18 -11 19 -156 22 -118 2 -158 0 -161 -9z m261 -59
c24 -23 20 -70 -6 -88 -48 -34 -118 -8 -118 44 0 39 24 60 70 60 22 0 45 -7
54 -16z"/>
<path d="M7066 10018 c-9 -12 -16 -35 -16 -50 0 -18 -5 -28 -15 -28 -8 0 -15
-9 -15 -20 0 -11 7 -20 15 -20 12 0 15 -17 15 -90 0 -89 0 -90 25 -90 25 0 25
1 25 90 0 89 0 90 25 90 18 0 25 5 25 20 0 15 -7 20 -26 20 -22 0 -25 4 -22
28 2 21 9 28 31 30 19 2 27 9 27 23 0 29 -73 27 -94 -3z"/>
<path d="M7870 9880 l0 -160 25 0 25 0 0 160 0 160 -25 0 -25 0 0 -160z"/>
<path d="M8990 9880 l0 -160 25 0 c24 0 25 2 25 71 0 81 11 109 43 109 38 0
47 -19 47 -102 0 -77 0 -78 25 -78 25 0 25 1 25 80 0 92 -12 124 -51 140 -29
12 -69 5 -81 -14 -4 -6 -8 17 -8 52 0 59 -1 62 -25 62 l-25 0 0 -160z"/>
<path d="M9442 9880 l-3 -160 26 0 25 0 0 160 c0 159 0 160 -22 160 -23 0 -23
-2 -26 -160z"/>
<path d="M9566 10018 c-9 -12 -16 -35 -16 -50 0 -18 -5 -28 -15 -28 -8 0 -15
-9 -15 -20 0 -11 7 -20 15 -20 12 0 15 -17 15 -90 0 -89 0 -90 25 -90 25 0 25
1 25 90 0 89 0 90 25 90 18 0 25 5 25 20 0 15 -7 20 -26 20 -22 0 -25 4 -22
28 2 21 9 28 31 30 19 2 27 9 27 23 0 29 -73 27 -94 -3z"/>
<path d="M8770 9970 c0 -23 -4 -30 -20 -30 -13 0 -20 -7 -20 -20 0 -13 7 -20
20 -20 18 0 20 -7 20 -78 0 -89 8 -102 62 -102 31 0 38 4 38 20 0 13 -7 20
-18 20 -31 0 -42 22 -42 82 0 55 1 58 25 58 18 0 25 5 25 20 0 15 -7 20 -25
20 -21 0 -25 5 -25 30 0 23 -4 30 -20 30 -16 0 -20 -7 -20 -30z"/>
<path d="M7223 9935 c-84 -36 -82 -175 3 -211 59 -25 114 0 141 65 25 58 -4
131 -59 150 -39 14 -46 13 -85 -4z m91 -57 c47 -67 -27 -155 -86 -101 -23 20
-24 80 -1 105 23 25 68 23 87 -4z"/>
<path d="M7491 9941 c-8 -5 -29 -7 -48 -4 l-33 6 0 -112 0 -111 25 0 c24 0 25
2 25 74 0 79 13 106 51 106 14 0 19 7 19 25 0 26 -14 31 -39 16z"/>
<path d="M7704 9940 c-21 -8 -54 -46 -54 -62 0 -15 48 -8 54 7 8 21 65 20 73
-1 8 -21 -13 -34 -55 -34 -37 0 -82 -37 -82 -67 0 -52 61 -84 111 -59 16 8 29
10 29 5 0 -5 11 -9 25 -9 25 0 25 1 25 80 0 93 -12 125 -53 140 -35 12 -44 12
-73 0z m76 -139 c0 -26 -24 -43 -57 -39 -37 4 -39 39 -3 49 45 12 60 10 60
-10z"/>
<path d="M8045 9940 c-11 -4 -32 -5 -47 -3 l-28 6 0 -112 c0 -104 1 -111 20
-111 18 0 20 7 20 64 0 83 12 116 43 116 38 0 47 -19 47 -102 0 -76 1 -78 25
-78 24 0 24 2 27 88 3 84 4 87 27 90 38 6 51 -22 51 -105 0 -69 1 -73 23 -73
21 0 22 2 19 95 -3 88 -5 96 -29 115 -31 24 -45 25 -84 5 -27 -14 -32 -14 -51
0 -25 17 -34 17 -63 5z"/>
<path d="M8360 9932 c-64 -32 -78 -129 -25 -186 19 -21 33 -26 70 -26 57 0 80
12 100 50 32 62 8 141 -50 166 -44 18 -53 18 -95 -4z m92 -49 c22 -20 24 -71
2 -101 -33 -48 -104 -15 -104 48 0 60 60 91 102 53z"/>
<path d="M8600 9943 c-55 -20 -67 -78 -24 -112 15 -12 35 -21 45 -21 47 0 70
-42 30 -55 -21 -6 -51 3 -51 16 0 5 -11 9 -25 9 -14 0 -25 -6 -25 -13 0 -50
117 -71 152 -28 19 24 23 57 10 79 -5 7 -31 21 -58 30 -50 18 -68 44 -39 56 9
3 25 1 35 -4 22 -12 60 -13 60 -2 -1 35 -65 61 -110 45z"/>
<path d="M9274 9941 c-21 -9 -54 -48 -54 -63 0 -15 48 -8 54 8 8 21 70 15 74
-7 2 -13 -11 -20 -55 -30 -45 -11 -61 -20 -73 -41 -13 -25 -13 -31 0 -55 19
-34 68 -46 107 -26 18 9 29 11 31 4 2 -6 12 -11 23 -11 17 0 19 8 19 89 0 70
-4 93 -17 110 -20 24 -77 35 -109 22z m79 -138 c-11 -32 -25 -43 -53 -43 -49
0 -45 40 5 53 42 10 55 8 48 -10z"/>
<path d="M2002 9750 c-43 -59 -72 -110 -72 -125 0 -23 3 -24 72 -27 l73 -3 -3
-37 c-3 -36 -2 -38 27 -38 29 0 31 2 31 40 0 33 3 40 20 40 13 0 20 7 20 20 0
13 -7 20 -20 20 -19 0 -20 7 -20 105 l0 105 -28 0 c-25 0 -39 -13 -100 -100z
m75 -107 c-3 -2 -25 -3 -50 -1 l-46 3 47 65 47 65 3 -64 c2 -35 1 -65 -1 -68z"/>
<path d="M610 9817 c0 -31 75 -73 155 -88 49 -9 67 -7 123 10 79 24 128 60
119 85 -6 14 -13 13 -62 -15 -94 -53 -197 -51 -287 7 -46 30 -48 30 -48 1z"/>
<path d="M2227 9822 c-24 -26 -22 -94 2 -116 45 -41 120 10 106 73 -4 17 -13
38 -22 46 -20 21 -66 19 -86 -3z m63 -26 c6 -8 10 -25 8 -38 -2 -17 -10 -23
-28 -23 -18 0 -26 6 -28 23 -3 22 13 52 28 52 4 0 13 -7 20 -14z"/>
<path d="M2387 9778 c-140 -256 -146 -268 -127 -268 13 0 33 28 68 98 28 54
67 126 86 161 41 72 41 71 21 71 -7 0 -29 -28 -48 -62z"/>
<path d="M2381 9624 c-28 -35 -26 -69 4 -99 47 -48 105 -18 105 53 0 70 -68
98 -109 46z m74 -49 c0 -25 -4 -30 -25 -30 -16 0 -26 6 -28 18 -6 30 6 49 30
45 18 -2 23 -9 23 -33z"/>
<path d="M725 9556 c-76 -76 -14 -195 95 -183 62 7 100 50 100 112 0 32 -6 51
-24 71 l-23 28 -12 -23 c-10 -19 -10 -26 3 -40 22 -24 20 -57 -4 -81 -34 -34
-40 -24 -40 60 l0 80 -35 0 c-25 0 -44 -8 -60 -24z m65 -81 c0 -47 -2 -54 -17
-48 -46 16 -57 51 -26 85 30 33 43 23 43 -37z"/>
<path d="M7308 9509 c-10 -5 -21 -28 -24 -49 -4 -24 -12 -40 -20 -40 -8 0 -14
-9 -14 -20 0 -11 7 -20 15 -20 12 0 15 -17 15 -90 0 -89 0 -90 25 -90 25 0 25
1 25 90 0 89 0 90 25 90 18 0 25 5 25 20 0 15 -7 20 -26 20 -22 0 -25 4 -22
28 2 21 9 28 31 30 19 2 27 9 27 23 0 15 -7 19 -32 19 -18 0 -41 -5 -50 -11z"/>
<path d="M8260 9360 l0 -160 25 0 25 0 0 160 0 160 -25 0 -25 0 0 -160z"/>
<path d="M8440 9360 l0 -160 25 0 25 0 0 160 0 160 -25 0 -25 0 0 -160z"/>
<path d="M8666 9498 c-9 -12 -16 -35 -16 -50 0 -20 -5 -28 -18 -28 -11 0 -18
-7 -18 -20 0 -13 7 -20 18 -20 16 0 18 -10 18 -90 0 -83 1 -90 20 -90 19 0 20
7 20 90 0 89 0 90 25 90 18 0 25 5 25 20 0 15 -7 20 -25 20 -14 0 -25 5 -25
11 0 23 22 49 40 49 13 0 20 7 20 20 0 30 -63 28 -84 -2z"/>
<path d="M9530 9360 l0 -160 25 0 25 0 0 160 0 160 -25 0 -25 0 0 -160z"/>
<path d="M8537 9503 c-22 -21 2 -56 31 -46 20 7 15 53 -6 53 -10 0 -22 -3 -25
-7z"/>
<path d="M7530 9450 c0 -23 -4 -30 -20 -30 -13 0 -20 -7 -20 -20 0 -13 7 -20
20 -20 18 0 20 -7 20 -74 0 -86 12 -106 66 -106 27 0 34 4 34 20 0 13 -7 20
-19 20 -27 0 -32 11 -34 80 -2 59 -2 60 25 60 21 0 28 5 28 20 0 15 -7 20 -25
20 -21 0 -25 5 -25 30 0 25 -4 30 -25 30 -21 0 -25 -5 -25 -30z"/>
<path d="M7910 9450 c0 -23 -4 -30 -20 -30 -13 0 -20 -7 -20 -20 0 -13 7 -20
20 -20 18 0 20 -7 20 -74 0 -86 12 -106 66 -106 27 0 34 4 34 20 0 13 -7 20
-20 20 -25 0 -40 35 -40 96 0 42 1 44 30 44 23 0 30 4 30 20 0 15 -7 20 -25
20 -21 0 -25 5 -25 30 0 25 -4 30 -25 30 -21 0 -25 -5 -25 -30z"/>
<path d="M9190 9450 c0 -20 -5 -30 -15 -30 -8 0 -15 -9 -15 -20 0 -11 7 -20
15 -20 12 0 15 -14 15 -68 0 -84 16 -112 66 -112 27 0 34 4 34 19 0 13 -8 21
-22 23 -21 3 -23 9 -26 71 -3 66 -3 67 23 67 18 0 25 5 25 20 0 15 -7 20 -25
20 -21 0 -25 5 -25 30 0 25 -4 30 -25 30 -21 0 -25 -5 -25 -30z"/>
<path d="M7103 9423 c-41 -8 -73 -59 -73 -115 0 -41 5 -54 29 -79 85 -85 215
20 167 135 -11 26 -26 41 -50 51 -20 8 -39 14 -43 14 -4 -1 -18 -4 -30 -6z
m69 -60 c39 -35 10 -123 -41 -123 -25 0 -61 45 -61 76 0 52 64 82 102 47z"/>
<path d="M7700 9412 c-64 -32 -78 -135 -25 -188 32 -31 101 -33 138 -4 66 52
51 173 -25 199 -41 14 -47 14 -88 -7z m96 -57 c31 -47 1 -115 -50 -115 -25 0
-56 37 -56 68 0 67 72 99 106 47z"/>
<path d="M8091 9419 c-27 -10 -50 -37 -51 -56 0 -18 47 -16 54 2 8 21 62 20
70 -1 8 -22 7 -22 -48 -33 -26 -5 -56 -17 -66 -26 -25 -23 -26 -67 -2 -88 22
-20 92 -23 110 -5 9 9 12 9 12 0 0 -7 12 -12 26 -12 l27 0 -5 91 c-4 71 -10
95 -24 109 -24 23 -72 32 -103 19z m79 -133 c0 -24 -31 -47 -59 -44 -35 4 -36
39 -1 49 41 12 60 10 60 -5z"/>
<path d="M8810 9412 c-65 -33 -78 -131 -23 -186 36 -36 103 -37 139 -1 14 14
22 30 19 35 -9 15 -41 12 -55 -5 -18 -22 -57 -18 -74 7 -9 12 -16 26 -16 30 0
5 34 8 75 8 l75 0 0 31 c0 43 -16 69 -55 85 -43 18 -43 18 -85 -4z m88 -60 c2
-8 -13 -12 -47 -12 -42 0 -49 3 -44 16 14 36 78 33 91 -4z"/>
<path d="M9030 9423 c-30 -12 -50 -37 -50 -64 0 -34 20 -55 62 -64 42 -9 58
-22 51 -41 -7 -18 -59 -18 -70 -1 -5 9 -17 11 -33 7 l-25 -6 27 -27 c52 -52
148 -28 148 37 0 38 -21 61 -67 71 -17 3 -37 12 -43 20 -16 20 22 40 49 25 24
-12 61 -13 61 -2 0 28 -75 59 -110 45z"/>
<path d="M8530 9310 l0 -110 25 0 25 0 0 110 0 110 -25 0 -25 0 0 -110z"/>
<path d="M9305 9398 c4 -13 22 -64 39 -113 35 -102 35 -125 1 -125 -23 0 -42
-35 -24 -46 14 -8 66 5 79 21 7 8 33 75 60 150 l48 136 -26 -3 c-24 -3 -29
-12 -51 -83 l-24 -80 -27 80 c-24 72 -29 80 -54 83 -25 3 -27 1 -21 -20z"/>
<path d="M9631 9364 c-49 -62 -8 -175 57 -159 31 7 69 41 59 51 -4 4 -18 2
-31 -5 -35 -19 -60 -10 -64 22 -3 28 -3 29 50 26 l53 -3 -3 29 c-8 67 -81 90
-121 39z m87 -26 c3 -15 -4 -18 -32 -18 -38 0 -44 8 -24 28 17 17 52 11 56
-10z"/>
<path d="M738 9329 c-16 -6 -31 -22 -37 -40 -11 -32 -6 -54 17 -82 14 -16 14
-19 -2 -30 -21 -15 -25 -80 -6 -102 9 -11 9 -15 1 -15 -6 0 -11 -11 -11 -25
l0 -25 110 0 110 0 0 25 c0 24 -2 25 -74 25 -78 0 -106 13 -106 49 0 32 22 41
102 41 77 0 78 0 78 25 0 24 -2 25 -68 25 -72 0 -112 17 -112 49 0 32 22 41
102 41 77 0 78 0 78 25 0 25 -1 25 -77 24 -43 0 -90 -5 -105 -10z"/>
<path d="M8894 8995 c-8 -21 2 -45 19 -45 21 0 38 25 31 44 -8 20 -43 21 -50
1z"/>
<path d="M8759 8978 c-1 -2 -2 -16 -3 -33 0 -19 -6 -30 -16 -30 -8 0 -16 -10
-18 -22 -3 -17 2 -23 15 -23 16 0 18 -9 18 -76 0 -84 13 -104 67 -104 23 0 28
4 28 26 0 14 -4 23 -9 20 -5 -4 -16 -3 -25 0 -12 5 -16 21 -16 70 0 35 5 65
10 65 6 1 16 2 23 3 21 2 14 41 -8 41 -15 0 -21 8 -23 33 -2 24 -8 32 -23 32
-10 0 -19 -1 -20 -2z"/>
<path d="M771 8957 c-46 -16 -74 -56 -74 -106 0 -77 49 -117 133 -108 62 7 90
41 90 108 0 42 -5 55 -29 80 -16 16 -36 29 -44 29 -9 0 -21 2 -29 4 -7 3 -28
0 -47 -7z m91 -64 c25 -23 23 -68 -4 -87 -69 -48 -156 26 -101 86 20 23 80 24
105 1z"/>
<path d="M7084 8909 c-68 -33 -71 -173 -5 -209 42 -22 110 -8 138 29 17 22 16
28 -8 34 -13 3 -28 -2 -40 -14 -41 -41 -89 -10 -89 57 0 22 5 45 12 52 17 17
63 15 78 -3 18 -22 50 -19 50 4 0 45 -83 75 -136 50z"/>
<path d="M7301 8906 c-54 -30 -70 -133 -28 -181 46 -54 147 -41 173 21 24 58
18 102 -20 140 -37 37 -81 44 -125 20z m99 -55 c16 -31 12 -79 -10 -101 -25
-25 -41 -25 -71 -1 -26 21 -32 79 -10 105 19 23 78 21 91 -3z"/>
<path d="M7497 8913 c-4 -3 -7 -55 -7 -115 l0 -108 25 0 c24 0 25 2 25 73 0
86 13 110 55 105 l30 -3 3 -87 c3 -86 3 -88 27 -88 25 0 25 1 25 90 0 83 -2
93 -25 115 -25 26 -63 32 -96 15 -13 -7 -19 -7 -19 0 0 11 -33 14 -43 3z"/>
<path d="M7747 8909 c-26 -15 -38 -54 -27 -83 6 -18 22 -29 52 -37 53 -15 68
-26 61 -45 -7 -18 -60 -18 -70 1 -9 15 -53 10 -53 -5 0 -20 55 -50 89 -50 51
0 81 23 81 64 0 38 -21 61 -65 72 -43 10 -58 23 -44 40 13 16 45 18 54 4 8
-13 55 -13 55 -1 0 5 -12 19 -26 30 -29 23 -78 27 -107 10z"/>
<path d="M7920 8832 c0 -110 18 -142 79 -142 20 0 42 5 49 12 9 9 12 9 12 0 0
-7 11 -12 25 -12 l24 0 -2 113 c-2 108 -3 112 -24 115 -22 3 -23 1 -23 -76 0
-64 -4 -82 -18 -95 -22 -20 -46 -22 -60 -4 -6 7 -12 49 -14 92 -3 74 -5 80
-25 83 -22 3 -23 1 -23 -86z"/>
<path d="M8150 8805 l0 -115 25 0 c25 0 25 2 25 78 0 42 4 82 8 88 11 17 35
22 55 12 14 -7 17 -23 17 -93 0 -84 0 -85 25 -85 24 0 24 2 27 88 l3 87 29 3
c39 5 46 -10 46 -100 0 -77 0 -78 26 -78 l26 0 -4 96 c-4 86 -7 99 -27 115
-27 22 -69 24 -97 5 -17 -12 -22 -12 -39 0 -22 17 -67 18 -82 3 -8 -8 -13 -8
-17 0 -4 6 -16 11 -27 11 -18 0 -19 -8 -19 -115z"/>
<path d="M8500 8759 l0 -160 23 3 c20 3 22 9 22 56 0 50 7 64 20 42 3 -5 23
-10 44 -10 70 0 116 78 91 154 -22 66 -88 95 -138 60 -20 -14 -22 -14 -22 0 0
9 -9 16 -20 16 -19 0 -20 -7 -20 -161z m142 94 c24 -22 24 -77 -2 -103 -25
-25 -41 -25 -70 -2 -25 20 -31 82 -10 107 17 20 59 19 82 -2z"/>
<path d="M8897 8913 c-3 -5 -4 -55 -3 -113 1 -101 2 -105 24 -108 22 -3 22 -2
22 112 0 108 -1 116 -19 116 -11 0 -22 -3 -24 -7z"/>
<path d="M9033 8910 c-62 -25 -76 -139 -24 -191 43 -43 101 -41 147 5 29 29
34 41 34 81 0 40 -5 52 -34 81 -35 35 -75 43 -123 24z m95 -58 c30 -38 0 -122
-43 -122 -23 0 -65 46 -65 70 0 65 70 98 108 52z"/>
<path d="M9220 8805 l0 -115 25 0 c25 0 25 1 25 78 0 85 8 102 51 102 34 0 39
-14 39 -106 0 -72 1 -74 25 -74 25 0 25 1 25 83 0 46 -6 93 -13 107 -17 33
-59 47 -97 33 -17 -6 -30 -7 -30 -2 0 5 -11 9 -25 9 l-25 0 0 -115z"/>
<path d="M862 8699 c-11 -18 -11 -24 2 -38 37 -41 9 -86 -54 -86 -62 0 -91 45
-55 85 17 19 10 50 -11 50 -35 0 -58 -94 -34 -141 23 -42 102 -61 155 -37 55
25 73 116 33 163 l-23 26 -13 -22z"/>
<path d="M2014 8636 c-32 -14 -67 -53 -59 -66 3 -4 16 -10 30 -12 18 -4 26 0
30 13 7 22 37 33 65 24 15 -5 20 -15 20 -39 0 -39 -15 -56 -52 -56 -23 0 -28
-4 -28 -25 0 -21 5 -25 28 -25 41 0 68 -33 56 -68 -13 -37 -74 -44 -97 -12
-11 16 -21 19 -41 14 -33 -8 -33 -19 3 -55 25 -25 37 -29 81 -29 44 0 56 4 81
29 38 38 40 91 5 126 -23 23 -23 24 -5 41 27 24 32 49 19 90 -9 26 -22 40 -46
50 -41 17 -50 17 -90 0z"/>
<path d="M2232 8624 c-17 -12 -22 -25 -22 -59 0 -53 19 -75 66 -75 31 0 37 5
50 35 17 42 10 80 -19 100 -27 19 -47 19 -75 -1z m64 -39 c11 -27 -5 -65 -26
-65 -13 0 -22 9 -26 25 -8 34 1 55 26 55 11 0 23 -7 26 -15z"/>
<path d="M2377 8558 c-40 -74 -126 -240 -136 -261 -2 -5 4 -7 14 -5 10 2 52
70 106 173 49 93 89 171 89 172 0 2 -6 3 -14 3 -8 0 -34 -37 -59 -82z"/>
<path d="M7621 8487 c-17 -21 -3 -49 23 -45 15 2 21 10 21 28 0 28 -26 38 -44
17z"/>
<path d="M8123 8493 c-7 -2 -13 -16 -13 -29 0 -19 5 -24 24 -24 30 0 40 24 20
45 -9 8 -16 15 -17 14 -1 0 -8 -3 -14 -6z"/>
<path d="M723 8465 c-29 -21 -38 -68 -20 -105 9 -16 11 -30 6 -30 -5 0 -9 -10
-9 -22 0 -22 3 -23 110 -23 l110 0 0 28 0 27 -78 0 c-82 0 -102 9 -102 45 0
36 20 45 102 45 77 0 78 0 78 25 0 25 -1 25 -88 25 -62 0 -94 -4 -109 -15z"/>
<path d="M2385 8416 c-48 -48 -21 -126 44 -126 54 0 81 75 44 118 -30 34 -59
37 -88 8z m69 -38 c14 -23 -3 -53 -30 -53 -20 0 -31 33 -20 61 7 19 35 14 50
-8z"/>
<path d="M7078 8393 c-34 -21 -48 -53 -48 -108 0 -52 35 -100 79 -110 36 -8
95 16 110 43 9 17 8 22 -10 27 -13 4 -27 1 -39 -10 -26 -24 -72 -16 -87 15
l-12 25 79 3 c77 3 80 4 80 27 0 82 -84 130 -152 88z m80 -39 c34 -24 26 -34
-28 -34 -27 0 -50 4 -50 9 0 10 39 41 50 41 3 0 16 -7 28 -16z"/>
<path d="M7357 8403 c-4 -3 -25 -6 -47 -5 l-40 2 0 -108 c0 -60 3 -111 6 -114
3 -3 14 -4 25 -1 17 5 19 15 19 82 0 82 9 101 46 101 29 0 34 -17 34 -106 0
-59 3 -74 15 -74 8 0 18 0 23 0 4 0 9 39 12 87 5 83 6 88 28 91 42 6 52 -14
52 -99 0 -78 0 -79 25 -79 25 0 25 1 25 80 0 52 -5 91 -15 110 -19 36 -66 48
-100 26 -21 -14 -27 -14 -52 -1 -31 16 -46 19 -56 8z"/>
<path d="M7753 8400 c-24 -10 -43 -39 -43 -68 0 -26 27 -48 78 -61 31 -9 42
-17 42 -31 0 -10 -8 -21 -19 -25 -21 -6 -51 3 -51 16 0 11 -47 12 -54 1 -9
-14 31 -50 63 -57 60 -13 111 19 111 70 0 39 -13 51 -71 68 -48 14 -63 41 -29
52 14 4 28 1 39 -9 13 -12 25 -14 40 -8 22 8 22 8 4 30 -20 25 -76 37 -110 22z"/>
<path d="M7960 8403 c-30 -11 -50 -37 -50 -64 0 -35 21 -56 71 -69 43 -12 61
-36 38 -51 -21 -13 -37 -11 -56 9 -18 17 -63 18 -63 1 0 -5 9 -18 20 -29 61
-61 176 -15 157 63 -6 20 -19 30 -60 45 -28 11 -53 27 -55 35 -4 22 36 32 56
15 20 -17 52 -12 52 7 0 28 -71 52 -110 38z"/>
<path d="M8242 8390 c-60 -37 -72 -128 -24 -182 25 -27 36 -31 77 -31 41 0 52
4 77 31 40 45 40 118 1 162 -37 41 -86 48 -131 20z m85 -38 c22 -14 33 -60 22
-89 -12 -32 -26 -43 -56 -43 -33 0 -53 27 -53 70 0 22 7 45 16 54 16 17 51 21
71 8z"/>
<path d="M8502 8394 c-12 -8 -22 -10 -22 -5 0 6 -9 11 -20 11 -19 0 -20 -7
-20 -110 0 -103 1 -110 20 -110 18 0 20 7 20 68 0 77 17 112 55 112 34 0 45
-27 45 -109 0 -67 1 -71 23 -71 21 0 22 2 19 95 -3 88 -5 96 -29 115 -31 24
-61 26 -91 4z"/>
<path d="M8700 8398 c-31 -17 -49 -62 -34 -86 13 -20 48 -39 87 -47 32 -6 38
-40 8 -50 -21 -6 -51 3 -51 16 0 5 -11 9 -25 9 -31 0 -32 -20 -4 -46 32 -29
105 -26 130 5 39 47 18 96 -47 112 -48 12 -67 35 -43 50 20 12 35 11 51 -4 7
-7 23 -11 37 -7 23 5 23 6 5 28 -23 28 -80 37 -114 20z"/>
<path d="M7620 8290 l0 -110 25 0 25 0 0 110 0 110 -25 0 -25 0 0 -110z"/>
<path d="M8110 8290 l0 -110 25 0 25 0 0 110 0 110 -25 0 -25 0 0 -110z"/>
<path d="M614 8226 c-9 -24 4 -48 23 -44 12 2 18 12 18 28 0 29 -32 41 -41 16z"/>
<path d="M700 8210 l0 -30 110 0 110 0 0 30 0 30 -110 0 -110 0 0 -30z"/>
<path d="M700 8056 c0 -21 10 -27 81 -52 l81 -28 -41 -18 c-23 -9 -59 -23 -81
-29 -34 -11 -40 -16 -40 -41 0 -15 1 -28 3 -28 2 0 32 12 68 26 35 14 86 35
112 45 l48 19 25 -25 c30 -30 54 -32 54 -6 0 31 -59 69 -181 117 -62 24 -116
44 -121 44 -4 0 -8 -11 -8 -24z"/>
<path d="M743 7828 c-43 -21 -61 -86 -38 -140 6 -16 1 -18 -44 -18 -48 0 -51
-1 -51 -26 l0 -25 155 2 155 2 0 24 c0 12 -5 23 -10 23 -7 0 -7 6 0 19 20 39
12 91 -19 122 -25 24 -37 29 -78 28 -26 0 -58 -5 -70 -11z m119 -55 c25 -23
23 -68 -4 -87 -29 -20 -82 -20 -102 0 -22 21 -21 80 2 93 27 16 83 13 104 -6z"/>
<path d="M600 7455 c0 -24 3 -25 59 -25 l59 0 -14 -41 c-13 -36 -12 -44 3 -76
47 -99 213 -69 213 39 0 22 -5 48 -10 59 -7 13 -7 19 0 19 5 0 10 11 10 25 l0
25 -160 0 -160 0 0 -25z m262 -42 c22 -19 24 -76 4 -92 -20 -17 -91 -18 -110
-2 -21 17 -21 69 1 93 20 23 80 24 105 1z"/>
<path d="M1951 7394 c-29 -24 -42 -64 -22 -64 5 0 16 -2 23 -5 9 -4 19 4 26
20 22 49 102 24 88 -27 -3 -13 -37 -60 -76 -105 -48 -55 -70 -90 -70 -107 l0
-26 105 0 105 0 0 25 c0 24 -2 25 -71 25 l-70 0 23 28 c106 130 108 133 108
173 0 57 -34 89 -94 89 -33 0 -52 -6 -75 -26z"/>
<path d="M2230 7400 c-42 -42 -15 -140 39 -140 37 0 66 35 66 80 0 69 -61 104
-105 60z m65 -60 c0 -29 -4 -36 -23 -38 -26 -4 -37 17 -28 54 5 19 12 25 29
22 18 -2 22 -9 22 -38z"/>
<path d="M2338 7258 c-100 -195 -93 -178 -74 -178 13 0 123 200 184 333 2 4
-3 7 -12 7 -9 0 -45 -59 -98 -162z"/>
<path d="M2405 7218 c-29 -16 -35 -28 -35 -69 0 -44 25 -69 67 -69 36 0 52 16
59 62 9 55 -46 101 -91 76z m53 -66 c2 -22 -2 -34 -12 -38 -34 -13 -61 37 -34
64 21 21 43 9 46 -26z"/>
<path d="M744 7209 c-28 -14 -54 -61 -54 -99 0 -37 42 -85 84 -96 108 -27 191
95 122 180 l-23 30 -12 -23 c-10 -19 -10 -26 3 -40 22 -24 20 -57 -4 -81 -34
-34 -40 -24 -40 60 l0 80 -27 -1 c-16 0 -37 -5 -49 -10z m46 -94 c0 -59 -4
-63 -38 -39 -26 18 -28 50 -5 76 30 33 43 23 43 -37z"/>
<path d="M2176 7128 c-2 -7 -8 -27 -13 -45 -8 -24 -8 -35 2 -43 9 -7 15 -7 22
2 18 24 35 77 28 87 -9 15 -35 14 -39 -1z"/>
<path d="M700 6945 c0 -14 5 -25 10 -25 6 0 3 -14 -6 -32 -13 -26 -14 -38 -5
-70 25 -82 135 -104 193 -39 30 33 37 85 18 122 -9 16 -7 19 8 19 43 0 66 -64
41 -111 -8 -15 -7 -24 2 -35 22 -26 49 20 49 84 0 46 -4 58 -29 83 -29 29 -30
29 -155 29 l-126 0 0 -25z m160 -45 c39 -39 20 -95 -35 -106 -50 -9 -85 16
-85 61 0 59 77 88 120 45z"/>
<path d="M726 6679 c-21 -16 -26 -29 -26 -63 0 -23 5 -47 12 -54 9 -9 9 -12 0
-12 -7 0 -12 -11 -12 -25 l0 -25 110 0 110 0 0 25 c0 24 -2 25 -68 25 -76 0
-112 17 -112 54 0 37 19 46 102 46 77 0 78 0 78 25 0 25 -1 25 -84 25 -69 0
-88 -4 -110 -21z"/>
<path d="M7040 6430 l0 -160 25 0 c24 0 25 3 25 60 l0 60 45 0 c96 0 145 62
108 137 -24 49 -53 63 -135 63 l-68 0 0 -160z m148 98 c7 -7 12 -27 12 -45 0
-38 -21 -53 -74 -53 l-36 0 0 55 0 55 43 0 c24 0 48 -5 55 -12z"/>
<path d="M8616 6578 c-3 -7 -7 -45 -10 -85 -5 -64 -4 -72 13 -78 10 -3 30 0
44 6 37 17 75 4 83 -27 16 -62 -46 -106 -90 -65 -25 24 -66 28 -66 7 0 -7 11
-25 25 -40 19 -21 33 -26 70 -26 57 0 80 12 100 50 43 82 -19 174 -105 156
-26 -5 -30 -3 -30 17 0 37 13 46 75 49 53 3 60 5 63 26 3 21 1 22 -83 22 -60
0 -87 -4 -89 -12z"/>
<path d="M8880 6562 c-68 -69 -62 -224 11 -276 109 -76 215 107 143 246 -33
63 -106 78 -154 30z m106 -46 c18 -29 21 -134 4 -165 -6 -12 -19 -25 -30 -31
-16 -9 -25 -6 -45 14 -22 22 -25 34 -25 93 0 78 17 113 55 113 15 0 31 -10 41
-24z"/>
<path d="M9215 6576 c-14 -10 -20 -26 -20 -56 0 -30 6 -46 20 -56 44 -33 105
-1 105 56 0 57 -61 89 -105 56z m66 -43 c10 -27 -10 -57 -34 -47 -17 6 -24 54
-10 68 13 12 36 2 44 -21z"/>
<path d="M9337 6472 c-37 -64 -79 -136 -93 -159 -23 -39 -23 -43 -7 -43 12 0
38 35 83 112 36 62 77 134 93 160 24 42 25 48 10 48 -12 0 -39 -37 -86 -118z"/>
<path d="M8360 6530 c0 -20 -5 -30 -15 -30 -8 0 -15 -9 -15 -20 0 -11 7 -20
15 -20 12 0 15 -15 15 -75 0 -86 18 -115 70 -115 25 0 30 4 30 24 0 18 -6 25
-22 28 -21 3 -23 9 -26 71 -3 66 -3 67 23 67 18 0 25 5 25 20 0 15 -7 20 -25
20 -21 0 -25 5 -25 30 0 25 -4 30 -25 30 -21 0 -25 -5 -25 -30z"/>
<path d="M7317 6489 c-26 -15 -47 -63 -47 -110 0 -87 106 -142 173 -89 56 44
58 140 5 185 -32 27 -97 34 -131 14z m103 -49 c28 -28 26 -75 -5 -106 -43 -43
-95 -12 -95 57 0 61 59 90 100 49z"/>
<path d="M7547 6476 c-49 -46 -47 -137 5 -181 42 -36 97 -34 140 4 30 26 33
35 33 85 0 47 -4 59 -29 85 -39 41 -109 44 -149 7z m114 -37 c47 -47 -5 -148
-62 -119 -32 17 -39 29 -39 68 0 62 60 92 101 51z"/>
<path d="M7760 6385 l0 -115 25 0 c25 0 25 1 25 80 0 73 2 81 25 96 13 8 29
13 35 9 6 -4 10 4 10 19 0 20 -5 26 -23 26 -13 0 -28 -5 -35 -12 -9 -9 -12 -9
-12 0 0 7 -11 12 -25 12 l-25 0 0 -115z"/>
<path d="M7939 6471 c-25 -26 -29 -37 -29 -86 0 -49 4 -60 29 -86 39 -39 96
-40 140 -3 38 31 39 40 6 46 -14 3 -25 1 -25 -4 0 -4 -11 -13 -25 -20 -19 -9
-29 -8 -50 6 -35 23 -34 53 3 53 15 0 48 1 75 1 45 2 47 3 47 31 0 17 -11 42
-26 60 -22 26 -33 31 -71 31 -36 0 -50 -6 -74 -29z m109 -23 c26 -26 13 -38
-38 -38 -34 0 -50 4 -50 13 0 21 22 37 50 37 14 0 31 -5 38 -12z"/>
<path d="M8160 6480 c-42 -42 -17 -94 58 -115 27 -8 37 -16 37 -30 0 -26 -44
-33 -61 -10 -8 11 -20 15 -33 10 -49 -15 0 -65 64 -65 115 0 114 123 -1 144
-26 5 -34 12 -32 24 4 22 34 27 63 12 16 -8 28 -9 40 -2 16 9 16 11 -4 31 -29
29 -103 29 -131 1z"/>
<path d="M744 6450 c-63 -25 -72 -123 -15 -167 23 -17 28 -16 34 9 4 15 0 26
-13 35 -26 18 -26 59 -1 73 35 18 41 12 41 -49 0 -68 15 -91 60 -91 53 0 88
77 60 131 -7 13 -7 19 0 19 5 0 10 11 10 25 0 25 -1 25 -77 24 -43 0 -88 -4
-99 -9z m132 -69 c17 -33 3 -66 -27 -66 -22 0 -24 5 -27 48 -3 46 -2 48 20 45
12 -2 28 -14 34 -27z"/>
<path d="M9369 6392 c-43 -36 -18 -122 36 -122 37 0 68 32 68 70 0 36 -31 70
-63 70 -10 0 -28 -8 -41 -18z m59 -24 c28 -28 -3 -83 -33 -58 -8 7 -15 20 -15
29 0 17 18 41 30 41 3 0 11 -5 18 -12z"/>
<path d="M702 6185 l1 -55 108 0 109 0 0 25 c0 25 -1 25 -78 25 -81 0 -102 9
-102 42 0 11 -7 18 -19 18 -17 0 -19 -7 -19 -55z"/>
<path d="M1631 6197 c-13 -6 -33 -25 -45 -40 -18 -24 -19 -29 -6 -37 24 -16
47 -11 53 10 6 24 52 37 72 20 34 -28 19 -62 -77 -171 -39 -45 -58 -75 -58
-93 l0 -26 105 0 105 0 0 25 c0 24 -2 25 -71 25 l-71 0 55 63 c56 64 87 114
87 142 0 32 -30 73 -61 84 -41 14 -58 14 -88 -2z"/>
<path d="M1954 6109 c-11 -100 -5 -112 42 -90 39 17 82 14 94 -8 16 -31 12
-69 -10 -91 -26 -26 -46 -25 -75 4 -17 17 -31 22 -49 19 -14 -3 -26 -10 -26
-15 0 -17 57 -67 84 -74 38 -9 74 3 107 36 24 24 29 37 29 80 0 44 -4 56 -30
82 -26 26 -36 30 -75 26 l-45 -3 0 37 0 38 70 0 c68 0 70 1 70 25 0 25 -1 25
-89 25 l-88 0 -9 -91z"/>
<path d="M2224 6179 c-22 -24 -25 -89 -5 -113 18 -22 74 -21 94 2 10 10 17 35
17 55 0 67 -65 101 -106 56z m74 -50 c3 -29 -20 -54 -43 -45 -15 5 -21 57 -8
70 16 16 48 1 51 -25z"/>
<path d="M2402 6168 c-10 -18 -52 -95 -91 -171 -56 -107 -69 -138 -55 -135 12
2 50 62 106 167 48 90 88 166 88 168 0 1 -6 3 -14 3 -8 0 -23 -15 -34 -32z"/>
<path d="M700 6062 c0 -15 5 -33 12 -40 9 -9 9 -12 0 -12 -7 0 -12 -11 -12
-25 l0 -25 110 0 110 0 0 25 c0 24 -2 25 -68 25 -80 0 -117 19 -109 56 3 20 0
24 -19 24 -20 0 -24 -5 -24 -28z"/>
<path d="M8520 6065 c-17 -20 -5 -45 20 -45 11 0 23 7 26 15 6 15 -11 45 -26
45 -4 0 -13 -7 -20 -15z"/>
<path d="M8610 5921 l0 -161 25 0 c14 0 25 6 25 13 0 8 2 9 8 1 13 -20 51 -26
87 -14 47 16 69 58 63 122 -8 82 -68 124 -130 93 -17 -8 -32 -15 -32 -15 -1 0
-1 26 -1 57 0 53 -2 58 -22 61 l-23 3 0 -160z m144 3 c9 -9 16 -32 16 -54 0
-43 -20 -70 -53 -70 -30 0 -44 11 -56 43 -11 29 0 75 22 89 20 13 55 9 71 -8z"/>
<path d="M8860 5917 c0 -156 1 -163 20 -163 19 0 20 7 20 163 0 156 -1 163
-20 163 -19 0 -20 -7 -20 -163z"/>
<path d="M2385 5985 c-48 -47 -20 -125 43 -125 38 0 62 28 62 73 0 70 -59 99
-105 52z m71 -41 c8 -31 -14 -58 -39 -48 -17 6 -24 54 -10 67 16 16 43 6 49
-19z"/>
<path d="M7125 5982 c-11 -2 -26 -9 -32 -14 -9 -7 -13 -7 -13 1 0 6 -9 11 -20
11 -19 0 -20 -7 -20 -109 0 -100 2 -109 20 -114 28 -7 33 7 26 71 -7 70 8 106
47 110 19 2 27 9 27 22 0 23 -8 28 -35 22z"/>
<path d="M7244 5981 c-68 -29 -87 -135 -35 -193 26 -29 35 -33 75 -32 34 1 53
7 71 24 30 29 31 37 4 45 -13 4 -27 1 -38 -9 -29 -27 -68 -20 -86 14 l-16 30
81 0 80 0 0 30 c0 60 -81 114 -136 91z m74 -53 c21 -21 14 -26 -38 -30 -50 -3
-62 6 -38 30 7 7 24 12 38 12 14 0 31 -5 38 -12z"/>
<path d="M7463 5983 c-27 -5 -53 -39 -53 -69 0 -26 44 -64 74 -64 31 0 48 -15
44 -36 -4 -24 -41 -30 -61 -10 -19 20 -57 21 -57 3 0 -27 41 -52 85 -52 51 0
85 26 85 65 0 38 -19 58 -70 73 -48 14 -65 41 -31 50 11 2 28 -1 38 -7 10 -7
29 -10 42 -7 23 6 23 7 5 28 -20 22 -63 34 -101 26z"/>
<path d="M7697 5975 c-15 -7 -27 -10 -27 -4 0 5 -11 9 -25 9 l-25 0 0 -155 0
-155 25 0 c24 0 25 3 25 55 l0 55 25 -16 c16 -10 34 -14 54 -9 78 17 110 134
54 194 -34 36 -70 45 -106 26z m65 -52 c39 -36 13 -123 -38 -123 -34 0 -54 26
-54 70 0 63 50 92 92 53z"/>
<path d="M7922 5979 c-71 -21 -97 -131 -44 -190 24 -27 36 -32 75 -33 79 -2
129 66 107 146 -18 65 -74 96 -138 77z m79 -55 c7 -9 14 -33 14 -54 0 -21 -7
-45 -14 -54 -17 -21 -59 -21 -83 1 -23 20 -24 80 -1 105 20 22 66 23 84 2z"/>
<path d="M8168 5976 c-16 -8 -28 -11 -28 -5 0 5 -9 9 -20 9 -19 0 -20 -7 -20
-115 0 -113 0 -115 23 -111 20 3 22 8 23 79 1 83 12 107 50 107 33 0 44 -28
44 -113 0 -64 2 -73 18 -72 22 1 22 1 22 99 0 65 -4 88 -17 104 -24 28 -62 35
-95 18z"/>
<path d="M8375 5983 c-34 -9 -55 -35 -55 -68 0 -39 11 -49 67 -64 50 -14 61
-27 39 -49 -16 -16 -19 -16 -47 1 -32 18 -69 23 -69 9 0 -22 34 -50 66 -57 48
-9 89 9 104 46 18 42 -6 74 -68 92 -69 20 -63 43 11 39 60 -2 69 4 40 31 -21
18 -60 27 -88 20z"/>
<path d="M8992 5975 c-84 -37 -76 -189 12 -218 54 -18 142 28 121 63 -9 15
-42 12 -49 -5 -8 -21 -59 -19 -79 3 -32 35 -21 42 63 42 65 0 80 3 80 15 0 24
-25 78 -42 92 -24 21 -71 24 -106 8z m88 -55 c10 -19 8 -20 -45 -20 -53 0 -55
1 -45 20 8 14 21 20 45 20 24 0 37 -6 45 -20z"/>
<path d="M8518 5869 c-2 -61 -2 -112 0 -113 1 -2 12 -1 25 1 21 4 22 7 19 114
-3 99 -5 109 -22 109 -17 0 -19 -10 -22 -111z"/>
<path d="M1835 5918 c-7 -24 -25 -93 -25 -100 0 -5 9 -8 21 -8 28 0 66 84 49
106 -15 17 -39 18 -45 2z"/>
<path d="M725 5887 c-17 -14 -28 -36 -32 -63 -4 -33 -1 -45 22 -72 32 -38 41
-40 48 -10 4 15 0 26 -13 35 -26 18 -26 59 -1 73 35 18 41 12 41 -48 0 -64 18
-92 57 -92 55 0 92 85 59 135 -14 22 -15 25 -1 25 8 0 15 9 15 20 0 18 -7 20
-84 20 -74 0 -88 -3 -111 -23z m139 -33 c21 -8 21 -67 1 -84 -27 -22 -45 -4
-45 45 0 46 8 53 44 39z"/>
<path d="M741 5552 c-49 -24 -65 -97 -27 -125 8 -6 8 -10 -1 -14 -7 -2 -13
-13 -13 -24 0 -18 8 -19 110 -19 l110 0 0 25 c0 25 -1 25 -78 25 -82 0 -102 9
-102 45 0 41 15 50 100 53 77 4 80 5 80 28 0 23 -3 24 -72 24 -50 0 -84 -6
-107 -18z"/>
<path d="M7082 5554 c-16 -11 -22 -25 -22 -51 0 -26 -5 -36 -20 -40 -25 -7
-27 -43 -2 -43 15 0 17 -10 14 -90 l-3 -90 25 0 c26 0 26 0 26 90 0 89 0 90
25 90 18 0 25 5 25 20 0 15 -7 20 -26 20 -22 0 -25 4 -22 28 2 21 9 28 31 30
46 5 31 52 -17 52 -6 0 -22 -7 -34 -16z"/>
<path d="M8110 5400 l0 -160 25 0 25 0 0 160 0 160 -25 0 -25 0 0 -160z"/>
<path d="M9648 5499 l4 -61 -23 16 c-66 46 -149 -12 -149 -104 0 -38 24 -86
49 -100 27 -14 84 -13 100 3 11 10 14 10 18 0 3 -7 13 -13 24 -13 18 0 19 9
19 160 0 159 0 160 -22 160 -22 0 -23 -3 -20 -61z m-17 -95 c32 -39 2 -124
-44 -124 -48 0 -74 69 -47 121 13 24 72 26 91 3z"/>
<path d="M7213 5451 c-62 -39 -65 -144 -6 -191 60 -47 155 -9 168 69 7 42 -10
96 -38 119 -28 24 -89 25 -124 3z m99 -48 c24 -22 24 -77 -2 -103 -37 -37 -86
-19 -96 35 -12 68 50 112 98 68z"/>
<path d="M7472 5454 c-12 -8 -22 -10 -22 -5 0 6 -9 11 -20 11 -19 0 -20 -7
-20 -110 0 -103 1 -110 20 -110 18 0 20 7 20 64 0 85 12 116 45 116 20 0 25 5
25 25 0 29 -16 32 -48 9z"/>
<path d="M7691 5457 c-34 -20 -50 -55 -51 -110 0 -41 5 -53 29 -78 23 -23 38
-29 71 -29 52 0 76 13 95 50 40 77 0 167 -80 176 -24 3 -50 -1 -64 -9z m99
-56 c27 -51 1 -121 -45 -121 -48 0 -78 85 -45 125 18 22 77 19 90 -4z"/>
<path d="M7956 5463 c-4 -4 -22 -6 -41 -5 l-35 3 0 -111 0 -110 25 0 c25 0 25
1 25 78 0 85 8 102 51 102 34 0 39 -14 39 -106 0 -72 1 -74 25 -74 24 0 25 2
25 74 0 83 -14 132 -40 146 -22 12 -64 13 -74 3z"/>
<path d="M8530 5463 c-19 -7 -40 -33 -40 -50 0 -18 35 -16 50 2 15 18 42 19
58 3 22 -22 13 -38 -20 -38 -50 0 -98 -34 -98 -68 0 -60 56 -91 111 -62 13 7
19 7 19 0 0 -5 12 -10 26 -10 l26 0 -4 91 c-3 85 -5 92 -31 115 -27 23 -63 29
-97 17z m80 -141 c0 -25 -19 -42 -47 -42 -31 0 -42 29 -18 46 28 20 65 18 65
-4z"/>
<path d="M8777 5463 c-4 -3 -23 -6 -42 -5 l-35 1 0 -109 c0 -103 1 -110 20
-110 18 0 20 7 20 71 0 82 11 109 45 109 20 0 25 5 25 25 0 23 -18 34 -33 18z"/>
<path d="M8858 5454 c-53 -28 -71 -94 -44 -159 17 -40 42 -55 94 -55 49 0 86
28 102 76 33 100 -63 187 -152 138z m96 -56 c33 -47 6 -118 -44 -118 -50 0
-80 82 -43 122 23 25 68 23 87 -4z"/>
<path d="M9336 5463 c-4 -4 -22 -6 -41 -5 l-35 3 0 -111 0 -110 25 0 c24 0 25
2 25 71 0 86 11 109 50 109 39 0 50 -23 50 -109 0 -64 2 -71 20 -71 19 0 20 7
20 94 0 90 -1 96 -26 115 -26 21 -74 28 -88 14z"/>
<path d="M8180 5456 c0 -3 16 -50 36 -105 41 -117 41 -145 2 -149 -20 -2 -28
-9 -28 -23 0 -26 60 -27 84 0 13 14 106 257 106 276 0 3 -11 5 -23 5 -21 0
-27 -10 -49 -82 l-26 -83 -24 80 c-21 72 -26 80 -51 83 -15 2 -27 1 -27 -2z"/>
<path d="M9042 5370 c5 -105 20 -130 78 -130 20 0 41 5 48 12 9 9 12 9 12 0 0
-7 10 -12 23 -12 21 0 22 3 24 110 l2 110 -25 0 c-23 0 -24 -2 -24 -74 0 -79
-13 -106 -50 -106 -29 0 -40 31 -40 109 0 70 0 71 -26 71 l-26 0 4 -90z"/>
<path d="M741 5314 c-37 -26 -54 -77 -41 -124 13 -48 44 -71 105 -78 41 -4 47
-2 80 31 30 30 35 42 35 82 0 38 -5 52 -29 76 -25 24 -38 29 -78 29 -29 0 -58
-7 -72 -16z m121 -51 c37 -33 16 -89 -37 -99 -68 -12 -112 50 -68 98 20 23 80
24 105 1z"/>
<path d="M607 5057 c-8 -21 8 -39 29 -35 27 5 25 42 -2 46 -12 2 -24 -3 -27
-11z"/>
<path d="M700 5045 l0 -25 110 0 110 0 0 25 0 25 -110 0 -110 0 0 -25z"/>
<path d="M8166 5024 c-9 -8 -16 -29 -16 -46 0 -21 -6 -31 -20 -35 -11 -3 -20
-14 -20 -24 0 -12 7 -19 20 -19 19 0 20 -7 20 -90 0 -83 1 -90 20 -90 19 0 20
7 20 90 0 89 0 90 25 90 18 0 25 5 25 20 0 15 -7 20 -25 20 -25 0 -31 13 -19
44 4 10 18 16 35 16 22 0 29 5 29 20 0 17 -7 20 -39 20 -23 0 -46 -7 -55 -16z"/>
<path d="M9136 5032 c-3 -3 -6 -74 -6 -159 0 -152 0 -153 23 -153 22 0 22 0
20 157 -2 130 -4 157 -17 159 -8 1 -17 -1 -20 -4z"/>
<path d="M7083 5004 c-32 -19 -43 -32 -43 -50 0 -28 8 -30 36 -9 10 8 22 15
27 15 4 0 7 -54 7 -120 l0 -120 25 0 25 0 0 155 c0 176 0 176 -77 129z"/>
<path d="M7272 5020 c-32 -13 -62 -84 -62 -147 0 -98 37 -153 105 -153 67 0
105 55 105 152 0 113 -67 180 -148 148z m86 -70 c20 -39 11 -145 -15 -171 -27
-27 -57 -18 -73 21 -15 37 -9 142 10 165 19 23 62 15 78 -15z"/>
<path d="M7534 5022 c-15 -10 -34 -47 -34 -67 0 -25 46 -66 67 -58 52 18 68
67 37 111 -15 22 -49 29 -70 14z m46 -37 c17 -20 8 -50 -15 -50 -20 0 -31 25
-21 51 7 18 20 18 36 -1z"/>
<path d="M7622 4878 c-44 -84 -78 -155 -76 -157 13 -14 40 26 108 158 53 104
73 151 62 151 -8 0 -46 -62 -94 -152z"/>
<path d="M700 4965 c0 -31 -3 -35 -26 -35 -21 0 -25 -4 -22 -22 2 -16 12 -24
32 -28 17 -3 29 -9 27 -15 -4 -17 29 -18 35 -1 5 12 20 16 61 16 53 0 91 12
105 34 4 6 8 28 8 49 0 30 -4 37 -20 37 -15 0 -20 -7 -20 -29 0 -34 -13 -41
-84 -41 l-52 0 4 35 c4 32 2 35 -22 35 -23 0 -26 -4 -26 -35z"/>
<path d="M8390 4970 c0 -23 -4 -30 -20 -30 -13 0 -20 -7 -20 -20 0 -13 7 -20
20 -20 18 0 20 -7 20 -71 0 -92 10 -109 60 -109 33 0 40 3 40 20 0 13 -7 20
-20 20 -24 0 -27 7 -33 83 -4 57 -4 57 25 57 21 0 28 5 28 20 0 15 -7 20 -25
20 -21 0 -25 5 -25 30 0 25 -4 30 -25 30 -21 0 -25 -5 -25 -30z"/>
<path d="M8780 4970 c0 -23 -4 -30 -20 -30 -13 0 -20 -7 -20 -20 0 -13 7 -20
20 -20 18 0 20 -7 20 -74 0 -86 12 -106 66 -106 27 0 34 4 34 20 0 13 -7 20
-19 20 -28 0 -33 14 -34 79 0 53 2 56 27 59 37 5 36 40 -1 44 -24 3 -28 7 -25
31 3 23 0 27 -22 27 -22 0 -26 -4 -26 -30z"/>
<path d="M1954 4956 c-19 -19 -34 -38 -34 -44 0 -9 50 -28 54 -20 21 49 76 65
96 29 14 -28 -2 -58 -84 -155 -36 -42 -66 -86 -66 -97 0 -18 8 -19 110 -19
103 0 110 1 110 20 0 18 -7 20 -76 20 l-76 0 54 63 c77 89 88 107 88 150 0 55
-35 87 -96 87 -39 0 -51 -5 -80 -34z"/>
<path d="M2225 4965 c-16 -15 -25 -36 -25 -55 0 -33 37 -80 63 -80 8 0 26 9
41 21 20 16 26 29 26 59 0 30 -6 43 -26 59 -34 27 -50 26 -79 -4z m69 -37 c14
-23 -3 -53 -30 -53 -20 0 -31 33 -20 61 7 19 35 14 50 -8z"/>
<path d="M2418 4977 c-8 -6 -52 -83 -97 -169 -66 -128 -79 -158 -64 -158 13 0
41 45 102 165 46 91 82 167 79 170 -2 3 -11 -1 -20 -8z"/>
<path d="M7943 4934 c-66 -33 -77 -139 -19 -194 47 -44 144 -23 166 36 15 38
12 97 -6 122 -17 25 -65 52 -91 52 -10 0 -32 -8 -50 -16z m97 -53 c15 -30 12
-82 -7 -103 -16 -18 -49 -23 -69 -10 -34 22 -40 86 -12 119 17 21 76 16 88 -6z"/>
<path d="M8570 4932 c-82 -41 -71 -187 16 -211 101 -28 172 62 130 164 -14 34
-59 65 -93 65 -10 0 -34 -8 -53 -18z m94 -54 c35 -50 9 -118 -44 -118 -33 0
-48 16 -56 58 -14 68 63 113 100 60z"/>
<path d="M8953 4940 c-20 -8 -43 -38 -43 -57 0 -17 41 -12 60 7 20 20 47 18
62 -4 14 -20 8 -25 -37 -32 -83 -12 -124 -75 -77 -117 22 -20 92 -23 110 -5 9
9 12 9 12 0 0 -7 12 -12 26 -12 l26 0 -4 90 c-3 74 -8 94 -24 111 -23 23 -79
33 -111 19z m87 -133 c0 -28 -26 -49 -55 -45 -39 4 -42 39 -5 49 40 11 60 10
60 -4z"/>
<path d="M7666 4828 c-22 -31 -20 -64 4 -88 56 -56 129 18 90 91 -15 28 -74
26 -94 -3z m69 -43 c0 -23 -4 -30 -20 -30 -21 0 -31 25 -21 51 11 28 41 12 41
-21z"/>
<path d="M729 4800 c-47 -28 -48 -124 -1 -160 l27 -22 6 24 c4 15 0 29 -13 41
-24 24 -23 52 4 71 31 22 38 12 38 -53 0 -65 11 -81 56 -81 57 0 92 68 63 123
-9 16 -9 22 0 25 6 2 11 12 11 23 0 17 -8 19 -87 19 -49 0 -95 -5 -104 -10z
m146 -85 c0 -36 -2 -40 -25 -40 -22 0 -25 5 -28 43 -3 42 -2 43 25 40 25 -3
28 -7 28 -43z"/>
<path d="M2380 4768 c-41 -44 -12 -128 45 -128 36 0 65 33 65 75 0 66 -67 99
-110 53z m78 -47 c5 -31 -25 -56 -45 -40 -14 12 -18 51 -6 63 16 15 48 1 51
-23z"/>
<path d="M610 4555 l0 -25 155 0 155 0 0 25 0 25 -155 0 -155 0 0 -25z"/>
<path d="M7143 4523 c-7 -2 -13 -16 -13 -29 0 -19 5 -24 24 -24 28 0 42 26 25
46 -12 15 -16 16 -36 7z"/>
<path d="M7256 4508 c-9 -12 -16 -35 -16 -50 0 -18 -5 -28 -15 -28 -8 0 -15
-9 -15 -20 0 -11 7 -20 15 -20 12 0 15 -17 15 -90 0 -89 0 -90 25 -90 25 0 25
1 25 90 0 83 1 90 20 90 13 0 20 7 20 20 0 15 -7 20 -25 20 -28 0 -28 0 -15
34 6 16 17 26 29 26 19 0 35 23 24 34 -4 3 -21 6 -39 6 -23 0 -38 -7 -48 -22z"/>
<path d="M8150 4370 l0 -160 25 0 25 0 0 160 0 160 -25 0 -25 0 0 -160z"/>
<path d="M7040 4365 l0 -155 25 0 25 0 0 155 0 155 -25 0 -25 0 0 -155z"/>
<path d="M7810 4460 c0 -23 -4 -30 -20 -30 -13 0 -20 -7 -20 -20 0 -13 7 -20
20 -20 18 0 20 -7 20 -78 0 -87 8 -102 56 -102 23 0 33 5 37 20 4 16 0 20 -18
20 -28 0 -35 16 -35 86 0 51 1 54 25 54 18 0 25 5 25 20 0 15 -7 20 -25 20
-21 0 -25 5 -25 30 0 23 -4 30 -20 30 -16 0 -20 -7 -20 -30z"/>
<path d="M700 4445 c0 -25 1 -25 78 -25 82 0 102 -9 102 -45 0 -36 -20 -45
-102 -45 -77 0 -78 0 -78 -25 0 -25 1 -25 90 -25 77 0 93 3 110 20 21 21 28
94 10 105 -5 3 -10 11 -10 16 0 6 5 7 10 4 6 -4 10 5 10 19 l0 26 -110 0 -110
0 0 -25z"/>
<path d="M7420 4427 c-65 -22 -88 -117 -45 -183 33 -51 111 -55 156 -8 20 21
21 27 9 34 -22 14 -37 12 -44 -5 -8 -21 -59 -19 -79 3 -32 35 -21 42 61 42
l79 0 -5 33 c-7 45 -28 74 -64 86 -17 6 -31 11 -32 10 -1 0 -17 -5 -36 -12z
m78 -61 c3 -13 -6 -16 -47 -16 -42 0 -49 3 -44 16 13 35 84 36 91 0z"/>
<path d="M7635 4428 c-34 -9 -45 -23 -45 -64 0 -38 11 -48 68 -63 31 -9 42
-17 42 -31 0 -26 -37 -36 -59 -16 -19 17 -61 22 -61 7 0 -5 9 -19 19 -32 40
-50 151 -22 151 38 0 41 -19 62 -65 74 -53 13 -65 27 -40 45 16 12 22 12 39 1
12 -8 31 -11 44 -8 21 6 21 8 7 27 -16 25 -58 34 -100 22z"/>
<path d="M8290 4422 c-46 -22 -62 -55 -57 -115 8 -89 87 -132 156 -85 19 13
36 28 38 35 7 19 -37 26 -56 9 -24 -22 -68 -20 -81 3 -19 37 -12 41 65 41 74
0 75 0 75 25 0 41 -27 82 -61 94 -40 14 -38 14 -79 -7z m78 -44 c24 -24 12
-33 -38 -30 -27 2 -50 7 -50 11 0 15 25 31 50 31 14 0 31 -5 38 -12z"/>
<path d="M7130 4320 l0 -110 25 0 25 0 0 110 0 110 -25 0 -25 0 0 -110z"/>
<path d="M7920 4426 c0 -4 19 -56 41 -118 44 -118 44 -140 0 -146 -13 -2 -21
-11 -21 -23 0 -26 53 -26 79 0 10 10 39 80 64 155 l46 136 -24 0 c-21 0 -27
-10 -51 -84 l-28 -85 -26 82 c-23 74 -28 82 -53 85 -15 2 -27 1 -27 -2z"/>
<path d="M741 4214 c-44 -31 -59 -103 -28 -141 6 -9 6 -13 -2 -13 -6 0 -11 -9
-11 -20 0 -19 7 -20 155 -20 l155 0 0 25 c0 23 -3 25 -49 25 l-48 0 5 50 c4
44 2 52 -26 80 -26 25 -38 30 -79 30 -29 0 -58 -7 -72 -16z m121 -51 c27 -24
23 -69 -7 -89 -27 -17 -76 -14 -102 7 -18 16 -16 59 4 81 20 23 80 24 105 1z"/>
<path d="M8896 4001 c-11 -18 6 -42 28 -39 29 4 29 42 -1 46 -11 2 -24 -1 -27
-7z"/>
<path d="M743 3960 c-58 -35 -61 -131 -7 -179 24 -20 35 -23 83 -19 44 4 59
10 78 32 26 30 31 88 11 131 -24 54 -106 71 -165 35z m115 -46 c49 -34 15
-104 -52 -104 -38 0 -66 26 -66 61 0 32 32 59 70 59 14 0 36 -7 48 -16z"/>
<path d="M8768 3950 c4 -25 1 -30 -17 -30 -25 0 -30 -37 -5 -42 13 -2 16 -18
18 -75 1 -81 12 -100 61 -105 24 -2 31 1 33 19 2 16 -3 22 -20 25 -21 3 -23 9
-26 71 -3 66 -3 67 23 67 18 0 25 5 25 20 0 15 -7 20 -25 20 -21 0 -25 5 -25
30 0 25 -4 30 -23 30 -20 0 -23 -4 -19 -30z"/>
<path d="M7323 3918 c-51 -13 -76 -53 -71 -116 7 -86 75 -132 150 -101 44 18
74 88 59 139 -19 65 -72 95 -138 78z m67 -48 c11 -6 22 -26 26 -45 9 -48 -16
-85 -56 -85 -39 0 -60 24 -60 67 0 60 42 89 90 63z"/>
<path d="M7585 3922 c-11 -2 -26 -9 -32 -14 -9 -7 -13 -7 -13 1 0 6 -9 11 -20
11 -19 0 -20 -7 -20 -115 0 -108 1 -115 20 -115 18 0 20 7 20 73 0 78 16 117
50 117 38 0 50 -27 50 -111 0 -72 2 -79 20 -79 19 0 20 7 20 93 0 120 -22 153
-95 139z"/>
<path d="M7059 3891 c-24 -24 -29 -38 -29 -76 0 -87 50 -135 124 -121 32 6 76
45 76 67 0 16 -41 9 -69 -12 -24 -17 -32 -19 -50 -9 -31 16 -44 56 -31 96 16
48 57 59 87 24 20 -23 53 -27 53 -6 0 7 -9 25 -21 40 -17 21 -29 26 -65 26
-37 0 -51 -6 -75 -29z"/>
<path d="M7740 3900 c-11 -11 -20 -29 -20 -40 0 -28 44 -70 73 -70 29 0 52
-24 43 -45 -7 -19 -40 -19 -60 0 -19 19 -56 20 -56 1 0 -23 50 -56 85 -56 45
0 85 34 85 71 0 34 -31 69 -61 69 -28 0 -59 18 -59 34 0 19 35 26 57 12 10 -7
28 -10 41 -7 21 6 22 7 7 29 -22 30 -105 32 -135 2z"/>
<path d="M7930 3830 c0 -83 2 -93 25 -115 28 -29 61 -32 93 -9 20 14 22 14 22
0 0 -9 9 -16 20 -16 19 0 20 7 20 115 l0 115 -25 0 c-25 0 -25 -1 -25 -78 0
-83 -9 -102 -47 -102 -33 0 -44 35 -36 115 l6 65 -27 0 -26 0 0 -90z"/>
<path d="M8152 3808 c3 -109 4 -113 26 -116 21 -3 22 -1 22 75 0 89 12 117 51
111 23 -3 24 -7 29 -93 5 -83 7 -90 27 -93 21 -3 22 0 25 84 2 70 6 89 21 98
12 8 22 8 35 0 14 -9 18 -28 20 -98 3 -84 3 -86 27 -86 25 0 25 1 25 86 0 81
-10 120 -34 136 -17 12 -81 9 -93 -3 -8 -8 -17 -8 -31 0 -27 15 -75 14 -90 -1
-9 -9 -12 -9 -12 0 0 7 -11 12 -25 12 l-26 0 3 -112z"/>
<path d="M8500 3765 l0 -155 26 0 c26 0 26 1 22 55 -3 30 -3 55 -1 55 3 0 11
-7 19 -15 24 -24 70 -18 105 13 54 49 48 160 -10 192 -27 14 -84 13 -99 -2 -9
-9 -12 -9 -12 0 0 7 -11 12 -25 12 l-25 0 0 -155z m142 98 c23 -20 24 -80 1
-105 -18 -21 -66 -24 -80 -5 -26 32 -20 100 10 119 20 13 49 9 69 -9z"/>
<path d="M8900 3804 c0 -114 0 -115 23 -112 21 3 22 7 25 116 l3 112 -26 0
-25 0 0 -116z"/>
<path d="M9017 3894 c-32 -32 -43 -81 -28 -127 18 -52 45 -72 101 -72 56 0 83
20 101 72 15 46 3 100 -28 129 -38 35 -110 34 -146 -2z m117 -36 c34 -49 8
-118 -44 -118 -18 0 -34 8 -44 22 -34 49 -8 118 44 118 18 0 34 -8 44 -22z"/>
<path d="M9230 3804 c0 -111 1 -115 21 -112 18 3 20 11 22 79 3 83 15 109 53
109 33 0 44 -28 44 -115 0 -73 1 -76 23 -73 21 3 22 7 21 95 -1 112 -13 133
-79 133 -22 0 -46 -5 -53 -12 -9 -9 -12 -9 -12 0 0 7 -9 12 -20 12 -19 0 -20
-7 -20 -116z"/>
<path d="M1668 3748 c-32 -19 -38 -27 -38 -56 l0 -33 29 20 c16 12 32 21 35
21 3 0 6 -61 6 -135 l0 -135 25 0 25 0 0 170 c0 170 0 170 -22 170 -13 0 -40
-10 -60 -22z"/>
<path d="M1950 3726 c0 -24 -3 -64 -6 -90 -7 -44 -6 -46 19 -46 14 0 37 5 51
11 40 18 76 -10 76 -59 0 -21 -5 -43 -12 -50 -19 -19 -65 -14 -87 9 -13 14
-26 19 -40 14 -28 -9 -26 -21 8 -56 64 -63 176 -24 188 67 11 81 -54 145 -126
124 -33 -9 -38 -1 -25 47 5 20 14 22 73 25 60 3 66 5 69 26 3 21 1 22 -92 22
l-96 0 0 -44z"/>
<path d="M2227 3752 c-20 -22 -23 -91 -4 -115 20 -27 60 -31 87 -9 31 25 34
90 6 121 -24 26 -67 27 -89 3z m68 -62 c0 -29 -4 -36 -22 -38 -17 -3 -24 3
-29 22 -9 37 2 58 28 54 19 -2 23 -9 23 -38z"/>
<path d="M2336 3609 c-47 -89 -86 -166 -86 -170 0 -5 6 -9 13 -9 9 0 152 257
185 332 2 5 -3 8 -11 8 -9 0 -49 -65 -101 -161z"/>
<path d="M742 3710 c-44 -18 -62 -106 -29 -147 6 -9 6 -13 -2 -13 -6 0 -11
-10 -11 -22 0 -23 1 -23 153 -23 150 0 152 0 155 23 3 21 0 22 -52 22 -52 0
-70 10 -46 25 27 17 -1 114 -39 135 -24 12 -98 12 -129 0z m116 -56 c26 -18
29 -60 5 -86 -20 -22 -71 -24 -101 -2 -28 19 -31 78 -4 93 26 15 75 13 100 -5z"/>
<path d="M2381 3554 c-12 -15 -21 -37 -21 -49 0 -59 76 -98 113 -57 26 28 22
97 -5 116 -33 23 -64 19 -87 -10z m77 -45 c4 -34 -22 -57 -43 -39 -16 13 -20
51 -8 64 16 16 48 1 51 -25z"/>
<path d="M1817 3443 c-12 -44 -13 -60 -4 -65 19 -12 21 -11 45 36 27 51 26 80
-4 84 -17 2 -23 -6 -37 -55z"/>
<path d="M7616 3484 c-9 -22 17 -49 39 -40 10 3 15 15 13 28 -4 29 -42 37 -52
12z"/>
<path d="M8117 3493 c-13 -12 -7 -44 9 -50 20 -7 45 22 37 43 -5 14 -35 19
-46 7z"/>
<path d="M7064 3387 c-51 -44 -41 -166 15 -197 44 -23 131 -2 145 36 8 20 8
19 -21 28 -14 5 -23 3 -23 -4 0 -6 -11 -15 -25 -22 -19 -9 -29 -8 -50 6 -14 9
-25 25 -25 36 0 18 5 19 75 13 l75 -6 0 37 c0 82 -103 127 -166 73z m104 -29
c26 -26 13 -38 -38 -38 -52 0 -60 8 -34 34 18 19 55 21 72 4z"/>
<path d="M7270 3295 l0 -115 25 0 c24 0 24 2 27 86 2 70 6 89 21 98 12 8 22 8
35 0 14 -9 18 -28 20 -98 3 -84 3 -86 27 -86 24 0 24 2 27 86 2 70 6 89 21 98
12 8 22 8 35 0 14 -9 18 -28 20 -98 3 -85 3 -86 29 -86 l25 0 -4 94 c-3 75 -8
99 -22 115 -23 25 -72 28 -103 6 -18 -13 -22 -13 -33 0 -15 18 -71 20 -88 3
-9 -9 -12 -9 -12 0 0 7 -11 12 -25 12 l-25 0 0 -115z"/>
<path d="M7620 3296 l0 -116 25 0 26 0 -3 113 c-3 108 -4 112 -25 115 -23 3
-23 2 -23 -112z"/>
<path d="M7732 3390 c-25 -24 -29 -72 -8 -89 8 -6 33 -17 57 -24 33 -10 44
-18 44 -32 0 -25 -46 -33 -64 -12 -14 17 -51 11 -51 -9 0 -36 86 -57 133 -33
29 16 37 28 37 60 0 33 -24 54 -78 69 -32 8 -42 16 -40 28 4 20 45 29 61 13
15 -15 47 -14 47 2 0 46 -98 64 -138 27z"/>
<path d="M7932 3393 c-50 -44 -27 -100 50 -118 32 -8 43 -16 43 -30 0 -26 -46
-32 -69 -9 -12 12 -23 14 -37 8 -20 -9 -20 -10 1 -37 18 -22 29 -27 66 -27 91
0 128 87 53 125 -15 8 -36 15 -47 15 -23 0 -42 19 -35 36 6 16 49 19 58 4 10
-16 55 -12 55 4 0 41 -100 62 -138 29z"/>
<path d="M8110 3295 l0 -115 25 0 25 0 0 115 0 115 -25 0 -25 0 0 -115z"/>
<path d="M8244 3399 c-71 -35 -71 -174 1 -207 95 -43 183 36 155 140 -18 66
-92 98 -156 67z m95 -55 c12 -15 21 -38 21 -51 0 -27 -41 -73 -65 -73 -51 0
-77 104 -33 134 32 23 54 20 77 -10z"/>
<path d="M8440 3295 c0 -108 1 -115 20 -115 18 0 20 7 20 75 0 62 4 79 20 95
49 49 80 14 80 -91 0 -78 0 -79 25 -79 23 0 25 3 24 48 -1 87 -15 154 -34 168
-22 17 -69 18 -96 4 -13 -7 -19 -7 -19 0 0 5 -9 10 -20 10 -19 0 -20 -7 -20
-115z"/>
<path d="M8681 3384 c-39 -50 -16 -95 55 -109 41 -7 55 -20 47 -42 -7 -17 -48
-17 -66 1 -15 15 -57 11 -57 -5 0 -22 46 -49 85 -49 53 0 85 23 85 60 0 48
-10 59 -67 76 -40 12 -53 20 -51 32 4 20 46 28 61 13 14 -14 57 -14 57 -1 0
26 -41 50 -84 50 -36 0 -48 -5 -65 -26z"/>
<path d="M610 3335 c0 -24 3 -25 57 -25 44 0 54 -3 45 -12 -7 -7 -12 -32 -12
-56 0 -35 6 -49 29 -73 25 -24 38 -29 78 -29 29 0 58 7 72 16 45 32 59 103 27
143 -8 11 -8 15 2 18 6 3 12 13 12 24 0 18 -9 19 -155 19 l-155 0 0 -25z m252
-42 c42 -38 10 -103 -50 -103 -63 0 -95 58 -55 102 20 23 80 24 105 1z"/>
<path d="M610 3075 l0 -25 155 0 155 0 0 25 0 25 -155 0 -155 0 0 -25z"/>
<path d="M700 2997 c0 -13 6 -29 13 -36 10 -11 10 -14 0 -18 -7 -3 -13 -16
-13 -29 0 -24 0 -24 110 -24 l110 0 0 25 c0 24 -2 25 -68 25 -80 0 -117 19
-109 56 3 20 0 24 -19 24 -18 0 -24 -5 -24 -23z"/>
<path d="M750 2833 c-67 -34 -74 -135 -13 -183 18 -14 41 -20 75 -20 41 0 54
5 79 29 24 24 29 38 29 75 0 90 -88 141 -170 99z m117 -54 c18 -16 16 -59 -4
-81 -19 -21 -81 -24 -107 -5 -27 20 -18 78 14 95 27 13 74 9 97 -9z"/>
<path d="M610 2595 c0 -26 -6 -23 150 -63 l75 -19 -110 -35 c-149 -49 -149
-60 5 -109 l114 -36 -117 -27 c-116 -27 -117 -28 -117 -56 0 -19 4 -28 13 -25
6 2 59 16 117 30 198 49 182 42 178 77 -3 32 -11 36 -168 79 l-45 12 85 28
c47 16 95 28 108 29 18 0 22 6 22 34 l0 34 -145 36 c-79 20 -149 36 -155 36
-5 0 -10 -11 -10 -25z"/>
<path d="M2033 2544 c-36 -21 -43 -30 -43 -55 l0 -31 35 22 35 22 0 -136 0
-136 25 0 25 0 0 170 c0 193 1 191 -77 144z"/>
<path d="M2225 2540 c-41 -46 -12 -130 45 -130 37 0 60 29 60 77 0 67 -64 99
-105 53z m63 -22 c18 -18 14 -56 -6 -67 -23 -12 -42 3 -42 34 0 20 17 45 30
45 3 0 11 -5 18 -12z"/>
<path d="M2378 2488 c-20 -40 -60 -115 -87 -165 -41 -76 -48 -93 -33 -93 12 0
42 49 103 165 66 125 82 165 70 165 -11 0 -30 -27 -53 -72z"/>
<path d="M2376 2348 c-36 -51 -8 -118 49 -118 24 0 39 7 49 22 36 51 8 118
-49 118 -24 0 -39 -7 -49 -22z m78 -30 c14 -23 -3 -53 -30 -53 -20 0 -31 33
-20 61 7 19 35 14 50 -8z"/>
<path d="M3535 1511 c-3 -2 -5 -78 -5 -168 l0 -163 25 0 25 0 0 169 c0 165 -1
170 -20 168 -12 -1 -23 -3 -25 -6z"/>
<path d="M3807 1513 c-4 -3 -7 -32 -7 -64 l0 -58 -28 16 c-38 22 -95 11 -121
-23 -47 -59 -35 -160 22 -194 38 -24 76 -25 103 -5 22 17 38 20 29 5 -4 -6 6
-10 22 -10 l28 0 -3 170 c-3 156 -4 170 -21 170 -10 0 -21 -3 -24 -7z m-23
-165 c55 -78 -36 -174 -94 -101 -24 31 -22 74 7 105 23 25 68 23 87 -4z"/>
<path d="M5048 1351 l-3 -171 28 0 27 0 -2 168 c-3 164 -3 167 -25 170 -22 3
-22 2 -25 -167z"/>
<path d="M7950 1455 l0 -66 -31 17 c-40 20 -88 12 -119 -21 -18 -19 -25 -40
-28 -83 -4 -51 -1 -62 23 -90 40 -48 118 -53 147 -8 5 7 8 4 8 -6 0 -13 8 -18
25 -18 l25 0 -2 167 c-3 164 -3 166 -25 169 -22 4 -23 1 -23 -61z m-21 -111
c24 -30 26 -55 10 -87 -16 -29 -28 -37 -61 -37 -53 0 -79 89 -38 130 28 28 64
25 89 -6z"/>
<path d="M2696 1483 c4 -16 23 -91 43 -168 l36 -140 30 3 c17 2 32 5 33 7 2 2
16 54 32 115 16 61 30 113 32 116 2 2 17 -50 33 -116 l29 -120 33 0 c36 0 28
-19 82 197 17 67 31 124 31 127 0 3 -11 6 -25 6 -19 0 -26 -7 -32 -27 -3 -16
-18 -75 -33 -132 l-26 -103 -23 98 c-41 170 -39 164 -70 164 -27 0 -28 -2 -56
-122 -28 -119 -45 -165 -45 -120 0 18 -9 64 -45 220 -4 17 -12 22 -35 22 -28
0 -30 -2 -24 -27z"/>
<path d="M5545 1500 c-11 -17 5 -50 24 -50 24 0 43 23 35 44 -7 18 -49 22 -59
6z"/>
<path d="M5400 1445 c0 -28 -4 -35 -20 -35 -13 0 -20 -7 -20 -20 0 -13 7 -20
20 -20 18 0 20 -7 20 -84 0 -93 8 -107 62 -109 27 -2 34 2 36 20 2 16 -3 22
-20 25 -21 3 -23 8 -26 76 -3 71 -3 72 23 72 18 0 25 5 25 20 0 15 -7 20 -25
20 -22 0 -25 4 -25 35 0 31 -3 35 -25 35 -22 0 -25 -4 -25 -35z"/>
<path d="M3168 1404 c-79 -42 -76 -179 4 -220 68 -35 152 12 164 91 15 104
-80 177 -168 129z m88 -42 c37 -24 40 -88 7 -124 -38 -42 -103 -5 -103 57 0
55 56 94 96 67z"/>
<path d="M3442 1404 c-12 -8 -22 -10 -22 -5 0 6 -11 11 -25 11 l-25 0 0 -115
0 -115 25 0 c24 0 25 2 25 64 0 86 12 115 50 122 23 5 30 12 30 30 0 28 -24
32 -58 8z"/>
<path d="M4082 1404 c-12 -8 -22 -10 -22 -5 0 6 -11 11 -25 11 l-25 0 0 -165
0 -165 25 0 c24 0 25 3 25 61 l0 60 22 -15 c50 -35 117 -9 142 56 29 71 3 147
-56 167 -42 15 -60 14 -86 -5z m83 -54 c12 -13 19 -35 18 -56 -3 -99 -123 -98
-123 1 0 67 64 100 105 55z"/>
<path d="M4334 1411 c-41 -18 -64 -60 -64 -117 0 -45 5 -59 29 -86 26 -29 35
-33 80 -33 72 0 103 32 109 113 4 54 2 62 -24 91 -31 35 -90 49 -130 32z m90
-63 c22 -31 20 -84 -4 -108 -43 -43 -100 -11 -100 55 0 44 25 75 60 75 18 0
34 -8 44 -22z"/>
<path d="M4602 1404 c-12 -8 -22 -10 -22 -5 0 6 -11 11 -25 11 l-25 0 0 -165
0 -165 25 0 c24 0 25 3 25 61 l0 60 22 -15 c30 -21 66 -20 105 4 71 43 62 178
-14 218 -30 16 -64 15 -91 -4z m80 -51 c23 -21 24 -89 1 -115 -37 -41 -103 -6
-103 55 0 66 58 100 102 60z"/>
<path d="M5171 1394 c-17 -14 -31 -32 -31 -40 0 -19 44 -18 60 1 15 18 51 20
68 3 23 -23 12 -35 -37 -41 -81 -10 -112 -42 -97 -100 10 -43 82 -61 124 -31
12 8 22 10 22 5 0 -6 11 -11 25 -11 25 0 25 1 25 91 0 87 -1 92 -29 120 -39
38 -87 39 -130 3z m93 -155 c-21 -23 -72 -25 -81 -3 -8 22 10 36 54 43 44 8
55 -9 27 -40z"/>
<path d="M5704 1411 c-41 -18 -64 -60 -64 -117 0 -45 5 -59 29 -86 26 -29 35
-33 81 -33 46 0 55 4 81 33 25 27 29 41 29 87 0 46 -5 60 -27 85 -30 34 -89
48 -129 31z m88 -58 c25 -23 24 -87 -2 -113 -43 -43 -100 -11 -100 55 0 64 58
98 102 58z"/>
<path d="M5972 1404 c-12 -8 -22 -10 -22 -5 0 6 -11 11 -25 11 l-25 0 0 -115
0 -115 25 0 c24 0 25 2 25 73 0 82 16 117 55 117 35 0 45 -27 45 -118 0 -79 0
-79 25 -74 24 4 25 7 25 82 0 93 -13 133 -46 149 -34 15 -55 14 -82 -5z"/>
<path d="M6288 1404 c-24 -13 -48 -42 -48 -58 0 -13 58 -5 64 9 8 23 63 19 76
-5 12 -23 9 -25 -54 -34 -59 -8 -86 -30 -86 -71 0 -65 59 -94 123 -61 21 12
27 12 27 2 0 -9 9 -12 25 -8 24 4 25 7 24 76 0 39 -5 87 -12 106 -19 55 -82
76 -139 44z m102 -132 c0 -4 -7 -18 -16 -30 -12 -17 -24 -22 -47 -20 -40 4
-49 34 -15 47 29 12 78 14 78 3z"/>
<path d="M6552 1404 c-12 -8 -22 -10 -22 -5 0 6 -11 11 -25 11 l-25 0 0 -115
0 -115 25 0 c24 0 25 2 25 73 0 82 16 117 56 117 19 0 24 5 24 25 0 29 -24 33
-58 9z"/>
<path d="M6712 1404 c-12 -8 -22 -10 -22 -5 0 6 -11 11 -25 11 l-25 0 0 -115
0 -115 25 0 c25 0 25 1 25 78 0 85 14 112 58 112 17 0 22 6 22 25 0 29 -24 33
-58 9z"/>
<path d="M6821 1394 c-17 -14 -31 -32 -31 -40 0 -19 44 -18 60 1 16 19 54 19
70 0 18 -21 5 -32 -45 -38 -85 -9 -121 -72 -70 -122 28 -28 70 -32 102 -10 18
13 22 13 26 1 4 -9 14 -12 26 -9 19 5 21 13 21 95 0 86 -1 91 -29 119 -39 38
-87 39 -130 3z m109 -128 c0 -24 -29 -46 -60 -46 -32 0 -43 11 -34 34 10 26
94 37 94 12z"/>
<path d="M7092 1404 c-12 -8 -22 -10 -22 -5 0 6 -11 11 -25 11 l-25 0 0 -115
0 -115 25 0 c24 0 25 2 25 73 0 81 16 117 54 117 38 0 46 -19 46 -107 0 -82 0
-83 25 -83 25 0 25 0 25 95 0 88 -2 98 -25 120 -28 29 -70 32 -103 9z"/>
<path d="M7313 1401 c-57 -36 -69 -136 -22 -195 17 -21 29 -26 66 -26 29 0 53
6 65 17 17 15 18 15 18 -9 0 -51 -63 -80 -103 -47 -15 11 -37 19 -49 17 -61
-8 16 -78 86 -78 90 0 116 49 116 215 l0 115 -25 0 c-17 0 -25 -6 -25 -17 0
-16 -1 -16 -13 0 -19 28 -77 31 -114 8z m107 -51 c28 -28 26 -75 -5 -105 -13
-14 -31 -25 -40 -25 -23 0 -65 45 -65 70 0 24 18 61 34 72 20 14 56 8 76 -12z"/>
<path d="M7594 1410 c-12 -4 -31 -21 -44 -37 -18 -23 -21 -37 -18 -86 6 -80
37 -112 109 -112 43 0 54 4 75 28 13 15 24 32 24 38 0 15 -57 10 -64 -6 -8
-21 -59 -19 -79 3 -32 35 -21 42 63 42 l80 0 0 30 c0 81 -71 130 -146 100z
m84 -52 c26 -26 13 -38 -43 -38 -59 0 -60 1 -45 31 12 22 68 27 88 7z"/>
<path d="M4790 1319 c0 -87 1 -92 29 -120 33 -32 65 -37 99 -13 18 13 22 13
22 1 0 -10 8 -13 25 -9 25 4 25 5 25 118 l0 114 -25 0 c-24 0 -25 -2 -25 -73
0 -83 -16 -117 -56 -117 -32 0 -44 32 -44 121 0 67 -1 69 -25 69 -25 0 -25 -1
-25 -91z"/>
<path d="M5550 1295 l0 -115 25 0 25 0 0 115 0 115 -25 0 -25 0 0 -115z"/>
<path d="M2730 830 l0 -170 25 0 c17 0 25 6 25 17 0 14 2 15 18 1 29 -26 59
-30 96 -13 105 50 74 235 -39 235 -17 0 -41 -7 -53 -16 l-22 -15 0 65 c0 64
-1 66 -25 66 l-25 0 0 -170z m161 4 c8 -9 13 -34 13 -56 -2 -73 -63 -103 -103
-52 -42 53 -17 124 43 124 19 0 40 -7 47 -16z"/>
<path d="M3320 985 c-15 -18 -7 -43 16 -52 24 -9 46 24 33 48 -12 23 -32 24
-49 4z"/>
<path d="M5144 986 c-3 -9 -4 -38 -2 -66 3 -55 2 -56 -26 -35 -40 30 -112 8
-134 -40 -7 -14 -12 -48 -12 -75 0 -40 5 -56 28 -81 23 -26 36 -32 70 -32 27
0 50 7 62 18 18 16 20 16 20 2 0 -11 8 -17 23 -17 l24 0 -1 168 c-1 165 -1
167 -24 170 -13 2 -24 -3 -28 -12z m-19 -156 c39 -43 11 -130 -42 -130 -54 0
-86 88 -46 132 22 24 65 23 88 -2z"/>
<path d="M5717 994 c-13 -14 -7 -52 10 -58 25 -10 51 20 37 42 -12 19 -36 27
-47 16z"/>
<path d="M5820 830 l0 -170 25 0 25 0 0 170 0 170 -25 0 -25 0 0 -170z"/>
<path d="M4879 932 c-50 -101 -20 -312 44 -312 l24 0 -19 39 c-31 63 -35 173
-9 248 25 75 25 68 2 70 -14 1 -26 -12 -42 -45z"/>
<path d="M6355 963 c47 -111 50 -233 8 -315 -13 -27 -12 -28 11 -28 21 0 28 9
46 56 11 31 23 75 26 98 7 46 -15 143 -40 182 -19 29 -63 35 -51 7z"/>
<path d="M2965 892 c-1 -2 17 -55 40 -118 24 -63 41 -124 38 -135 -4 -12 -17
-22 -34 -26 -43 -8 -40 -43 4 -43 55 0 59 6 124 184 54 149 53 140 24 140 -22
0 -28 -9 -54 -88 l-29 -88 -29 88 c-26 82 -30 89 -54 89 -15 0 -28 -1 -30 -3z"/>
<path d="M3320 781 l0 -121 25 0 26 0 -3 118 c-3 113 -4 117 -25 120 -23 3
-23 2 -23 -117z"/>
<path d="M3410 779 l0 -119 25 0 c24 0 25 2 25 69 0 94 11 121 49 121 41 0 51
-23 51 -114 0 -74 1 -76 25 -76 25 0 25 0 25 95 0 88 -2 98 -25 120 -26 27
-72 33 -106 15 -10 -6 -19 -7 -19 -2 0 5 -11 10 -25 10 l-25 0 0 -119z"/>
<path d="M3684 866 c-29 -29 -34 -41 -34 -82 0 -64 17 -95 63 -117 45 -23 85
-16 121 20 31 31 32 40 7 48 -13 4 -27 -1 -40 -14 -27 -27 -66 -27 -85 1 -21
29 -20 92 0 112 22 22 71 20 83 -3 7 -13 18 -17 35 -14 22 5 24 7 13 30 -13
30 -55 53 -98 53 -22 0 -41 -10 -65 -34z"/>
<path d="M3914 866 c-30 -30 -34 -40 -34 -89 0 -65 24 -102 75 -116 71 -19
132 17 144 86 16 84 -35 153 -111 153 -32 0 -47 -7 -74 -34z m126 -35 c28 -53
-2 -131 -50 -131 -51 0 -81 90 -43 132 22 25 79 24 93 -1z"/>
<path d="M4146 892 c-3 -3 -6 -56 -6 -119 l0 -113 25 0 c24 0 25 2 25 76 0 86
11 114 43 114 39 0 47 -19 47 -107 0 -82 0 -83 25 -83 25 0 25 1 25 83 0 87 8
107 45 107 37 0 45 -20 45 -107 0 -83 0 -83 26 -83 l26 0 -4 101 c-3 92 -5
103 -27 120 -28 23 -78 25 -102 3 -16 -15 -20 -15 -41 0 -26 19 -69 21 -85 5
-7 -7 -17 -8 -25 -3 -17 11 -35 14 -42 6z"/>
<path d="M4539 872 c-27 -24 -33 -37 -36 -83 -7 -96 54 -152 142 -128 30 9 65
41 65 60 0 17 -43 16 -61 -2 -25 -25 -54 -24 -79 1 -40 40 -27 50 60 50 l80 0
0 36 c0 85 -105 125 -171 66z m103 -29 c31 -28 22 -38 -34 -36 -55 1 -65 14
-31 41 23 16 43 15 65 -5z"/>
<path d="M5269 872 c-25 -23 -33 -38 -36 -78 -10 -97 55 -160 139 -135 33 10
68 42 68 63 0 15 -46 12 -62 -4 -24 -24 -53 -23 -78 2 -40 40 -28 50 65 50 94
0 97 2 71 64 -29 70 -110 89 -167 38z m103 -29 c32 -29 22 -40 -37 -41 -59 0
-66 7 -35 38 24 24 47 25 72 3z"/>
<path d="M5504 866 c-30 -30 -34 -40 -34 -88 0 -63 18 -94 66 -114 52 -22 107
-4 132 43 10 19 9 23 -9 28 -14 5 -27 0 -40 -14 -25 -26 -53 -27 -79 -1 -26
26 -27 90 -2 113 25 23 67 21 83 -3 10 -14 21 -18 36 -14 19 5 20 9 10 31 -13
30 -55 53 -98 53 -22 0 -41 -10 -65 -34z"/>
<path d="M5710 780 l0 -120 25 0 25 0 0 120 0 120 -25 0 -25 0 0 -120z"/>
<path d="M5939 872 c-25 -23 -33 -38 -36 -78 -7 -66 15 -110 65 -131 44 -18
103 -5 127 30 20 28 19 34 -7 40 -15 4 -26 0 -35 -13 -18 -26 -58 -25 -83 0
-40 40 -27 50 64 50 l83 0 -7 42 c-16 86 -107 118 -171 60z m103 -29 c31 -28
22 -39 -34 -36 -55 2 -65 15 -31 41 23 16 43 15 65 -5z"/>
<path d="M6176 879 c-31 -24 -35 -68 -7 -93 10 -9 38 -22 62 -29 33 -10 44
-18 44 -32 0 -26 -50 -33 -74 -11 -13 12 -25 14 -40 8 l-22 -8 20 -26 c25 -31
66 -41 115 -27 38 11 56 33 56 72 0 31 -20 48 -79 67 -54 18 -67 46 -26 56 16
4 32 1 43 -8 20 -17 52 -13 52 7 0 43 -99 60 -144 24z"/>
</g>
</svg>
